<?xml version="1.0" encoding="UTF-8"?>
<svg width="124px" height="171px" viewBox="0 0 124 171" version="1.1" xmlns="http://www.w3.org/2000/svg" xmlns:xlink="http://www.w3.org/1999/xlink">
    <!-- Generator: Sketch 52.6 (67491) - http://www.bohemiancoding.com/sketch -->
    <title>Group 2</title>
    <desc>Created with Sketch.</desc>
    <g id="Wireframe-and-screens" stroke="none" stroke-width="1" fill="none" fill-rule="evenodd">
        <g id="Overview---document-center-Copy-16" transform="translate(-969.000000, -81.000000)">
            <g id="Group-2" transform="translate(969.000000, 81.000000)">
                <g id="Group-13" transform="translate(0.000000, 132.000000)">
                    <ellipse id="Oval" fill="#EBECEE" cx="61.9411883" cy="18.1598389" rx="61.9411883" ry="5.83411165"></ellipse>
                    <g id="Group-3" transform="translate(90.201337, 0.000000)" fill="#E3EFFA">
                        <path d="M11.0391689,18.4665461 L5.03080072,18.4665461 C5.03080072,18.4665461 1.32939313,15.1260597 0.124559279,10.6466801 C-0.428479208,8.58143338 2.30116075,7.15781674 3.95237567,8.6415862 C7.82364508,12.0863374 11.0391689,18.4665461 11.0391689,18.4665461 Z" id="Path"></path>
                        <path d="M13.3865015,17.6636528 L7.23303993,17.6636528 C7.23303993,17.6636528 3.71157802,10.7553664 5.07407246,5.72483567 C5.28230616,4.91312363 5.94516113,4.27916465 6.79437947,4.0795224 C7.64359782,3.87988016 8.53856328,4.14761203 9.1170827,4.77436673 C13.7584584,9.66966813 13.3865015,17.6636528 13.3865015,17.6636528 Z" id="Path"></path>
                        <path d="M13.3935992,18.4665461 L17.338455,18.4665461 C17.338455,18.4665461 19.8105111,14.1754517 22.1541487,8.90139276 C24.3212108,3.98656985 20.629179,1.93379241 18.3096199,6.7657147 C15.3399421,12.9122041 13.3935992,18.4665461 13.3935992,18.4665461 Z" id="Path"></path>
                        <path d="M14.1784094,18.4665461 L20.206093,18.4665461 C20.206093,18.4665461 26.2773407,15.5460048 25.9367488,10.0186994 C25.8496207,8.5745199 24.2219085,7.63318841 22.7684526,8.19235541 C16.313049,10.7226866 14.1784094,18.4665461 14.1784094,18.4665461 Z" id="Path"></path>
                        <path d="M11.6442671,17.6636528 L17.41592,17.6636528 C17.41592,17.6636528 19.1591638,7.80906254 17.0900092,1.60532639 C16.4722945,-0.249198867 14.2780811,-0.575098702 13.2662418,1.03888144 C9.50689858,7.01371175 11.6442671,17.6636528 11.6442671,17.6636528 Z" id="Path"></path>
                    </g>
                </g>
                <polyline id="Fill-62" fill="#222D53" opacity="0.373976935" points="81.7322725 144.971395 68.6380698 133.17682 67.6976974 133.964363 79.9220673 144.997248 81.7322725 144.971395"></polyline>
                <polygon id="Fill-62-Copy" fill="#222D53" opacity="0.373976935" points="56.0022182 144.971395 68.1634248 133.17682 69.0367932 133.964363 57.6834415 144.997248"></polygon>
                <path d="M94.0519113,111.227835 C94.0517747,110.506903 94.0405714,68.8068826 94.0229466,3.47214353 L94.0519113,3.55942944 C80.2954483,3.5651936 63.3258147,3.57219295 44.9997582,3.57960401 L44.9956594,3.57960401 L45.0311822,3.47214353 C45.0300891,42.124568 45.0288595,78.7702399 45.0279031,111.227423 L44.9956594,111.130668 C74.023358,111.188309 93.7664996,111.227012 94.0519113,111.227835 C93.7667728,111.228247 74.023358,111.267361 44.9956594,111.325002 L44.9634157,111.325002 L44.9634157,111.227423 C44.9623226,78.7702399 44.9612296,42.124568 44.96,3.47214353 L44.96,3.36509477 L44.9997582,3.36509477 C63.3258147,3.37250584 80.2954483,3.37950518 94.0519113,3.38485762 L94.0810127,3.38485762 L94.0810127,3.47214353 C94.0633879,68.8068826 94.0521846,110.507315 94.0519113,111.227835" id="Fill-64" fill="#1A282B"></path>
                <path d="M91.8683544,27.187378 C91.8683544,27.3008542 83.3151094,27.3922655 72.76668,27.3922655 C62.2144841,27.3922655 53.6631224,27.3008542 53.6631224,27.187378 C53.6631224,27.0739019 62.2144841,26.9817026 72.76668,26.9817026 C83.3151094,26.9817026 91.8683544,27.0739019 91.8683544,27.187378" id="Fill-77" fill="#1A282B"></path>
                <text id="My-Docs" font-family="Helvetica" font-size="5" font-weight="normal" letter-spacing="0.4166667" fill="#3B4452">
                    <tspan x="59.1104762" y="20.9047137">MY </tspan>
                    <tspan x="59.1104762" y="26.9047137">DOCS</tspan>
                </text>
                <path d="M78.1210368,60.4822441 C78.1210368,60.4822441 76.7977431,70.4920179 74.1804867,75.4848374 L61.7063291,71.6662827 C61.7063291,71.6662827 66.7325496,62.7509097 66.1029968,58.0652596 L78.1210368,60.4822441" id="Fill-113" fill="#ECECE8"></path>
                <path d="M78.1210368,60.4572218 C78.1210368,60.4572218 75.5136677,70.7958196 74.2302149,73.82583 L61.7063291,69.9673315 C61.7063291,69.9673315 65.2987324,60.0673959 65.5330837,57.2357559 L78.1210368,60.4572218" id="Fill-114" fill="#365158"></path>
                <path d="M66.63087,62.2167962 C66.6490392,62.1620261 68.5006428,62.6736102 70.7668338,63.3582359 C73.0330248,64.0432584 74.8557228,64.642554 74.8379666,64.697324 C74.8197974,64.7516972 72.9686068,64.24051 70.7020029,63.5554874 C68.4362248,62.8708618 66.6131138,62.2711694 66.63087,62.2167962" id="Fill-115" fill="#FFFFFE"></path>
                <path d="M66.63087,64.7052578 C66.6486272,64.6508761 68.5003239,65.1617468 70.7666289,65.8468771 C73.0333469,66.5320074 74.8557237,67.1313972 74.8379666,67.1857789 C74.8202094,67.2405576 72.9689257,66.72929 70.7017947,66.0441597 C68.4363156,65.3590294 66.6131129,64.7596396 66.63087,64.7052578" id="Fill-116" fill="#FFFFFE"></path>
                <path d="M67.4517144,67.1978468 C67.4704135,67.1346396 68.5875727,67.4506753 69.9473847,67.9046594 C71.3071967,68.3581821 72.3943505,68.7771024 72.3756514,68.8407709 C72.3565175,68.9039781 71.2393583,68.587481 69.8795463,68.1334969 C68.5201692,67.6799742 67.4330154,67.2610539 67.4517144,67.1978468" id="Fill-117" fill="#FFFFFE"></path>
                <polyline id="Fill-184" fill="#DFDFDA" points="46.9330922 2.91585949 95.6030455 7.46553337 95.6330922 2.48851112 46.9330922 2.91585949"></polyline>
                <polygon id="Fill-185" fill="#365158" points="45 3.31801483 95.6307414 3.31801483 95.6307414 6.37490061e-13 45 6.37490061e-13"></polygon>
                <rect id="Rectangle-Copy-2" fill="#DFA46C" x="12.4622061" y="164.241734" width="3.28294153" height="2.48851112"></rect>
                <path d="M10.8388596,166.730245 C10.8630252,167.21336 10.9345971,167.814711 11.0535755,168.534299 C11.8987928,168.91756 12.5935431,169.138527 13.1378263,169.197199 C13.6821096,169.255872 14.4704277,169.194777 15.5027807,169.013914 C15.8459971,168.42042 16.0776847,167.900046 16.1978434,167.452792 C16.3180022,167.005538 16.4406821,166.206888 16.5658831,165.056842 C15.1747836,165.491943 14.1569593,165.663626 13.5124102,165.571889 C12.8678611,165.480153 11.9766776,165.036768 10.8388596,164.241734 C10.814694,165.417627 10.814694,166.247131 10.8388596,166.730245 Z" id="Fill-273" fill="#1F2A3B" transform="translate(13.693309, 166.730245) rotate(7.000000) translate(-13.693309, -166.730245) "></path>
                <path d="M67.3597665,71.9834192 L65.2702368,72.9963263 L63.3477999,69.9288417 L64.4717597,67.5609666 C64.5788035,67.3410387 64.6928095,67.0945602 64.8124723,66.8117959 C64.9521514,66.4812403 65.0343923,66.1285592 65.0605006,65.7701255 C65.0918305,65.3360225 65.1105414,64.7572184 65.0265599,64.4372831 C64.9229972,64.042121 65.334202,63.7182031 65.6139953,63.9487512 C65.8937887,64.1792993 66.2049119,65.2607956 65.9977865,66.5653174 C65.790226,67.8698391 67.2840526,66.4861079 67.8371122,65.9918234 C68.3901718,65.4970964 70.1694485,64.0514137 70.4488067,64.1080551 C70.8587061,64.1903621 70.8473925,64.6638486 70.2843248,65.1444153 C69.7142948,65.6302921 68.1286542,67.1883725 68.3914772,67.4786596 L68.4040962,67.4799871 C69.0715969,67.5512314 69.61987,68.0539236 69.7669464,68.7199023 C69.9092364,69.3624279 70.0241126,70.249662 69.6690405,70.5421616 C68.998929,71.0939725 67.3597665,71.9834192 67.3597665,71.9834192" id="Fill-293" fill="#DFA46C"></path>
                <path d="M28.1102441,43.7071861 L28.0561784,61.8416482 L35.6093285,62.2127781 L35.8277034,57.8018574 C35.8277034,57.8018574 38.5102923,58.3505032 39.202587,55.7839199 C39.6448277,54.1449439 39.5341619,41.4751854 39.5341619,41.4751854 L28.1102441,43.7071861" id="Fill-294" fill="#DFA46C"></path>
                <path d="M40.8907854,43.5898409 C40.3775882,44.6662891 37.93511,46.6363191 37.93511,46.6363191 L36.8316294,49.6382695 C35.8729514,48.8765418 34.5859123,48.920205 34.3427293,50.6299852 C34.1664109,51.865523 35.6795974,52.1153973 35.6795974,52.1153973 C34.7988573,53.6371233 34.2013338,54.8679057 32.9185537,56.3152747 C31.5305787,57.8819608 30.752478,58.0397534 29.2469574,58.0652596 L27.5868389,58.0652596 C27.5868389,58.0652596 24.1895157,55.1839232 24.8611439,47.5943148 C25.5327722,40.0047063 32.2541655,42.2189905 33.8584925,40.322453 C36.4717525,37.2340409 42.6028625,39.9951955 40.8907854,43.5898409" id="Fill-295" fill="#222D53"></path>
                <rect id="Rectangle-Copy-2" fill="#DFA46C" x="36.0754471" y="164.543201" width="3.41973076" height="2.61948539"></rect>
                <path d="M23.8092729,141.84553 C22.0656953,148.664722 18.8343861,164.727993 17.4972878,165.12016 C15.7706944,165.626566 14.9612809,166.374756 13.1046459,165.970913 C11.2480108,165.56707 11.4361277,166.205098 10.3596779,164.976812 C9.69175484,164.214676 11.1386823,144.62868 13.5,126.481145 C14.94427,115.381436 17.5779041,104.857143 19.0806163,100.369949 C19.8509811,98.0695903 27.9939148,100.859603 31.1274329,98.6796934 C32.0826765,98.0151546 30.7870173,102.617892 29,112.288225 C26.8790082,123.765841 24.0849263,140.76744 23.8092729,141.84553 Z" id="Line-2" fill="#24528F"></path>
                <path d="M38.4819589,140.567292 C36.7446186,147.388553 33.3966519,164.821782 32.0163107,165.201053 C30.2338779,165.690806 28.4345524,164.985901 27.0039204,164.67423 C25.5732883,164.362558 26.0261672,164.410158 24.7878837,163.626299 C24.0156411,163.137454 25.0873143,140.730175 27.8061156,121.997595 C29.20508,112.35871 30.8521735,102.650473 33.3364107,99.173591 C34.3208769,97.7957542 42.4071991,99.5026875 45.6295394,97.3492257 C46.611504,96.6929874 45.458808,105.976547 43.7057659,115.652709 C41.6237079,127.144919 38.7567102,139.488546 38.4819589,140.567292 Z" id="Line-2-Copy" fill="#24528F" transform="translate(35.266633, 131.342812) scale(-1, 1) rotate(-6.000000) translate(-35.266633, -131.342812) "></path>
                <path d="M41.7761338,170.495182 C38.958667,170.646378 37.1341994,170.690518 36.3027309,170.627602 C35.0555282,170.533228 34.793048,170.387134 34.793048,169.858734 C34.793048,169.330335 36.0964857,169.177086 37.0738023,168.86272 C37.99123,168.567618 39.9804864,168.451062 40.9850997,168.032572 C44.0973099,166.736123 45.7923969,165.159695 46.0432766,165.451688 C46.2941563,165.743681 46.8339105,166.393539 47.8953652,166.448633 C48.6780507,166.489258 49.3200393,165.835294 49.7047829,165.679674 C49.9706651,165.57213 50.2828487,165.41149 50.4356962,165.679674 C50.8236889,166.360439 51.0169834,167.016313 51.0155796,167.647297 C51.1055818,168.706095 50.9088719,169.325687 50.4254497,169.506073 C50.1244236,169.618398 49.1456979,169.887255 46.9837033,170.087447 C46.1103806,170.168313 44.3745241,170.304225 41.7761338,170.495182 Z" id="Line" fill="#1F2A3B" transform="translate(42.914909, 168.035848) scale(-1, 1) rotate(8.000000) translate(-42.914909, -168.035848) "></path>
                <path d="M40.7993776,104.259674 C40.8049347,104.282376 40.4279094,104.402436 39.797824,104.376678 C39.1745781,104.355285 38.2901502,104.142234 37.4997649,103.562891 C36.7093796,102.982238 36.2301899,102.193773 36.0113271,101.597404 C35.7864798,100.995359 35.7783579,100.591958 35.8010137,100.590212 C35.8386307,100.58279 35.9027507,100.97091 36.1562382,101.534973 C36.4045961,102.095106 36.8812211,102.828125 37.6297147,103.378217 C38.3782083,103.926999 39.2104852,104.155331 39.809793,104.216453 C40.413803,104.282376 40.7946755,104.220818 40.7993776,104.259674" id="Fill-303" fill="#1A1838"></path>
                <path d="M32.6385497,123.377018 C32.4143646,125.820092 32.1884348,128.06853 31.9607601,130.122332 C31.7526109,132 31.7526109,132.343282 31.5935509,134 C31.3272341,136.773871 31.0166055,139.75358 30.639455,141.340121 C30.5077195,141.894286 30.529594,142.483417 30.4700023,142.975389 C30.3411603,144.039073 30.2274337,144.886314 30.1464612,145.618907 C29.8956779,147.887849 29.991162,148.915298 29.5632872,150.512543 C29.5309041,150.633428 29.5175712,150.862556 29.4986396,151.000461 C29.3986903,151.728529 29.2684933,152.541863 29.1596217,153.476171 C29.0676676,154.265297 28.881127,155.585547 28.6,157.436919 L31.8330768,119.937043 L33.3607601,115 L32.6385497,123.377018 Z" id="Line-12" fill="#1A1838" transform="translate(30.980380, 136.218460) scale(-1, 1) translate(-30.980380, -136.218460) "></path>
                <path d="M19.0280892,100.369949 L41.192133,100.369949 L40.333761,81.9990166 C40.1924721,78.389677 40.2137506,77.9589651 40.1269346,74.6271663 C40.1269346,74.6271663 43.4357313,78.7296208 46.0376583,81.6062702 C47.6101347,83.3443913 50.1022651,83.8300877 52.1926585,82.8163655 L65.810006,73.0753815 L63.2599983,66.3864736 L50.8853115,74.154125 C50.318454,73.7927983 45.5001651,66.7456183 42.1705155,63.3047233 C40.0401185,61.1022886 37.1666786,59.8345905 34.1425874,59.7442588 C31.8538789,59.6757464 29.0915124,59.7844062 26.6249162,60.0536557 C22.8743792,60.4625484 19.9405085,63.5512808 19.6251621,67.404996 C19.3842902,70.3540852 19.577924,73.7779612 19.577924,79.5967177 L19.0280892,100.369949" id="Fill-304" fill="#B3D4F1"></path>
                <path d="M22.3110307,62.2127781 C20.2125229,63.1661603 11.4546479,74.6557273 10.8354301,82.1205348 C10.3737925,87.6838258 20.9423459,87.0785593 20.9423459,87.0785593 C20.9423459,87.0785593 21.6632008,64.2511792 21.3480403,64.574367 L22.3110307,62.2127781" id="Fill-305" fill="#B3D4F1"></path>
                <path d="M19.8488246,63.8717855 C19.8488246,63.8717855 19.8478373,63.9535189 19.8392812,64.107904 C19.8287505,64.2873714 19.8152581,64.5105164 19.798804,64.7829608 C19.7645794,65.369365 19.7188369,66.2186997 19.6763852,67.2691243 C19.5858874,69.3695411 19.5085529,72.2743177 19.4328639,75.4826752 C19.3571748,78.6927625 19.2880674,81.5988364 19.2057967,83.7001181 C19.1666358,84.7514077 19.1251714,85.6016073 19.0912758,86.1880115 C19.0738344,86.4604559 19.0593548,86.6836008 19.0478369,86.8630682 C19.0373063,87.0174534 19.0280892,87.0978894 19.0280892,87.0978894 C19.0280892,87.0978894 19.0277628,87.0165885 19.0343445,86.8622033 C19.0422425,86.6823035 19.0524441,86.4587261 19.0646201,86.1854167 C19.0876559,85.5661462 19.1192479,84.7237308 19.1577506,83.6975234 C19.226858,81.5958092 19.2887256,78.6897353 19.3644146,75.479648 C19.4401037,72.2712905 19.5253361,69.3660815 19.62801,67.2652323 C19.6770433,66.2148076 19.7300257,65.3659054 19.7721483,64.7803661 C19.7938678,64.5079216 19.8113091,64.2852091 19.8254597,64.1061742 C19.838623,63.9522215 19.8488246,63.8717855 19.8488246,63.8717855" id="Fill-306" fill="#A2C5E4"></path>
                <path d="M19.0275621,78.8031571 C19.036963,78.8097083 18.9201237,78.9648899 18.7159907,79.2052371 C18.5114101,79.4451748 18.2186404,79.7694593 17.877971,80.1138068 C17.536854,80.4581543 17.2136435,80.7574623 16.9723547,80.9671008 C16.7315135,81.1771487 16.5748325,81.2991648 16.566327,81.2909758 C16.5569261,81.2819679 16.6974914,81.1452116 16.925798,80.9249274 C17.1545523,80.7042338 17.4688097,80.399603 17.8085837,80.0564838 C18.1479101,79.7133646 18.4478423,79.3968597 18.6649575,79.1667488 C18.8816249,78.9370473 19.0168183,78.7953775 19.0275621,78.8031571" id="Fill-307" fill="#8597A8"></path>
                <path d="M50.2221813,77.1438123 C50.18321,77.1393889 50.3336256,76.576637 50.557198,75.8885561 C50.7807704,75.1990007 50.9927197,74.647553 51.0310073,74.6554168 C51.0686112,74.6632806 50.9181956,75.225541 50.6953069,75.911656 C50.473102,76.596788 50.2611526,77.1487271 50.2221813,77.1438123" id="Fill-308" fill="#8597A8"></path>
                <path d="M51.8525525,77.1438091 C51.8181989,77.1489603 51.6090102,76.5964997 51.3850986,75.90968 C51.1611869,75.2220019 51.0072093,74.6605268 51.0415629,74.6553756 C51.0759165,74.6497952 51.2857186,75.2022558 51.5096303,75.8895047 C51.7335419,76.5767536 51.8875195,77.1382287 51.8525525,77.1438091" id="Fill-309" fill="#8597A8"></path>
                <path d="M40.2867771,84.6093782 C40.2629758,84.5711219 40.2391744,84.5328657 40.2145524,84.4946094 L40.0241418,82.4790851 C39.7524784,79.0509889 39.7926944,78.6322489 39.6269058,75.4848374 C39.6269058,75.4848374 39.6269058,75.4852533 39.6277266,75.4852533 L40.2867771,84.6093782" id="Fill-334" fill="#A6A6A2"></path>
                <path d="M40.3672092,84.6093782 C38.8904054,79.9829488 37.7376469,75.1360228 36.2635322,70.5078152 C37.0738695,71.8490218 38.0374896,72.9074948 38.7900096,73.7112408 C39.2960222,74.2429223 39.7285307,74.6683564 40.0463013,74.9773185 C40.1368367,78.3421157 40.1148752,78.7897773 40.2632278,82.4546455 L40.3672092,84.6093782" id="Fill-335" fill="#A2C5E4"></path>
                <path d="M39.5464738,74.6553337 C39.5460908,74.6553337 39.5460908,74.6549377 39.5460908,74.6549377 C39.2745866,74.3797037 38.9050499,74.0007125 38.472711,73.5270725 C37.8297554,72.8110681 37.0064351,71.8681442 36.3140803,70.6733516 C36.2972309,70.6183048 36.2803816,70.562862 36.2635322,70.5078152 C37.2522824,72.1037762 38.3444263,73.4803421 39.545325,74.6260282 L39.5464738,74.6553337" id="Fill-336" fill="#8597A8"></path>
                <path d="M19.4421502,86.7030456 C19.4388673,86.6897735 19.4364051,86.6765015 19.4331221,86.6632294 C19.4372258,86.6640589 19.4405087,86.6640589 19.4437917,86.6640589 L19.4421502,86.7030456" id="Fill-337" fill="#A6A6A2"></path>
                <path d="M18.9346624,86.2683856 C18.9328575,86.2683856 18.9310527,86.2683856 18.9287966,86.2679617 C18.4126063,84.0115759 18.1590233,81.709401 18.214974,79.4241851 C18.4848007,79.1363073 18.7171766,78.870476 18.887736,78.664425 C19.0934902,78.4155527 19.2112574,78.2548668 19.2017819,78.2480832 C19.2013306,78.2476593 19.2008794,78.2476593 19.2004282,78.2476593 C19.1841845,78.2476593 19.0492711,78.3926581 18.8362975,78.6245715 C18.6716039,78.8039122 18.4595327,79.0341297 18.2190349,79.2885137 C18.2921318,76.8328605 18.7243961,74.3962861 19.5735833,72.0559536 C19.5307178,73.1222464 19.4901084,74.2559509 19.4513039,75.4307808 C19.3894874,77.3013509 19.3348904,79.0663517 19.2802933,80.6231815 L18.9346624,86.2683856 M19.4824378,77.3217016 C19.5031937,76.7077883 19.5239496,76.0769161 19.5451567,75.4337487 C19.5871197,74.1580131 19.6299852,72.9310344 19.6737531,71.7858826 C19.730155,71.6357961 19.788813,71.4865575 19.8488246,71.3373189 L19.4824378,77.3217016" id="Fill-338" fill="#A2C5E4"></path>
                <path d="M19.0806163,81.2913634 C19.1799253,79.6839313 19.2792342,77.8615622 19.391675,75.9301923 C19.4622582,74.7171764 19.5361244,73.5466227 19.6140943,72.4456718 C19.674008,72.3524302 19.7347424,72.2596264 19.7962975,72.1668226 C19.7166862,73.3491957 19.6387163,74.6160553 19.5623879,75.9332565 C19.5238134,76.5973291 19.4860596,77.2487068 19.4483057,77.8825743 L19.0806163,81.2913634" id="Fill-339" fill="#8597A8"></path>
                <path d="M18.2073538,79.632356 C18.2084791,79.6003715 18.2092292,79.568686 18.2107295,79.5367015 C18.4106457,79.3573493 18.5869319,79.1950356 18.7238351,79.0685924 C18.9008715,78.905083 19.0130196,78.8028523 19.0265224,78.8028523 C19.0268974,78.8028523 19.0272725,78.8028523 19.0276476,78.8031512 C19.0355242,78.8079339 18.9376291,78.9212247 18.7665939,79.0966909 C18.6248147,79.2419661 18.43165,79.4293891 18.2073538,79.632356" id="Fill-340" fill="#8597A8"></path>
                <rect id="Rectangle" fill="#ADB1BF" x="67" y="111.3" width="3" height="23"></rect>
            </g>
        </g>
    </g>
</svg>