<?xml version="1.0" encoding="UTF-8"?>
<svg width="180px" height="122px" viewBox="0 0 180 122" version="1.1" xmlns="http://www.w3.org/2000/svg" xmlns:xlink="http://www.w3.org/1999/xlink">
    <!-- Generator: Sketch 51.3 (57544) - http://www.bohemiancoding.com/sketch -->
    <title>Asset 9</title>
    <desc>Created with Sketch.</desc>
    <defs></defs>
    <g id="Page-1" stroke="none" stroke-width="1" fill="none" fill-rule="evenodd">
        <g id="Illustrations-and-Icons-Copy" transform="translate(-553.000000, -2156.000000)" fill-rule="nonzero">
            <g id="Asset-9" transform="translate(553.000000, 2156.000000)">
                <path d="M11.14,13.74 C10.6812338,13.7400706 10.2416797,13.5557981 9.92011596,13.2285929 C9.59855226,12.9013878 9.42195146,12.4586956 9.43,12 C9.43,11.0555931 10.1955931,10.29 11.14,10.29 L21.4,10.29 C21.8535202,10.29 22.2884654,10.4701602 22.6091526,10.7908474 C22.9298398,11.1115346 23.11,11.5464798 23.11,12 C23.11,12.9444069 22.3444069,13.71 21.4,13.71 L11.14,13.71 L11.14,13.74 Z" id="Shape" fill="#C8D1DE"></path>
                <path d="M6.08,19.48 C5.6264798,19.48 5.19153461,19.2998398 4.8708474,18.9791526 C4.5501602,18.6584654 4.37,18.2235202 4.37,17.77 C4.37,16.8255931 5.13559308,16.06 6.08,16.06 L16.35,16.06 C17.2944069,16.06 18.06,16.8255931 18.06,17.77 C18.06,18.2235202 17.8798398,18.6584654 17.5591526,18.9791526 C17.2384654,19.2998398 16.8035202,19.48 16.35,19.48 L6.08,19.48 Z" id="Shape" fill="#C8D1DE"></path>
                <circle id="Oval" fill="#EDF0F5" transform="translate(8.391875, 70.949429) rotate(-89.500000) translate(-8.391875, -70.949429) " cx="8.3918748" cy="70.9494295" r="6.46"></circle>
                <path d="M6.76,63.74 C8.96049708,63.2486975 11.2649,63.7888311 13.0178798,65.206797 C14.7708596,66.6247629 15.7806185,68.7654179 15.76,71.02 C15.7311795,74.891315 12.723301,78.0860983 8.86074525,78.3479635 C4.99818947,78.6098287 1.58663046,75.8502565 1.03555727,72.0182559 C0.484484071,68.1862553 2.980178,64.5771716 6.76,63.74 Z M9.61,76.34 C12.1088675,75.7711637 13.8914069,73.5626345 13.92,71 C13.9333211,69.5359871 13.3644886,68.1266509 12.3386517,67.0820602 C11.3128148,66.0374694 9.91401398,65.4432009 8.45,65.43 C6.30706717,65.3857056 4.33153489,66.5837155 3.38023014,68.5044296 C2.4289254,70.4251436 2.67320076,72.7225955 4.00710923,74.4003354 C5.3410177,76.0780754 7.52429068,76.8339026 9.61,76.34 Z" id="Shape" fill="#A3B2C7"></path>
                <circle id="Oval" fill="#EDF0F5" transform="translate(21.240987, 57.573165) rotate(-89.510000) translate(-21.240987, -57.573165) " cx="21.240987" cy="57.5731648" r="4.87"></circle>
                <path d="M20,51.92 C20.4363788,51.821761 20.8827304,51.7747766 21.33,51.78 C24.495666,51.8562561 27.017269,54.4534628 27,57.62 C26.9866141,60.6637031 24.6226927,63.1792813 21.5856956,63.3816578 C18.5486985,63.5840343 15.871899,61.4043547 15.4547782,58.3893393 C15.0376573,55.3743239 17.0221315,52.5497672 20,51.92 Z M25.21,57.61 C25.2261835,55.4448827 23.4881118,53.6745248 21.3230633,53.6508602 C19.1580148,53.6271955 17.3816619,55.3591396 17.3505164,57.5240934 C17.3193709,59.6890472 19.0451667,61.471374 21.21,61.51 C22.2584106,61.5260203 23.2699632,61.1234815 24.0207129,60.3915005 C24.7714627,59.6595194 25.1994774,58.6584802 25.21,57.61 Z" id="Shape" fill="#A3B2C7"></path>
                <g id="_Group_" transform="translate(137.000000, 34.000000)" fill="#A3B2C7">
                    <circle id="Oval" cx="2.67" cy="2.67" r="1.84"></circle>
                </g>
                <path d="M122.17,19.41 C122.175514,17.0225132 124.112507,15.0899936 126.5,15.09 C128.88587,15.09 130.82,17.0241299 130.82,19.41 C130.82,21.7958701 128.88587,23.73 126.5,23.73 C125.352533,23.7326562 124.251153,23.2786875 123.438832,22.4682423 C122.626511,21.657797 122.169997,20.55747 122.17,19.41 Z M124.85,19.41 C124.85,20.315747 125.584253,21.05 126.49,21.05 C127.395747,21.05 128.13,20.315747 128.13,19.41 C128.13,18.504253 127.395747,17.77 126.49,17.77 C125.584253,17.77 124.85,18.504253 124.85,19.41 Z" id="Shape" fill="#A3B2C7"></path>
                <rect id="Rectangle-path" fill="#0686D8" x="43.24" y="13.08" width="63.03" height="1.8"></rect>
                <path d="M46.41,1.4 L102.64,1.4 C104.637034,1.39443037 106.263503,3.00302684 106.28,5 L106.28,115 L42.78,115 L42.78,5 C42.7964722,3.00693196 44.4168639,1.39993193 46.41,1.4 Z" id="Shape" fill="#FFFFFF"></path>
                <path d="M106.28,13.66 L42.7799868,13.66 L42.78,5.19 C42.7773432,4.18575016 43.1744189,3.22172136 43.8835946,2.51066956 C44.5927703,1.79961776 45.5557467,1.39999649 46.56,1.4 L102.49,1.4 C104.577636,1.4 106.27,3.09236365 106.27,5.18 L106.28,13.66 Z" id="Shape" fill="#E0E6EE"></path>
                <path d="M41.38,60.07 L41.38,5.19 C41.3799947,2.32754285 43.6975482,0.00551533168 46.56,0 L102.49,0 C105.356358,7.51719548e-16 107.68,2.32364215 107.68,5.19 L107.68,50.43 L104.88,50.43 L104.88,5.19 C104.874521,3.8778384 103.812162,2.81547883 102.5,2.81 L46.56,2.81 C45.2478384,2.81547883 44.1854788,3.8778384 44.18,5.19 L44.18,60.07 L41.38,60.07 Z" id="Shape" fill="#A3B2C7"></path>
                <path d="M43.68,59.57 L41.88,59.57 L41.88,5.19 C41.8799941,2.60368475 43.9736906,0.505514531 46.56,0.5 L102.49,0.5 C105.080215,0.5 107.18,2.59978452 107.18,5.19 L107.18,49.93 L105.38,49.93 L105.38,5.19 C105.374514,3.60169802 104.088302,2.31548641 102.5,2.31 L46.56,2.31 C44.971698,2.31548641 43.6854864,3.60169802 43.68,5.19 L43.68,59.57 Z" id="Shape" fill="#A3B2C7"></path>
                <rect id="Rectangle-path" fill="#C8D1DE" x="41.38" y="75.59" width="2.8" height="39.88"></rect>
                <rect id="Rectangle-path" fill="#A3B2C7" x="41.88" y="76.09" width="1.8" height="38.88"></rect>
                <rect id="Rectangle-path" fill="#A3B2C7" x="103.49" y="95.67" width="2.8" height="19.81"></rect>
                <rect id="Rectangle-path" fill="#A3B2C7" x="103.99" y="96.17" width="1.8" height="18.81"></rect>
                <rect id="Rectangle-path" fill="#E0E6EE" x="52.28" y="50.18" width="44.14" height="9.42"></rect>
                <rect id="Rectangle-path" fill="#A3B2C7" x="49.12" y="5.38" width="1.92" height="1.8"></rect>
                <rect id="Rectangle-path" fill="#A3B2C7" x="58.51" y="53.99" width="28.85" height="1.8"></rect>
                <rect id="Rectangle-path" fill="#0686D8" x="62.19" y="69.85" width="1.46" height="1.8"></rect>
                <rect id="Rectangle-path" fill="#0686D8" x="66.78" y="69.85" width="1.46" height="1.8"></rect>
                <rect id="Rectangle-path" fill="#0686D8" x="71.37" y="69.85" width="1.46" height="1.8"></rect>
                <rect id="Rectangle-path" fill="#0686D8" x="75.96" y="69.85" width="1.46" height="1.8"></rect>
                <rect id="Rectangle-path" fill="#23B4FB" x="80.56" y="69.85" width="1.46" height="1.8"></rect>
                <rect id="Rectangle-path" fill="#23B4FB" x="85.15" y="69.85" width="1.46" height="1.8"></rect>
                <rect id="Rectangle-path" fill="#A3B2C7" x="53.79" y="5.38" width="1.92" height="1.8"></rect>
                <rect id="Rectangle-path" fill="#A3B2C7" x="58.47" y="5.38" width="1.92" height="1.8"></rect>
                <g id="_Group_2" transform="translate(68.000000, 22.000000)" fill="#A3B2C7">
                    <g id="_Group_3" transform="translate(1.000000, 0.000000)">
                        <path d="M5.09,8.76 C2.7759269,8.76 0.9,6.8840731 0.9,4.57 C0.9,2.2559269 2.7759269,0.38 5.09,0.38 C7.4040731,0.38 9.28,2.2559269 9.28,4.57 C9.27450225,6.88179203 7.40179203,8.75450225 5.09,8.76 Z M5.09,2.18 C3.77003945,2.18 2.7,3.25003945 2.7,4.57 C2.7,5.88996055 3.77003945,6.96 5.09,6.96 C6.40996055,6.96 7.48,5.88996055 7.48,4.57 C7.48,3.25003945 6.40996055,2.18 5.09,2.18 Z" id="Shape"></path>
                    </g>
                    <g id="_Group_4" transform="translate(0.000000, 9.000000)">
                        <path d="M12.59,9.79 L10.79,9.79 L10.79,6.72 C10.79,4.26785571 8.80214429,2.28 6.35,2.28 C3.89785571,2.28 1.91,4.26785571 1.91,6.72 L1.91,9.79 L0.11,9.79 L0.11,6.72 C0.11,3.27374316 2.90374316,0.48 6.35,0.48 C9.79625684,0.48 12.59,3.27374316 12.59,6.72 L12.59,9.79 Z" id="Shape"></path>
                    </g>
                </g>
                <path d="M74.35,45.19 C67.0926699,45.1899664 61.2074037,39.3106192 61.2000676,32.0532928 C61.1927314,24.7959664 67.0660992,18.9047328 74.3234144,18.890027 C81.5807296,18.8753212 87.4779245,24.7427035 87.5,32 C87.5053084,35.4929024 86.1228471,38.8448529 83.6567429,41.3184586 C81.1906387,43.7920643 77.8429024,45.1846997 74.35,45.19 Z M74.35,20.69 C69.7557196,20.6900285 65.6145896,23.4597152 63.8601948,27.7058324 C62.1058,31.9519496 63.0842118,36.8369094 66.3385881,40.0798165 C69.5929644,43.3227237 74.481348,44.2838833 78.7212449,42.5145088 C82.9611419,40.7451342 85.7161913,36.5942518 85.7,32 C85.6779796,25.7455722 80.6044642,20.6854669 74.35,20.68 L74.35,20.69 Z" id="Shape" fill="#A3B2C7"></path>
                <path d="M61.94,78.23 C62.13,77.85 62.29,77.47 62.43,77.1 C62.57,76.73 62.6,76.64 62.67,76.42 C63.0667569,75.1973298 63.2889486,73.9247775 63.33,72.64 C63.2015071,70.0546294 64.129129,67.5280327 65.9,65.64 C67.9355415,63.8385118 70.5425407,62.8148395 73.26,62.75 C82.98,62.75 83.2,72.25 83.2,72.69 L83.2,77.99 C83.1779183,79.5727925 83.4491588,81.1459873 84,82.63 L57.81,82.63 C59.6118536,81.629944 61.0558999,80.0914928 61.94,78.23 Z" id="Shape" fill="#E0E6EE"></path>
                <path d="M104.4,78.44 C104.25,80.44 103.12,87.88 94.48,87.88 C94.37,87.88 89.99,87.88 87.11,84.99 C86.7788885,84.6571082 86.4777259,84.2957131 86.21,83.91 L94.48,83.91 C94.57,83.9 101.43,83.82 104.4,78.44 Z" id="Shape" fill="#FFFFFF"></path>
                <path d="M84.54,71.28 L84.41,71.28 C84.08,69.1 82.94,64.86 79,62.7 L104.42,62.7 L104.42,72.64 C104.42,82.44 94.88,82.58 94.48,82.58 L85.48,82.58 C84.8472388,81.1165477 84.5368774,79.5340458 84.57,77.94 L84.54,71.28 Z" id="Shape" fill="#FFFFFF"></path>
                <path d="M104.43,76.77 L104.43,77.94 C104.43,77.94 104.43,78.17 104.43,78.44 C101.43,83.82 94.6,83.9 94.51,83.9 L86.22,83.9 C86.0733333,83.6866667 85.9333333,83.4666667 85.8,83.24 L94.49,83.24 C94.49,83.24 102.11,83.24 104.43,76.77 Z" id="Shape" fill="#FFFFFF"></path>
                <path d="M104.43,72.63 L104.43,76.76 C102.11,83.23 94.49,83.23 94.49,83.23 L85.8,83.23 C85.68,83.02 85.56,82.8 85.46,82.57 L94.46,82.57 C94.89,82.57 104.43,82.44 104.43,72.63 Z" id="Shape" fill="#FFFFFF"></path>
                <path d="M73.28,62 C74.6746375,61.9800532 76.0620754,62.2033969 77.38,62.66 L73.28,62.66 L73.28,62 Z" id="Shape" fill="#2B97D3"></path>
                <path d="M105.75,61.37 C105.75,61.59 105.75,61.8 105.75,62.03 L105.75,61.37 Z" id="Shape" fill="#000000"></path>
                <path d="M105.75,77.94 L105.75,62 C105.75,61.77 105.75,61.55 105.75,61.34 C106.16,52.2 114.96,52.06 115.34,52.06 L115.67,52.06 C123.4,52.06 125.12,58.06 125.5,60.75 C125.562443,61.1673501 125.599179,61.5881432 125.61,62.01 L125.61,87.88 L100.25,87.88 C105.67,84.92 105.75,78 105.75,77.94 Z" id="Shape" fill="#E0E6EE"></path>
                <path d="M127,62 C126.985778,61.5982593 126.949054,61.1976312 126.89,60.8 L126.89,52.09 L158.15,52.09 C158.56,52.09 168.09,52.23 168.09,62.03 L168.09,109.13 L146.88,109.21 L146.88,109.87 C147.028923,112.456587 146.102504,114.989763 144.32,116.87 C142.288099,118.659343 139.686991,119.66931 136.98,119.72 C136.87,119.72 132.49,119.72 129.61,116.83 C127.839129,114.941967 126.911507,112.415371 127.04,109.83 L127.04,62 L127,62 Z" id="Shape" fill="#FFFFFF"></path>
                <path d="M121.42,52.09 L125.52,52.09 L125.52,56.47 C124.638173,54.6218156 123.205988,53.0918235 121.42,52.09 Z" id="Shape" fill="#FFFFFF"></path>
                <path d="M126.19,58.05 L126.19,52.05 L126.85,52.05 L126.85,60.79 C126.716481,59.857977 126.495506,58.9405953 126.19,58.05 Z" id="Shape" fill="#FFFFFF"></path>
                <path d="M125.52,56.47 L125.52,52.09 L126.18,52.09 L126.18,58.09 C125.996424,57.535867 125.77593,56.9946552 125.52,56.47 Z" id="Shape" fill="#FFFFFF"></path>
                <path d="M178.61,110.41 C178.42,112.59 177.19,119.31 169.37,119.67 L169.37,110.45 L178.61,110.41 Z" id="Shape" fill="#EDF0F5"></path>
                <path d="M148.15,110.53 L168.05,110.45 L168.05,119.68 L142.5,119.68 C143.500115,119.197347 144.415331,118.555683 145.21,117.78 C147.096265,115.838099 148.150971,113.237208 148.15,110.53 Z" id="Shape" fill="#E0E6EE"></path>
                <polygon id="Shape" fill="#DBDFE2" points="169.37 110.45 169.37 119.67 168.71 119.67 168.71 119.67 168.71 110.43"></polygon>
                <rect id="Rectangle-path" fill="#DBDFE2" x="168.05" y="110.45" width="1" height="9.23"></rect>
                <path d="M42.17,73.3 L62,73.3 C61.81,75.3 60.73,81.08 54.62,82.3 L54.56,82.3 L53.92,82.41 L53.76,82.41 L53.14,82.47 L52.94,82.47 L52.1,82.47 C43.65,82.58 42.36,75.54 42.17,73.3 Z" id="Shape" fill="#FFFFFF"></path>
                <path d="M62,73.3 C61.82,75.3 60.78,81.09 54.61,82.3 C60.7,81.08 61.78,75.29 62,73.3 Z" id="Shape" fill="#FFFFFF"></path>
                <path d="M53.88,82.45 L54.52,82.34 L53.88,82.45 Z" id="Shape" fill="#FFFFFF"></path>
                <path d="M52.07,82.58 L52.91,82.58 L52.07,82.58 Z" id="Shape" fill="#FFFFFF"></path>
                <path d="M53.11,82.53 L53.73,82.47 L53.11,82.53 Z" id="Shape" fill="#FFFFFF"></path>
                <path d="M53.72,82.47 L53.88,82.47 L53.72,82.47 Z" id="Shape" fill="#000000"></path>
                <path d="M52.91,82.55 L53.11,82.55 L52.91,82.55 Z" id="Shape" fill="#000000"></path>
                <path d="M40.81,72 L40.81,72.66 C40.8763829,74.6045289 41.3535007,76.5130002 42.21,78.26 C43.5,80.85 46.26,83.93 52.08,83.93 L84.65,83.93 C85.0705704,84.6632123 85.5886234,85.3360085 86.19,85.93 C88.4640858,87.9848833 91.4055012,89.1465293 94.47,89.2 L125.63,89.2 L125.63,109.74 C125.487829,112.705671 126.572854,115.599072 128.63,117.74 C130.904086,119.794883 133.845501,120.956529 136.91,121.01 L168.74,121.01 L169.4,121.01 C179.87,120.57 180,109.88 180,109.76 L180,109.09 L169.4,109.09 L169.4,62 C169.4,50.86 158.25,50.73 158.13,50.73 L115.36,50.73 C115.25,50.73 104.87,50.86 104.44,61.33 L73.28,61.33 C70.2108316,61.3971739 67.2696892,62.5729204 65,64.64 C63.0796844,66.6090364 62.0033681,69.2495991 62,72 L40.81,72 Z M142.51,119.72 C143.510115,119.237347 144.425331,118.595683 145.22,117.82 C147.106265,115.878099 148.160971,113.277208 148.16,110.57 L168.06,110.49 L169.39,110.49 L178.63,110.49 C178.44,112.67 177.21,119.39 169.39,119.75 L169.39,120.41 L168.73,120.41 L168.73,119.75 L142.5,119.75 L142.51,119.72 Z M125.51,56.5 C124.628173,54.6518156 123.195988,53.1218235 121.41,52.12 L158.1,52.12 C158.51,52.12 168.04,52.26 168.04,62.06 L168.04,109.16 L146.83,109.24 L146.83,109.9 C146.978923,112.486587 146.052504,115.019763 144.27,116.9 C142.238099,118.689343 139.636991,119.69931 136.93,119.75 C136.82,119.75 132.44,119.75 129.56,116.86 C127.789129,114.971967 126.861507,112.445371 126.99,109.86 L126.99,62 C126.975778,61.5982593 126.939054,61.1976312 126.88,60.8 C126.748337,59.8578265 126.527342,58.930315 126.22,58.03 C126.020967,57.4952784 125.787134,56.9741636 125.52,56.47 L125.51,56.5 Z M100.25,87.88 C105.67,84.88 105.75,78.03 105.75,77.94 L105.75,61.37 C106.16,52.23 114.96,52.09 115.34,52.09 L115.67,52.09 C123.4,52.09 125.12,58.09 125.5,60.78 C125.562443,61.1973501 125.599179,61.6181432 125.61,62.04 L125.61,87.88 L100.25,87.88 Z M84.41,71.28 C84.08,69.1 82.94,64.86 79,62.7 L104.42,62.7 L104.42,77.94 C104.42,77.94 104.42,78.17 104.42,78.44 C104.27,80.44 103.14,87.88 94.5,87.88 C94.39,87.88 90.01,87.88 87.13,84.99 C86.7988885,84.6571082 86.4977259,84.2957131 86.23,83.91 C86.0833333,83.6966667 85.9433333,83.4766667 85.81,83.25 C85.69,83.04 85.57,82.82 85.47,82.59 C84.8372388,81.1265477 84.5268774,79.5440458 84.56,77.95 L84.56,71.28 L84.41,71.28 Z M57.8,82.58 C59.9338761,81.3630024 61.561973,79.4227649 62.39,77.11 C62.48,76.88 62.56,76.65 62.63,76.43 C63.0267569,75.2073298 63.2489486,73.9347775 63.29,72.65 C63.1615071,70.0646294 64.089129,67.5380327 65.86,65.65 C67.8955415,63.8485118 70.5025407,62.8248395 73.22,62.76 L73.22,62 C74.6146375,61.9800532 76.0020754,62.2033969 77.32,62.66 L73.22,62.66 C82.94,62.66 83.16,72.16 83.16,72.6 L83.16,77.9 C83.1379183,79.4827925 83.4091588,81.0559873 83.96,82.54 L57.8,82.54 L57.8,82.58 Z M52.07,83.24 C62.58,83.24 62.67,72.64 62.67,72.64 C62.67,72.64 62.68,83.24 52.07,83.24 Z M42.17,73.3 L62,73.3 C61.82,75.3 60.78,81.09 54.61,82.3 L54.55,82.3 L53.91,82.41 L53.75,82.41 L53.13,82.47 L52.93,82.47 L52.09,82.47 C43.65,82.58 42.36,75.54 42.17,73.3 Z" id="Shape" fill="#BBC6D4"></path>
                <path d="M62.39,77.1 C62.25,77.47 62.09,77.85 61.9,78.23 C61.0057005,80.0692505 59.5626725,81.5856528 57.77,82.57 C59.9151543,81.3585126 61.5544631,79.4175994 62.39,77.1 Z" id="Shape" fill="#2B97D3"></path>
                <path d="M52.07,83.24 C62.58,83.24 62.67,72.64 62.67,72.64 C62.67,72.64 62.68,83.24 52.07,83.24 Z" id="Shape" fill="#2B97D3"></path>
                <rect id="Rectangle-path" fill="#CBD5E1" x="135.57" y="73.86" width="27.83" height="2.65"></rect>
                <rect id="Rectangle-path" fill="#CBD5E1" x="135.57" y="81.71" width="27.83" height="2.65"></rect>
                <rect id="Rectangle-path" fill="#CBD5E1" x="135.57" y="89.55" width="27.83" height="2.65"></rect>
                <rect id="Rectangle-path" fill="#CBD5E1" x="135.57" y="97.4" width="27.83" height="2.65"></rect>
                <g id="_Group_5" transform="translate(68.000000, 91.000000)" fill="#EDF0F5">
                    <g id="_Group_6">
                        <path d="M2,8.71 C1.42785308,8.7124268 0.910962735,8.36886542 0.691682994,7.84040125 C0.472403253,7.31193707 0.594213244,6.70335481 1,6.3 L6.83,0.47 C7.18726558,0.112734372 7.70799154,-0.0267937517 8.19602544,0.103974525 C8.68405933,0.234742802 9.0652572,0.615940667 9.19602547,1.10397456 C9.32679375,1.59200846 9.18726563,2.11273442 8.83,2.47 L3,8.29 C2.73600036,8.55773387 2.37600013,8.70893396 2,8.71 Z" id="_Path_"></path>
                    </g>
                    <g id="_Group_7">
                        <path d="M7.85,8.71 C7.47544055,8.71158197 7.11564403,8.56406539 6.85,8.3 L1,2.46 C0.44771531,1.90771524 0.447715338,1.01228479 1.00000006,0.460000063 C1.55228479,-0.0922846619 2.44771524,-0.0922846902 3,0.46 L8.83,6.29 C9.23578676,6.69335481 9.35759675,7.30193707 9.13831701,7.83040125 C8.91903726,8.35886542 8.40214692,8.7024268 7.83,8.7 L7.85,8.71 Z" id="_Path_2"></path>
                    </g>
                </g>
                <g id="_Group_8" transform="translate(3.000000, 111.000000)" fill="#EDF0F5">
                    <g id="_Group_9">
                        <path d="M6.42,0 C6.86592787,0.00389896062 7.2662277,0.274286418 7.43635018,0.686506276 C7.60647266,1.09872614 7.51338374,1.57273434 7.2,1.89 L2.64,6.45 C2.20921789,6.88078207 1.51078213,6.88078205 1.08000004,6.44999996 C0.649217951,6.01921787 0.649217933,5.32078211 1.08,4.89 L5.64,0.33 C5.84553512,0.120304703 6.12637679,0.00148707509 6.42,2.84217094e-14 Z" id="_Path_3"></path>
                    </g>
                    <g id="_Group_10">
                        <path d="M1.86,1.22582608e-17 C2.15218076,-0.00115877765 2.43281795,0.113974428 2.64,0.32 L7.2,4.88 C7.63078207,5.31078211 7.63078205,6.00921787 7.19999996,6.43999996 C6.76921787,6.87078205 6.07078211,6.87078207 5.64,6.44 L1.08,1.88 C0.773536007,1.56192909 0.684814077,1.09242727 0.854077971,0.684457881 C1.02334186,0.276488497 1.4183779,0.00769476977 1.86,1.22582608e-17 Z" id="_Path_4"></path>
                    </g>
                </g>
                <path d="M65.37,113 C66.37,113 67.27,113.6 67.27,114.34 C67.27,115.08 66.42,115.68 65.37,115.68 L15.64,115.68 C14.64,115.68 13.74,115.08 13.74,114.34 C13.74,113.6 14.59,113 15.64,113 L65.37,113 Z" id="Shape" fill="#A3B2C7"></path>
                <path d="M85.2,115.69 C84.4599384,115.69 83.86,115.090062 83.86,114.35 C83.8573349,113.99288 83.9973356,113.649472 84.2489238,113.396006 C84.500512,113.14254 84.8428705,112.99999 85.2,113 L120.39,113 C121.130062,113 121.73,113.599938 121.73,114.34 C121.73,115.080062 121.130062,115.68 120.39,115.68 L85.2,115.68 L85.2,115.69 Z" id="Shape" fill="#A3B2C7"></path>
                <path d="M76,115.69 C75.63,115.69 75.33,115.09 75.33,114.35 C75.33,113.61 75.63,113.01 76,113.01 L80,113.01 C80.37,113.01 80.67,113.61 80.67,114.35 C80.67,115.09 80.37,115.69 80,115.69 L76,115.69 Z" id="Shape" fill="#A3B2C7"></path>
            </g>
        </g>
    </g>
</svg>