<svg width="22" height="30" viewBox="0 0 22 30" fill="none" xmlns="http://www.w3.org/2000/svg">
<path fill-rule="evenodd" clip-rule="evenodd" d="M4.68568 19.9945C4.83889 20.0074 5.19917 19.5232 5.34234 19.4039C5.98743 18.8663 6.72827 18.3131 7.21908 17.626C7.38692 17.3909 7.6702 17.2341 7.87095 17.0333C8.38896 16.5153 8.95213 15.9926 9.43157 15.4332C10.5528 14.1251 11.7251 12.8602 13.0467 11.7588C13.7245 11.194 14.34 10.3713 15.121 9.98085C15.3547 9.86402 15.5986 10.1029 15.7334 10.2377C15.9977 10.5021 16.2855 10.77 16.5434 11.0278C16.754 11.2384 17.141 11.3539 17.2743 11.6205C17.7585 12.5891 16.2484 13.4168 15.6544 14.0108C15.4609 14.2043 15.2723 14.428 15.0617 14.6035C14.1757 15.3418 13.4872 16.303 12.6121 17.0531C11.3291 18.1529 10.1523 19.3944 8.95745 20.5892C8.45041 21.0962 7.89403 21.5539 7.39683 22.0511C7.23364 22.2143 6.92257 22.2488 6.80421 22.3672C6.63437 22.537 6.28892 22.0566 6.19177 21.9918C5.71359 21.673 5.07369 21.174 4.74972 20.688C4.59883 20.4617 4.32899 20.1871 4.71015 19.9966" fill="#388CE0"/>
<path fill-rule="evenodd" clip-rule="evenodd" d="M15.4923 1.4173C15.5296 1.05688 15.5965 2.36428 15.5397 2.64842C15.374 3.47638 15.5822 4.3951 15.5822 5.2462C15.5822 5.47122 15.3397 6.32391 15.497 6.48124C15.761 6.74524 16.4278 6.43869 16.7747 6.43869C17.8644 6.43869 19.0205 6.39606 20.1391 6.39606C20.3521 6.39606 21.0962 6.50365 21.2463 6.3535C21.4629 6.13686 20.9316 5.49343 20.7778 5.41656C19.4891 4.77214 19.055 3.42657 17.5839 2.69098C17.0003 2.39926 16.7086 1.61453 16.1359 1.32819C16.0239 1.2722 15.4119 1.03108 15.4119 1.24301" fill="#FC92B6"/>
<path fill-rule="evenodd" clip-rule="evenodd" d="M4.11643 20.258C4.09109 20.3294 4.05977 20.395 4.03045 20.4684C3.92385 20.7348 3.90018 21.0141 3.79345 21.281C3.52248 21.9583 3.33196 22.6463 3.10787 23.3186C3.08765 23.3791 2.95419 23.7206 2.93897 23.8947C2.92161 24.0931 2.99994 24.2297 3.07282 24.3025C3.15016 24.3799 3.25649 24.4335 3.39161 24.4387C3.50313 24.443 3.7632 24.3482 3.7632 24.3482C3.7632 24.3482 3.75508 24.3511 3.75209 24.3521C3.9819 24.2755 4.21391 24.2095 4.44619 24.132C5.00888 23.9445 5.61753 23.8405 6.17624 23.7008C6.34507 23.6586 6.53419 23.5707 6.71999 23.4902C6.82758 23.4437 6.93051 23.3916 7.02348 23.3916C7.25289 23.3916 7.43908 23.2053 7.43908 22.976C7.43908 22.7466 7.25289 22.5604 7.02348 22.5604C6.86309 22.5604 6.68228 22.6082 6.49842 22.6819C6.32087 22.7532 6.1374 22.8537 5.97462 22.8944C5.39596 23.0391 4.76617 23.1492 4.18332 23.3435C4.10552 23.3694 4.02772 23.3941 3.94999 23.4182C4.14655 22.8133 4.3223 22.197 4.56522 21.5897C4.67194 21.3228 4.69562 21.0436 4.80221 20.7771C4.84065 20.681 4.88048 20.5953 4.9122 20.5002C4.91792 20.4831 4.92716 20.4323 4.93408 20.3916C4.94791 20.3458 4.95402 20.2968 4.95097 20.2463C4.93108 19.9187 4.67607 19.8714 4.64455 19.8629C4.55119 19.8373 4.45596 19.8421 4.35981 19.8867C4.30907 19.9103 4.19809 19.9657 4.14156 20.1284C4.13811 20.1385 4.12341 20.2188 4.11643 20.258ZM4.12461 20.3293L4.12494 20.3314L4.12374 20.3226L4.12461 20.3293ZM4.12294 20.3162L4.12128 20.2967C4.12168 20.3036 4.12228 20.3101 4.12294 20.3162Z" fill="black"/>
<path fill-rule="evenodd" clip-rule="evenodd" d="M4.65526 21.0293C4.97664 21.5061 5.45409 21.8441 5.76097 22.3043C5.88346 22.4881 6.49942 23.0863 6.62191 23.1802C6.77033 23.294 6.8996 23.2783 6.93165 23.2753C7.05747 23.2634 7.14517 23.2058 7.20868 23.1319C7.26427 23.0671 7.30909 22.9806 7.30909 22.8605C7.30909 22.713 7.23202 22.5832 7.11585 22.5096C7.03313 22.433 6.53992 21.9743 6.45261 21.8433C6.14346 21.3796 5.66123 21.04 5.33971 20.5577C5.3074 20.5093 5.2423 20.438 5.1643 20.3619C5.12526 20.3238 5.06156 20.2556 5.03157 20.2232C4.98688 20.0587 4.84298 19.9321 4.66351 19.9178C4.43482 19.8996 4.2344 20.0704 4.21618 20.2991C4.2086 20.3946 4.22961 20.5113 4.30103 20.6311C4.37564 20.7562 4.63451 21.0091 4.65526 21.0293ZM6.55834 22.615C6.51246 22.6763 6.47788 22.7555 6.47788 22.8605C6.47788 22.7687 6.50773 22.6837 6.55834 22.615ZM6.76867 22.4641C6.70051 22.4845 6.64625 22.5203 6.60236 22.5642C6.64858 22.5187 6.7053 22.484 6.76867 22.4641Z" fill="black"/>
<path fill-rule="evenodd" clip-rule="evenodd" d="M5.08818 20.3878C5.14443 20.3376 5.48084 20.0381 5.55066 19.9857C5.83813 19.7701 6.03456 19.4479 6.31578 19.2229C6.65844 18.9488 6.99611 18.6078 7.30512 18.2988C8.00939 17.5945 8.71539 16.8357 9.48017 16.1984C10.0955 15.6855 10.5754 15.0315 11.1901 14.5192C12.2012 13.6767 13.0358 12.5918 14.0444 11.7272C14.7346 11.1356 15.4185 10.4782 16.0551 9.84158C16.1224 9.77422 16.234 9.64169 16.3572 9.51615C16.4195 9.45264 16.5289 9.36527 16.5568 9.34319C16.7597 9.31586 16.9162 9.14184 16.9162 8.93151C16.9162 8.70216 16.73 8.5159 16.5006 8.5159C16.3622 8.5159 16.188 8.57681 16.0184 8.70508C15.8088 8.86368 15.5793 9.14177 15.4673 9.25382C14.8454 9.8757 14.1777 10.5183 13.5035 11.0961C12.4977 11.9582 11.6661 13.0406 10.658 13.8807C10.0433 14.393 9.56342 15.047 8.94806 15.5598C8.16419 16.213 7.43918 16.9892 6.71735 17.711C6.42935 17.9991 6.11595 18.3184 5.7965 18.5739C5.522 18.7935 5.33255 19.1103 5.05194 19.3207C4.9496 19.3975 4.57908 19.6889 4.42879 19.8786C4.32672 20.0073 4.28975 20.1324 4.28463 20.2148C4.2704 20.4437 4.44468 20.6412 4.67357 20.6554C4.85989 20.667 5.02534 20.5538 5.08818 20.3878Z" fill="black"/>
<path fill-rule="evenodd" clip-rule="evenodd" d="M16.3655 8.51532C16.153 8.53347 15.9858 8.71201 15.9858 8.92926C15.9858 9.15868 16.1721 9.34487 16.4015 9.34487C16.447 9.34487 16.5448 9.32279 16.6206 9.3037C16.959 9.63745 17.2851 9.93849 17.6326 10.2861C17.6754 10.3288 17.7238 10.3709 17.7707 10.4134C17.793 10.4336 17.8301 10.4724 17.8363 10.4789C17.9272 10.6586 18.0477 10.8219 18.1668 10.9601C18.0905 11.0472 18.0062 11.1527 17.9707 11.2235C17.8474 11.4703 17.4391 11.7832 17.2304 11.9396C16.9225 12.1706 16.7061 12.5222 16.4037 12.764C15.9477 13.1288 15.5148 13.5877 15.1063 13.9963C13.2939 15.8086 11.5244 17.6552 9.71458 19.465C8.92719 20.2524 8.13308 21.0618 7.35766 21.8373C7.19288 22.002 7.06634 22.2477 6.88181 22.3708C6.84823 22.3931 6.75706 22.5083 6.70958 22.5699C6.62406 22.6429 6.56834 22.7503 6.56422 22.8714C6.5563 23.1006 6.73604 23.2931 6.96526 23.3011C7.03475 23.3034 7.11341 23.2902 7.19441 23.2438C7.23151 23.2225 7.27793 23.1881 7.32241 23.1355C7.34276 23.1114 7.382 23.0524 7.40507 23.0167C7.60203 22.859 7.76216 22.6083 7.94543 22.425C8.72085 21.6496 9.51495 20.8401 10.3023 20.0527C12.1121 18.243 13.8817 16.3963 15.6941 14.584C16.0816 14.1965 16.4904 13.7592 16.923 13.4131C17.2186 13.1766 17.428 12.8304 17.7291 12.6046C18.0122 12.3923 18.5357 11.9414 18.7094 11.6044C18.7169 11.5957 18.8324 11.461 18.8674 11.426C18.8876 11.4058 18.9313 11.3543 18.9704 11.2769C19.0174 11.1837 19.068 11.0314 19.0742 10.9373C19.0853 10.7685 19.0166 10.6485 18.9444 10.5764C18.8267 10.4587 18.6733 10.2946 18.5756 10.099C18.5042 9.95637 18.3469 9.82477 18.2204 9.6983C17.8345 9.31242 17.4752 8.98392 17.0959 8.60456C16.983 8.49171 16.8394 8.44017 16.6744 8.44749C16.5833 8.45148 16.4034 8.50395 16.3655 8.51532Z" fill="black"/>
<path fill-rule="evenodd" clip-rule="evenodd" d="M15.2647 9.96971C15.2914 10.032 15.3249 10.099 15.3554 10.1296C15.413 10.1871 15.4626 10.2676 15.5249 10.3298C15.6491 10.4541 15.8682 10.7401 16.0958 10.8757C16.1159 10.9062 16.1649 10.9792 16.1949 11.0191C16.2664 11.1139 16.3513 11.1905 16.4493 11.2395C16.5146 11.2721 16.5667 11.3829 16.6023 11.4542C16.64 11.5295 16.7024 11.6103 16.7838 11.6867C16.8765 11.7737 17.0076 11.8588 17.0807 11.9319C17.1256 11.9767 17.3145 12.1098 17.3792 12.1549C17.453 12.27 17.5821 12.3463 17.7289 12.3463C17.9583 12.3463 18.1445 12.1601 18.1445 11.9307C18.1445 11.843 18.1151 11.7121 17.9965 11.5902C17.9234 11.5152 17.6798 11.3489 17.6585 11.3345C17.5711 11.2503 17.3608 11.0831 17.3357 11.0631C17.2331 10.8668 17.0376 10.6244 16.8582 10.5165C16.8363 10.4837 16.7647 10.377 16.7234 10.3277C16.6613 10.2535 16.5905 10.1959 16.513 10.1572C16.4518 10.1266 16.3978 10.0641 16.3457 10.0066C16.2529 9.90428 16.1718 9.80128 16.1126 9.74203C16.064 9.69342 16.023 9.6337 15.9799 9.5825C15.9496 9.52119 15.9157 9.45423 15.91 9.44864C15.7954 9.33526 15.6712 9.31784 15.5636 9.33194C15.4713 9.34398 15.3616 9.38248 15.2748 9.50869C15.2598 9.5305 15.2146 9.58829 15.2028 9.70785C15.1934 9.80327 15.2171 9.89437 15.2647 9.96971ZM16.0271 9.81238C16.0152 9.88965 15.9823 9.95907 15.935 10.0154C15.967 9.98181 16.0117 9.92037 16.0271 9.81238Z" fill="black"/>
<path fill-rule="evenodd" clip-rule="evenodd" d="M1.87041 0.962026C2.18867 0.846321 2.70203 0.826306 3.26087 0.831758C4.1893 0.840802 5.2337 0.938552 5.84255 0.938552C8.86078 0.938552 11.918 0.905437 14.9131 0.905437C15.1424 0.905437 15.3287 0.719179 15.3287 0.489831C15.3287 0.260416 15.1424 0.0742245 14.9131 0.0742245C11.918 0.0742245 8.86078 0.10734 5.84255 0.10734C5.23563 0.10734 4.19455 0.00965604 3.26898 0.00061245C2.59184 -0.00603725 1.97209 0.0406436 1.58641 0.180819C1.37089 0.259219 1.25944 0.49781 1.33784 0.713394C1.41624 0.928977 1.65483 1.04036 1.87041 0.962026Z" fill="black"/>
<path fill-rule="evenodd" clip-rule="evenodd" d="M14.8294 0.806983C14.7482 1.10835 14.8066 1.54716 14.8066 1.85132C14.8066 2.92884 14.8507 3.98122 14.8507 5.04783C14.8507 5.36515 14.8655 5.6981 14.8655 6.00532C14.8655 6.13499 14.8585 6.25276 14.8732 6.35097C14.9056 6.56742 15.0019 6.73552 15.2278 6.84844C15.2939 6.88149 15.3868 6.90609 15.4944 6.90842C15.5813 6.91028 15.6916 6.89232 15.7524 6.89232C16.0754 6.89232 16.3882 6.87756 16.7099 6.87756C17.8489 6.87756 18.9907 6.8481 20.1274 6.8481C20.4905 6.8481 20.8522 6.83341 21.2174 6.83341L21.4267 6.83188C21.4631 6.84252 21.5017 6.8481 21.5415 6.8481C21.7709 6.8481 21.9571 6.66191 21.9571 6.4325C21.9571 6.30802 21.9146 6.12907 21.6864 6.03884C21.6533 6.02574 21.5949 6.00911 21.5191 6.00319C21.4248 5.99581 21.2516 6.0022 21.2174 6.0022C20.8522 6.0022 20.4905 6.01689 20.1274 6.01689C18.9907 6.01689 17.8489 6.04635 16.7099 6.04635C16.3882 6.04635 16.0754 6.06111 15.7524 6.06111C15.7393 6.06111 15.7193 6.06198 15.6964 6.06337L15.6967 6.00532C15.6967 5.6981 15.6819 5.36515 15.6819 5.04783C15.6819 3.98122 15.6378 2.92884 15.6378 1.85132C15.6378 1.70576 15.6192 1.52622 15.6116 1.34873C15.6066 1.23183 15.601 1.11573 15.6311 1.02529C15.6636 0.927941 15.6698 0.825802 15.6565 0.720537C15.6515 0.68024 15.6378 0.60583 15.6329 0.579431C15.6728 0.370564 15.547 0.161829 15.3386 0.102381C15.118 0.0394748 14.8879 0.167482 14.825 0.388052C14.7907 0.508146 14.8197 0.739688 14.8294 0.806983ZM21.2334 6.71125C21.1666 6.63751 21.1259 6.53969 21.1259 6.4325C21.1259 6.52659 21.1514 6.62607 21.2334 6.71125Z" fill="black"/>
<path fill-rule="evenodd" clip-rule="evenodd" d="M0.111384 26.8505C0.0793992 26.9502 0.084852 27.062 0.135323 27.163C0.250962 27.3943 0.435357 27.4031 0.533174 27.3983C0.641564 27.393 0.779214 27.3545 0.875235 27.1897C0.892724 27.1597 0.932489 27.0725 0.941466 26.9386C0.95164 26.787 0.946055 26.4494 0.946055 26.3224C0.946055 25.847 0.969461 25.3395 0.969461 24.8492C0.969461 23.3638 0.992802 21.874 0.992802 20.3828C0.992802 19.0862 0.849368 17.7272 1.10166 16.4656C1.2167 15.8903 1.14548 14.9315 1.0315 14.3617C0.983958 14.124 1.00218 13.8744 1.01574 13.6248C1.03317 13.3046 1.046 12.9843 0.984756 12.6781C0.95829 12.5458 0.992735 12.4011 1.0051 12.2592C1.0198 12.0909 1.01913 11.9252 0.980434 11.7702C0.865194 11.3095 0.866258 10.3941 0.980434 9.93742C1.02505 9.75868 1.02499 9.56803 1.00803 9.37433C0.99227 9.19425 0.951108 9.01059 0.984756 8.84242C1.2268 7.63224 1.03962 6.23527 1.03962 4.9961C1.03962 4.66215 1.01621 4.34556 1.01621 4.014C1.01621 3.45835 0.942862 2.71146 0.96341 2.04516C0.974581 1.68282 1.0083 1.34661 1.12008 1.1001C1.15326 1.08075 1.26338 1.01885 1.34357 0.995571C1.43015 0.970568 1.52272 0.9453 1.59161 0.971101C1.80639 1.05143 2.04611 0.942241 2.12644 0.727389C2.20677 0.512537 2.09758 0.272882 1.88273 0.192487C1.6089 0.090148 1.201 0.140154 0.889998 0.278135C0.640035 0.388986 0.460693 0.55842 0.392533 0.694672C0.223299 1.03308 0.14849 1.50447 0.132597 2.01956C0.111783 2.69444 0.184996 3.45111 0.184996 4.014C0.184996 4.34556 0.208403 4.66215 0.208403 4.9961C0.208403 6.18267 0.401444 7.52052 0.169702 8.67943C0.134592 8.85492 0.140178 9.04138 0.158265 9.22976C0.174823 9.40226 0.213723 9.57701 0.174025 9.73581C0.0347133 10.293 0.0335164 11.4097 0.174025 11.9718C0.204879 12.0953 0.172096 12.2313 0.159196 12.3656C0.143569 12.5285 0.139379 12.6896 0.169702 12.8411C0.217447 13.0799 0.19936 13.33 0.185794 13.5797C0.168372 13.8999 0.155405 14.2198 0.21645 14.5248C0.312737 15.0063 0.383823 15.8164 0.286604 16.3026C0.0237414 17.6168 0.161589 19.0322 0.161589 20.3828C0.161589 21.874 0.138249 23.3638 0.138249 24.8492C0.138249 25.3395 0.114842 25.847 0.114842 26.3224C0.114842 26.4212 0.112382 26.732 0.111384 26.8505ZM0.607385 26.574C0.721162 26.6022 0.822304 26.6782 0.87876 26.7912C0.803685 26.6411 0.697555 26.5899 0.607385 26.574Z" fill="black"/>
<path fill-rule="evenodd" clip-rule="evenodd" d="M0.0946739 27.1381C0.0931444 27.1535 0.0865612 27.216 0.079047 27.2527C0.0625558 27.3333 0.0414098 27.417 0.0258495 27.4994C-0.0175731 27.7289 -0.010724 27.9506 0.0805764 28.1333C0.137764 28.2477 0.189964 28.3215 0.248149 28.4379C0.37303 28.6877 0.61069 28.8491 0.90474 28.9323C1.18469 29.0116 1.52276 29.014 1.73389 29.0442C2.19026 29.1095 2.65946 29.0254 3.11756 29.0764C4.04101 29.179 5.07118 29.149 5.99788 29.0777C7.73259 28.9442 9.52601 29.0637 11.2665 29.0637C12.3025 29.0637 13.3399 29.0789 14.3736 29.0789C14.9732 29.0789 15.5952 29.0325 16.1905 29.092C16.59 29.132 17.0189 29.1093 17.4199 29.1093C17.7048 29.1093 17.9866 29.1246 18.2729 29.1246C18.9256 29.1246 19.6481 29.1934 20.2776 29.036C20.3495 29.018 20.4281 29.0329 20.5051 29.035C20.6202 29.0381 20.7337 29.0324 20.8411 29.0055C21.2373 28.9065 21.5172 28.749 21.689 28.5029C21.8112 28.3278 21.887 28.1022 21.887 27.7951C21.887 27.5657 21.7008 27.3795 21.4714 27.3795C21.2421 27.3795 21.0558 27.5657 21.0558 27.7951C21.0558 27.8942 21.0468 27.9707 21.0074 28.0272C20.9366 28.1286 20.8027 28.1584 20.6395 28.1991C20.5675 28.2171 20.489 28.2022 20.4118 28.2002C20.2968 28.1971 20.1834 28.2028 20.076 28.2296C19.51 28.3711 18.8598 28.2933 18.2729 28.2933C17.9866 28.2933 17.7048 28.2781 17.4199 28.2781C17.0459 28.2781 16.6458 28.3022 16.2732 28.265C15.6508 28.2027 15.0006 28.2477 14.3736 28.2477C13.3399 28.2477 12.3025 28.2324 11.2665 28.2324C9.505 28.2324 7.68983 28.1138 5.93411 28.2489C5.05748 28.3163 4.0829 28.3473 3.20939 28.2502C2.75981 28.2003 2.29932 28.2854 1.85146 28.2214C1.6918 28.1986 1.45174 28.197 1.22925 28.1552C1.16847 28.1437 1.10922 28.1293 1.05655 28.1067C1.03128 28.0959 1.00336 28.0897 0.991585 28.0661C0.935528 27.954 0.884991 27.8813 0.83033 27.7737C0.830796 27.7595 0.832724 27.7116 0.837246 27.6837C0.849149 27.611 0.8681 27.5365 0.883927 27.4641C0.93114 27.2476 0.94158 27.0411 0.883993 26.8784C0.807455 26.6622 0.569795 26.5487 0.353547 26.6253C0.14315 26.6997 0.0300388 26.9268 0.0946739 27.1381Z" fill="black"/>
<path fill-rule="evenodd" clip-rule="evenodd" d="M21.1029 27.5658C21.088 27.6084 21.0799 27.6543 21.0799 27.702C21.0799 27.9315 21.2662 28.1177 21.4955 28.1177C21.5958 28.1177 21.8382 28.0811 21.9112 27.7785C21.9442 27.6417 21.9355 26.9539 21.9355 26.8727V22.7746C21.9355 20.5012 21.7647 18.2412 21.7647 15.9443C21.7647 15.1337 21.582 14.092 21.7768 13.313C21.8922 12.8513 21.8849 12.3504 21.863 11.8468C21.8441 11.4135 21.8136 10.9783 21.8811 10.5729C22.039 9.62517 21.9111 8.54672 21.9111 7.57733C21.9111 7.45517 21.886 7.20282 21.882 6.96848C21.8804 6.87818 21.893 6.74286 21.8961 6.71041C21.996 6.52601 21.9424 6.29187 21.7657 6.17058C21.5766 6.04072 21.3176 6.08879 21.1878 6.27791C21.122 6.37367 21.0673 6.54357 21.0548 6.7535C21.0381 7.03172 21.0799 7.41601 21.0799 7.57733C21.0799 8.5025 21.212 9.53174 21.0612 10.4362C20.9845 10.8966 21.0111 11.3909 21.0325 11.8829C21.051 12.3047 21.0671 12.7247 20.9704 13.1115C20.7607 13.9502 20.9335 15.0715 20.9335 15.9443C20.9335 18.2412 21.1043 20.5012 21.1043 22.7746V26.8727C21.1043 26.9317 21.1173 27.3697 21.1029 27.5658ZM21.2099 27.4004C21.2843 27.3298 21.3849 27.2864 21.4955 27.2864C21.4032 27.2864 21.2987 27.31 21.2099 27.4004Z" fill="black"/>
<path fill-rule="evenodd" clip-rule="evenodd" d="M15.1965 0.925318C15.2679 0.978516 15.3376 1.03823 15.4066 1.09336C15.7768 1.3896 16.1189 1.73226 16.4834 2.04473C17.3069 2.75059 18.0709 3.50786 18.8767 4.23314C19.311 4.62401 19.6772 5.09581 20.119 5.47444C20.3953 5.71131 20.7287 6.03608 20.9487 6.3294C20.9856 6.3786 21.1336 6.58222 21.2279 6.66328C21.3472 6.76588 21.4695 6.78962 21.5457 6.78962C21.7751 6.78962 21.9613 6.60336 21.9613 6.37402C21.9613 6.22154 21.8791 6.08821 21.7565 6.01593C21.7221 5.97158 21.6312 5.85401 21.6136 5.83067C21.3601 5.49266 20.9783 5.11629 20.6599 4.84332C20.2232 4.46908 19.8621 4.00174 19.4327 3.61525C18.6219 2.88552 17.853 2.12386 17.0244 1.41361C16.6527 1.09502 16.3034 0.746375 15.9258 0.444279C15.8177 0.357766 15.7068 0.26374 15.593 0.187866C15.5546 0.162332 15.4445 0.105543 15.3654 0.0925097C15.2838 0.0790773 15.2094 0.0888524 15.1469 0.110331C15.0191 0.154418 14.9129 0.241928 14.8688 0.412161C14.8111 0.634194 14.9446 0.861215 15.1666 0.918868C15.1766 0.921461 15.1866 0.923656 15.1965 0.925318ZM15.6668 0.643304C15.6449 0.712062 15.6064 0.771444 15.5569 0.818125C15.6048 0.776232 15.6433 0.719709 15.6668 0.643304Z" fill="black"/>
<path fill-rule="evenodd" clip-rule="evenodd" d="M15.4786 25.5594C16.3814 25.4066 17.4403 25.6461 18.3449 25.6461C18.5742 25.6461 18.7605 25.4599 18.7605 25.2305C18.7605 25.0011 18.5742 24.8149 18.3449 24.8149C17.3966 24.8149 16.2863 24.5797 15.3398 24.7399C15.1137 24.7782 14.9611 24.9929 14.9994 25.219C15.0377 25.4452 15.2524 25.5977 15.4786 25.5594Z" fill="black"/>
</svg>
