<svg width="32" height="34" viewBox="0 0 32 34" fill="none" xmlns="http://www.w3.org/2000/svg">
<path fill-rule="evenodd" clip-rule="evenodd" d="M29.0342 12.9942C29.0227 13.0364 29.0446 12.899 29.0446 12.8924C29.0446 12.5818 29.034 12.2825 29.0004 11.9804C28.9854 11.8457 28.604 9.94945 28.662 9.8914C28.8704 9.68301 31.1101 9.29418 31.369 9.55304C31.6952 9.8793 31.619 11.2889 31.619 11.7744C31.619 13.454 31.6173 18.3365 30.0007 19.1448C29.8364 19.227 29.537 18.7105 29.4417 18.6152C28.4669 17.6403 28.7018 17.4748 28.971 16.129C29.0659 15.6545 29.0076 15.1512 29.1034 14.6725C29.1702 14.3383 29.1707 13.7944 29.0887 13.4662C29.0705 13.3937 29.04 12.9558 29.0299 12.966" fill="#388CE0"/>
<path fill-rule="evenodd" clip-rule="evenodd" d="M8.07882 12.1805C8.08686 12.2053 8.03502 12.2474 8.01709 12.2832C7.4574 13.4026 7.26256 14.7346 7.5202 16.0228C7.71335 16.9887 8.547 18.3833 9.23306 19.0693C9.60772 19.444 10.1496 19.7112 10.4752 20.0369C10.5073 20.069 10.4553 20.1615 10.436 20.1808C10.1447 20.4721 9.4354 20.7444 8.98461 20.8345C8.32283 20.9669 7.66931 21.1673 6.9841 21.253C6.5811 21.3033 6.11882 21.2862 5.72884 21.3837C5.53814 21.4314 5.11852 21.4828 4.93127 21.436C4.72571 21.3846 4.50935 21.3202 4.30364 21.2791C3.63726 21.1458 2.88587 19.7878 2.56459 19.2524C2.21842 18.6754 2.10875 17.9519 1.95006 17.3173C1.87263 17.0075 1.82745 16.6616 1.72781 16.3628C1.64754 16.122 1.79252 15.8293 1.84544 15.6174C2.11916 14.5228 3.37365 14.0819 4.27753 13.63C5.34637 13.0956 6.53599 12.5198 7.63791 12.1525C7.68509 12.1367 8.004 12.0356 8.004 12.1394C8.004 12.2109 8.00806 12.3054 7.96479 12.3486" fill="#388CE0"/>
<path fill-rule="evenodd" clip-rule="evenodd" d="M20.7692 9.10296C20.3574 9.11383 18.9635 9.19072 18.7137 9.44047C18.5902 9.56408 18.7652 10.5135 18.7909 10.6928C18.9584 11.8656 19.4242 13.4238 19.9469 14.4691C19.989 14.5533 20.1196 14.623 20.1973 14.6618C20.4166 14.7714 21.5167 14.1032 21.8061 14.0067C22.9745 13.6173 24.1488 12.6605 23.9544 11.2998C23.8902 10.8504 23.7986 10.4544 23.5401 10.0666C23.3247 9.74353 23.1722 9.29021 22.7791 9.09369C22.2837 8.84601 21.7028 8.78681 21.1317 8.901C21.0287 8.9216 20.8755 8.95882 20.7849 8.95882C20.7496 8.95882 20.6116 8.96893 20.6116 9.01664" fill="#5BCFB9"/>
<path fill-rule="evenodd" clip-rule="evenodd" d="M21.3529 0.845148C20.4967 0.606275 18.6972 3.09955 18.3001 3.76133C17.908 4.41485 17.599 5.29199 17.4231 5.99552C16.8374 8.33861 17.1406 11.0782 17.8825 13.3036C18.1949 14.241 18.8151 15.0854 19.2606 15.9764C19.7789 17.013 20.4721 18.3675 21.4322 19.0875C21.9881 19.5045 22.6059 19.7865 23.1861 20.1733C23.3654 20.2928 23.7434 20.2921 23.896 20.4447C24.3563 20.905 26.3604 21.1336 27.0489 20.9041C28.114 20.5491 30.9494 19.5539 29.9931 17.9599C29.8143 17.6619 29.4992 17.1493 29.1996 16.9995C29.0348 16.9171 28.9396 16.9671 28.8238 17.083C28.7577 17.149 28.7479 17.3258 28.6776 17.3962C28.1094 17.9643 27.8095 18.7072 27.0489 19.0875C26.6378 19.2931 26.0968 19.3339 25.6708 19.5469C25.3166 19.724 24.7325 19.8048 24.3345 19.6721C23.9464 19.5428 23.5006 19.2767 23.207 18.9831C22.8648 18.641 22.3514 18.4306 22.0794 18.0226C21.6434 17.3685 21.1323 16.7529 20.6596 16.1225C19.7756 14.9438 19.3331 13.0409 18.8847 11.6959C18.6734 11.0621 18.643 10.3078 18.5298 9.62871C18.489 9.38432 18.5706 9.14483 18.5089 8.89792C18.4117 8.50893 18.3833 7.24947 18.5089 6.87251C18.6407 6.47717 18.6299 6.04989 18.7594 5.66145C18.9844 4.98672 19.311 4.41209 19.6364 3.76133C19.8329 3.36837 20.2648 3.15385 20.5343 2.88434C20.7839 2.63475 21.9329 2.12208 22.33 2.32059C22.5823 2.4468 23.0749 2.52262 23.2487 2.69648C23.5631 3.01086 24.1561 3.16534 24.4807 3.48991C25.366 4.37533 26.6103 5.1392 27.2369 6.39224C27.6498 7.21822 28.5314 9.02635 28.5314 9.92104C28.5314 10.0459 28.6642 10.5408 28.7611 10.5892C28.9177 10.6675 29.1908 10.6394 29.3667 10.6101C30.2542 10.4622 30.9327 10.5684 31.2876 9.85839C31.5028 9.4282 28.6053 3.8769 28.0303 3.30197C27.3568 2.62854 26.6856 1.93015 25.7961 1.48541C25.5991 1.38684 25.4255 1.16 25.2115 1.08869C23.9186 0.657741 23.7305 0.483124 22.2464 0.483124C21.9435 0.483124 21.502 0.656975 21.2651 0.775455C21.1849 0.815509 20.8907 0.94249 20.9728 0.94249" fill="#388CE0"/>
<path fill-rule="evenodd" clip-rule="evenodd" d="M8.04603 11.7377C8.01011 11.7506 7.97358 11.7727 7.93751 11.8088C7.63185 12.1144 7.10302 12.2946 6.55734 12.469C5.94006 12.6663 5.29903 12.8483 4.85184 13.1166C4.10673 13.5637 3.2544 13.887 2.51511 14.2566C2.29798 14.3652 1.95013 14.7862 1.87553 15.0099C1.83333 15.1365 1.75521 15.2522 1.67947 15.3704C1.57746 15.5299 1.47766 15.6921 1.41892 15.8685C1.24055 16.4034 1.32779 17.1101 1.5616 17.8338C1.8887 18.8465 2.49014 19.8978 2.89597 20.5066C3.27109 21.0693 3.95424 21.5392 4.54442 21.7359C4.64291 21.7687 4.75679 21.7851 4.86945 21.8028C4.93493 21.813 5.00057 21.8211 5.05418 21.8479C5.11913 21.8804 5.21892 21.9066 5.35279 21.912C5.55337 21.92 5.86745 21.8856 6.26027 21.8164C8.35338 21.4475 12.8523 20.0916 13.809 19.9003C15.0035 19.6613 16.1806 19.4001 17.3916 19.2271C18.0801 19.1288 19.3258 19.1145 20.3786 19.2847C21.0293 19.3898 21.6074 19.5529 21.8932 19.8387C21.9172 19.8627 21.9604 19.8952 22.0193 19.9239C22.0509 19.9393 22.1151 19.9686 22.1504 19.9846C22.2039 20.0482 22.2841 20.0886 22.3736 20.0886C22.5347 20.0886 22.6655 19.9578 22.6655 19.7968C22.6655 19.7167 22.6345 19.6141 22.5285 19.5315C22.4783 19.4923 22.3245 19.4213 22.2807 19.4014C22.0098 19.1458 21.5584 18.9485 21.0158 18.8169C19.8179 18.5263 18.1612 18.5275 17.309 18.6493C16.0872 18.8238 14.8996 19.0869 13.6945 19.3279C12.8573 19.4953 9.3078 20.5544 7.03119 21.0639C6.46085 21.1915 5.97261 21.2844 5.63226 21.3173C5.48728 21.3313 5.32208 21.3221 5.30538 21.3211C5.22091 21.2804 5.12426 21.2547 5.02347 21.2367C4.92345 21.2187 4.81753 21.2116 4.72899 21.1821C4.24757 21.0216 3.68772 20.6418 3.38168 20.1828C2.9976 19.6067 2.42665 18.6128 2.11701 17.6544C1.92631 17.0639 1.82721 16.4895 1.97264 16.053C2.01637 15.9219 2.09526 15.8037 2.17116 15.6851C2.2734 15.5254 2.37235 15.3656 2.42933 15.1945C2.47023 15.072 2.65717 14.8382 2.77619 14.7787C3.52819 14.4028 4.39423 14.072 5.15221 13.6171C5.6547 13.3157 6.4224 13.1408 7.09475 12.9053C7.57012 12.7389 8.00031 12.5409 8.29372 12.2753C8.30137 12.2728 8.30834 12.2696 8.31455 12.2658C8.34464 12.2469 8.43762 12.2055 8.4537 12.0319C8.46864 11.8716 8.35054 11.7293 8.19009 11.7143C8.13909 11.7096 8.08984 11.7183 8.04603 11.7377ZM8.26385 12.2824C8.15502 12.2986 7.97236 12.2445 7.97236 12.2445C7.97236 12.2445 8.08027 12.3027 8.13732 12.3048C8.17715 12.3063 8.22011 12.3021 8.26385 12.2824ZM7.87425 11.9632C7.87356 11.9679 7.87295 11.9728 7.87249 11.978L7.87425 11.9632ZM7.88237 11.9253L7.87992 11.9341C7.87892 11.9388 7.87785 11.9436 7.87678 11.9484L7.87433 11.9626C7.87632 11.9486 7.87908 11.9362 7.88237 11.9253Z" fill="black"/>
<path fill-rule="evenodd" clip-rule="evenodd" d="M8.28366 12.2933C8.37595 12.201 8.54658 12.1284 8.73422 12.0597C9.0748 11.9348 9.47351 11.8427 9.71445 11.7825C10.2794 11.6413 12.3049 10.7053 13.6557 9.96655C14.2584 9.637 14.729 9.34046 14.8996 9.16982C15.2174 8.85199 15.9193 8.47181 16.4828 8.05143C16.9217 7.72394 17.2761 7.36506 17.3948 7.00924C17.4655 6.79709 17.6268 6.55171 17.7348 6.33566C17.8156 6.17406 17.8507 5.98895 17.8821 5.80101C17.9037 5.67127 17.9216 5.53939 17.9795 5.42359C18.3605 4.66171 18.7224 3.75707 19.2268 2.96463C19.701 2.21967 20.3025 1.5732 21.1919 1.27674C21.6643 1.11935 22.1444 1.09515 22.6386 0.971615C22.9205 0.901079 23.465 0.852063 23.7649 0.927118C24.1686 1.02798 24.6299 1.05594 24.9954 1.23867C25.7809 1.63141 26.9133 2.4747 27.7987 3.39757C28.3718 3.99495 28.8438 4.62334 29.031 5.18518C29.096 5.38001 29.2541 5.62532 29.441 5.89031C29.6759 6.22338 29.9609 6.59583 30.0765 6.94246C30.6322 8.60967 30.9485 10.1889 31.3827 11.926C31.4644 12.2528 31.4152 13.4525 31.3243 14.4525C31.2658 15.0946 31.1979 15.6532 31.1156 15.8177C30.9372 16.1747 30.7602 16.63 30.6327 17.0127C30.3289 17.9238 29.977 19.0146 29.1016 19.5982C28.5048 19.996 27.5353 20.4549 26.5792 20.6665C25.9724 20.8008 25.3712 20.8386 24.8846 20.6764C24.2487 20.4644 23.704 20.1271 23.0828 19.92C22.9095 19.8624 22.7028 19.7066 22.5005 19.5946C22.3063 19.4871 22.1127 19.4157 21.9449 19.4157C21.7839 19.4157 21.6531 19.5465 21.6531 19.7076C21.6531 19.8687 21.7839 19.9995 21.9449 19.9995C22.0592 19.9995 22.1862 20.0845 22.3191 20.1639C22.5216 20.2848 22.7257 20.4164 22.8981 20.4738C23.5193 20.6809 24.0641 21.0182 24.7 21.2302C25.2758 21.4221 25.9873 21.3953 26.7053 21.2364C27.7364 21.0083 28.7818 20.5129 29.4254 20.0839C30.4105 19.4271 30.8447 18.2226 31.1864 17.1972C31.3058 16.8391 31.4707 16.4128 31.6377 16.0788C31.7328 15.8886 31.8381 15.2475 31.9056 14.5053C32.0036 13.4286 32.037 12.1363 31.949 11.7844C31.511 10.0322 31.1908 8.43957 30.6303 6.75788C30.5193 6.42496 30.2808 6.06669 30.0463 5.73507C29.8483 5.45499 29.6511 5.19927 29.5848 5.0006C29.3754 4.37244 28.8606 3.66133 28.22 2.9935C27.2848 2.01871 26.0861 1.13137 25.2565 0.716582C24.8545 0.515542 24.3505 0.471811 23.9066 0.36076C23.5312 0.266942 22.8497 0.317106 22.4971 0.405257C21.9879 0.532544 21.4939 0.560804 21.0074 0.722938C19.984 1.06405 19.28 1.794 18.7344 2.65116C18.2189 3.46091 17.8466 4.38401 17.4574 5.16251C17.3738 5.32985 17.3375 5.51764 17.3062 5.70497C17.2847 5.83417 17.2683 5.96345 17.2127 6.07458C17.0929 6.31429 16.9194 6.58924 16.841 6.82459C16.7521 7.09119 16.4625 7.33825 16.1337 7.58348C15.5458 8.0221 14.8184 8.42548 14.4868 8.75702C14.3353 8.90859 13.9109 9.16171 13.3756 9.45442C12.071 10.1678 10.1184 11.0797 9.57292 11.2161C9.3172 11.2801 8.89459 11.3791 8.53326 11.5116C8.25295 11.6144 8.00879 11.7427 7.87094 11.8805C7.75705 11.9944 7.75705 12.1794 7.87094 12.2933C7.98482 12.4072 8.16978 12.4072 8.28366 12.2933Z" fill="black"/>
<path fill-rule="evenodd" clip-rule="evenodd" d="M17.0515 7.12027C16.9956 7.23492 16.9737 7.36534 16.9702 7.50198C16.9669 7.62781 16.9859 7.76099 16.9628 7.87625C16.7824 8.77821 16.8928 9.79628 17.1294 10.8243C17.4701 12.3042 18.0716 13.8064 18.3673 14.9892C18.4501 15.3202 18.6585 15.6857 18.8793 16.0516C19.0723 16.3712 19.275 16.6917 19.3746 16.9904C19.659 17.8438 20.5731 18.722 21.0467 19.1955C21.0647 19.2136 21.1105 19.2371 21.1524 19.2564C21.2055 19.3126 21.2809 19.3477 21.3643 19.3477C21.5253 19.3477 21.6561 19.2169 21.6561 19.0558C21.6561 18.8807 21.3611 18.7218 21.3611 18.7218C21.3611 18.7218 21.4375 18.7607 21.4594 18.7827C21.0316 18.3549 20.1854 17.5769 19.9283 16.8058C19.8167 16.4708 19.5955 16.1083 19.3791 15.7499C19.1907 15.4377 19.0042 15.1301 18.9336 14.8475C18.687 13.861 18.2278 12.6524 17.8842 11.4198C17.5543 10.2363 17.3272 9.03049 17.5352 7.99075C17.5565 7.88391 17.557 7.76628 17.5545 7.64787C17.5526 7.55176 17.5373 7.45342 17.5768 7.37446C17.6337 7.2608 17.654 6.98701 17.6748 6.72577C17.6818 6.63685 17.7079 6.50696 17.7173 6.46231C17.8184 6.38144 17.8565 6.2396 17.8014 6.11583C17.7358 5.96871 17.5632 5.90239 17.416 5.96795C17.29 6.02401 17.1751 6.17266 17.1289 6.39875C17.0953 6.56348 17.0878 6.78153 17.0732 6.9602C17.068 7.02331 17.0528 7.11207 17.0515 7.12027Z" fill="black"/>
<path fill-rule="evenodd" clip-rule="evenodd" d="M21.4728 1.12195L21.4534 1.13535C21.2687 1.26019 20.4433 1.78542 20.3222 1.84592C20.1175 1.94832 19.8411 2.28147 19.5745 2.73907C19.0264 3.67986 18.4408 5.14741 18.3232 5.61758C18.255 5.89069 18.2508 6.22774 18.2466 6.55883C18.2431 6.83347 18.2423 7.10343 18.1738 7.30892C18.1088 7.50367 18.1009 8.09508 18.1437 8.68173C18.1866 9.26838 18.28 9.84814 18.3676 10.0231C18.4271 10.1421 18.4149 10.2942 18.4105 10.4461C18.4037 10.6845 18.398 10.9245 18.463 11.1194C18.6561 11.6987 18.6919 12.3623 18.8856 12.9435C19.6223 15.1534 21.0292 17.5894 22.915 19.1862C24.1994 20.2736 25.7049 20.9732 27.3708 20.9732C27.5318 20.9732 27.6626 20.8424 27.6626 20.6813C27.6626 20.5202 27.5318 20.3894 27.3708 20.3894C25.8442 20.3894 24.4692 19.7371 23.2923 18.7406C21.4863 17.2116 20.1448 14.8752 19.4394 12.7589C19.2457 12.1778 19.2099 11.5141 19.0168 10.9348C18.9594 10.7628 18.9958 10.5422 18.9963 10.3342C18.9969 10.1258 18.9722 9.9271 18.8897 9.76213C18.8167 9.61601 18.7617 9.12876 18.7259 8.63922C18.6901 8.14968 18.6734 7.656 18.7276 7.49356C18.8124 7.23914 18.826 6.90622 18.8303 6.56625C18.834 6.28258 18.8311 5.99323 18.8896 5.75919C19.0009 5.31361 19.5595 3.92448 20.0789 3.03294C20.2055 2.81566 20.3287 2.62886 20.4428 2.49729C20.4945 2.4377 20.5392 2.39007 20.5832 2.36809C20.7308 2.29426 21.8292 1.58813 21.8603 1.55711C21.8583 1.55903 21.8534 1.56339 21.8534 1.56339C21.8534 1.56339 22.0318 1.47532 22.1572 1.43725C22.284 1.39881 22.4148 1.35868 22.4826 1.3743C22.6396 1.41045 22.7964 1.31234 22.8325 1.15534C22.8686 0.998337 22.7705 0.841564 22.6135 0.805492C22.4845 0.775777 22.2289 0.805569 21.9878 0.878709C21.7697 0.94488 21.5671 1.04483 21.4728 1.12195Z" fill="black"/>
<path fill-rule="evenodd" clip-rule="evenodd" d="M24.6797 19.9701C24.9087 19.9749 25.1871 19.9953 25.4426 19.9831C25.6766 19.9719 25.8935 19.9317 26.0585 19.8492C26.4396 19.6587 26.9437 19.535 27.3549 19.3979C27.518 19.3436 27.66 19.2358 27.7913 19.1071C27.9172 18.9838 28.0268 18.8317 28.1717 18.7592C28.6168 18.5367 28.9862 17.9574 29.2406 17.1902C29.7817 15.5578 29.8663 13.0723 29.6145 12.0654C29.5485 11.8015 29.5329 11.4672 29.4874 11.1575C29.4513 10.9116 29.3966 10.6797 29.3033 10.493C28.987 9.86049 28.7758 9.03473 28.5406 8.32906C28.2436 7.43828 27.4467 6.53418 26.8955 5.79933C26.1703 4.83235 25.1696 3.48404 24.0226 2.7122C23.197 2.15665 22.2963 1.89457 21.3645 2.20512C20.5954 2.46154 19.8485 3.039 19.4366 3.73226C19.3543 3.87073 19.3999 4.04994 19.5384 4.13227C19.6769 4.21453 19.8561 4.16896 19.9384 4.03041C20.2821 3.45203 20.9073 2.97283 21.5491 2.75892C22.3037 2.50734 23.028 2.74651 23.6967 3.19646C24.7908 3.93284 25.7367 5.22715 26.4285 6.14956C26.9457 6.83915 27.7081 7.67785 27.9868 8.51364C28.2305 9.24473 28.4535 10.0987 28.7811 10.7541C28.869 10.9297 28.9017 11.161 28.9303 11.3964C28.9646 11.6799 28.9889 11.9696 29.0483 12.207C29.284 13.1502 29.1933 15.4774 28.6865 17.0065C28.4916 17.5944 28.2518 18.0666 27.9106 18.2371C27.7411 18.3219 27.5949 18.472 27.4502 18.6218C27.363 18.7121 27.2805 18.8074 27.1704 18.8442C26.7344 18.9895 26.2014 19.1251 25.7974 19.3271C25.6955 19.3781 25.5593 19.3931 25.4147 19.4C25.1355 19.4134 24.8281 19.3853 24.5933 19.3853C24.446 19.3853 24.376 19.4296 24.3333 19.4704C24.2932 19.5087 24.2346 19.5724 24.2346 19.7216C24.2346 19.8828 24.3655 20.0135 24.5265 20.0135C24.5827 20.0135 24.6352 19.9976 24.6797 19.9701ZM24.8178 19.739L24.8175 19.7432L24.8178 19.7405L24.8178 19.739Z" fill="black"/>
<path fill-rule="evenodd" clip-rule="evenodd" d="M18.939 9.18881C18.7817 9.18238 18.6469 9.30254 18.6361 9.46046C18.6251 9.62122 18.7467 9.76061 18.9074 9.77156C18.9722 9.776 19.0922 9.75999 19.2344 9.72438C19.47 9.66541 19.7949 9.55635 19.9287 9.52962C20.3276 9.44982 20.7473 9.41497 21.1525 9.34742C21.372 9.31081 21.6378 9.22159 21.8508 9.22159C22.0118 9.22159 22.1427 9.09086 22.1427 8.92972C22.1427 8.76866 22.0118 8.63785 21.8508 8.63785C21.609 8.63785 21.3057 8.73006 21.0565 8.77164C20.6452 8.84019 20.2192 8.87618 19.8143 8.95721C19.6934 8.98134 19.4243 9.0678 19.1936 9.13145C19.0908 9.15978 18.9478 9.18713 18.939 9.18881Z" fill="black"/>
<path fill-rule="evenodd" clip-rule="evenodd" d="M21.9303 9.19572C21.9893 9.22621 22.1407 9.30639 22.2294 9.36889C22.3908 9.48269 22.5372 9.59466 22.6036 9.62783C22.6841 9.66803 22.764 9.78628 22.8158 9.86394C23.2203 10.4707 23.7041 11.1192 23.5002 11.9351C23.3157 12.6729 23.0131 12.9776 22.5884 13.2256C22.2639 13.4152 21.8797 13.5777 21.4375 13.8431C21.0731 14.0617 20.6789 14.2918 20.278 14.439C20.1267 14.4945 20.0491 14.6623 20.1046 14.8136C20.1601 14.9648 20.3279 15.0425 20.4792 14.987C20.9138 14.8274 21.3428 14.5806 21.7378 14.3436C22.1777 14.0796 22.5601 13.9183 22.8829 13.7296C23.4292 13.4105 23.8291 13.026 24.0664 12.0766C24.3142 11.0857 23.7928 10.2771 23.3015 9.54013C23.2009 9.38934 23.0209 9.18378 22.8647 9.10574C22.7577 9.0522 22.4288 8.77082 22.1836 8.66398C21.9415 8.55845 21.7364 8.59973 21.6193 8.71691C21.5053 8.83079 21.5053 9.01575 21.6193 9.12971C21.7033 9.21372 21.826 9.23578 21.9303 9.19572Z" fill="black"/>
<path fill-rule="evenodd" clip-rule="evenodd" d="M21.4523 9.34435C21.47 9.32635 21.4857 9.30583 21.4986 9.28285C21.5776 9.14247 21.5279 8.96433 21.3876 8.88529C21.3073 8.84003 21.2148 8.82762 21.1127 8.87633C21.0792 8.89226 21.0313 8.92366 20.9895 8.98049C20.9607 9.01963 20.9218 9.10073 20.9103 9.12348C20.7239 9.49638 20.6741 10.0388 20.6741 10.4762C20.6741 10.8608 20.7463 11.1824 20.8078 11.5517C20.8648 11.8937 21.2682 12.7854 21.6983 13.2879C21.9367 13.5664 22.2006 13.7208 22.4153 13.7208C22.5763 13.7208 22.7071 13.5901 22.7071 13.4289C22.7071 13.2679 22.5763 13.1371 22.4153 13.1371C22.3705 13.1371 22.3309 13.0947 22.2812 13.0516C22.1839 12.967 22.086 12.8476 21.9914 12.7129C21.6902 12.2844 21.4248 11.7025 21.3836 11.4558C21.3275 11.1192 21.2578 10.8267 21.2578 10.4762C21.2578 10.1241 21.2824 9.6847 21.4325 9.38456L21.4523 9.34435ZM21.2541 9.43128C21.2024 9.43304 21.1494 9.42109 21.101 9.39383C21.1484 9.42056 21.1995 9.43427 21.2541 9.43128Z" fill="black"/>
<path fill-rule="evenodd" clip-rule="evenodd" d="M1.26398 15.8219C1.08033 16.1108 0.838928 16.3619 0.685448 16.6689C0.590022 16.8597 0.557549 17.0831 0.564824 17.3148C0.573785 17.6001 0.644015 17.8992 0.683917 18.1385C0.937648 19.6609 1.90325 21.1544 3.56663 21.1544C3.7277 21.1544 3.85851 21.0236 3.85851 20.8625C3.85851 20.7014 3.7277 20.5706 3.56663 20.5706C2.20209 20.5706 1.46786 19.2915 1.25969 18.0426C1.22898 17.8584 1.17706 17.6362 1.156 17.4147C1.13961 17.2428 1.13739 17.0704 1.20754 16.93C1.35213 16.6408 1.58366 16.4072 1.75659 16.1352C1.84305 15.9992 1.80285 15.8187 1.6669 15.7323C1.53096 15.6459 1.35037 15.6861 1.26398 15.8219Z" fill="black"/>
<path fill-rule="evenodd" clip-rule="evenodd" d="M8.14504 11.8381C8.12199 11.8662 8.05321 11.9505 8.0369 11.975C7.91107 12.1638 7.8279 12.3775 7.71302 12.569C7.47767 12.9613 7.38193 13.5079 7.30833 13.9497C7.0484 15.5094 7.47989 17.1345 8.26995 18.4513C8.55118 18.9201 9.05443 19.2608 9.42771 19.6341C9.61229 19.8186 10.0939 20.1157 10.3481 20.1792C10.4017 20.1926 10.5663 20.2264 10.6021 20.2337C10.7161 20.3165 10.8768 20.3065 10.9797 20.2036C11.0935 20.0898 11.0935 19.9048 10.9797 19.7909C10.9363 19.7476 10.8658 19.7038 10.7756 19.6752C10.683 19.6457 10.5554 19.6293 10.4897 19.6129C10.3095 19.5678 9.97132 19.3522 9.84044 19.2214C9.49917 18.88 9.02762 18.5796 8.77052 18.151C8.04961 16.9496 7.64692 15.4687 7.88411 14.0456C7.9466 13.6706 8.01377 13.2024 8.21359 12.8694C8.32379 12.6857 8.40191 12.4799 8.52254 12.2988C8.5488 12.2596 8.64561 12.1457 8.6643 12.1079C8.69777 12.0403 8.69891 11.9832 8.69616 11.9477C8.6836 11.7871 8.54298 11.6669 8.38246 11.6795C8.27746 11.6877 8.18969 11.7506 8.14504 11.8381Z" fill="black"/>
<path fill-rule="evenodd" clip-rule="evenodd" d="M7.29575 22.5709C7.16195 22.4313 6.99782 22.2498 6.85407 22.106C6.799 22.0509 6.56633 21.655 6.53179 21.5959C6.50928 21.4759 6.41232 21.3784 6.2848 21.3608C6.12527 21.3388 5.97784 21.4506 5.95586 21.6101C5.95027 21.6509 5.95517 21.7478 6.01269 21.8664C6.10689 22.0609 6.36798 22.4454 6.44135 22.5188C6.61428 22.6917 6.81677 22.9195 6.9603 23.063C7.01605 23.1188 7.11018 23.1687 7.24122 23.1689C7.40113 23.1693 7.70058 23.0673 7.76583 23.0487C9.20474 22.6376 10.5661 22.0086 11.7967 21.1883C12.1386 20.9603 12.532 20.714 12.8158 20.4303C12.8363 20.4098 12.9267 20.3025 12.9561 20.2675C13.0373 20.2156 13.0911 20.1248 13.0911 20.0214C13.0911 19.8603 12.9604 19.7295 12.7993 19.7295C12.7564 19.7295 12.6963 19.7383 12.6311 19.7794C12.5766 19.8138 12.4398 19.9808 12.403 20.0175C12.1449 20.2757 11.7839 20.4952 11.4729 20.7026C10.2923 21.4896 8.98601 22.093 7.60546 22.4874C7.57161 22.4971 7.38826 22.5462 7.29575 22.5709Z" fill="black"/>
<path fill-rule="evenodd" clip-rule="evenodd" d="M10.1747 21.2373C10.1513 21.1944 10.0946 21.0884 10.0666 21.0177C10.0089 20.8722 9.95729 20.732 9.91617 20.6645C9.83246 20.5268 9.65279 20.4831 9.51516 20.5668C9.37753 20.6506 9.3338 20.8303 9.41751 20.9679C9.481 21.0722 9.56548 21.3759 9.67714 21.5489C9.7901 21.7239 9.94129 21.8053 10.0803 21.8053C10.2414 21.8053 10.3722 21.6745 10.3722 21.5134C10.3722 21.3854 10.2895 21.2765 10.1747 21.2373Z" fill="black"/>
<path fill-rule="evenodd" clip-rule="evenodd" d="M8.22126 22.7894C8.38294 22.9439 8.48863 23.1881 8.55924 23.4C8.61017 23.5528 8.7756 23.6355 8.92846 23.5846C9.08125 23.5336 9.16397 23.3682 9.11304 23.2154C9.01401 22.9184 8.85126 22.5841 8.62464 22.3674C8.50816 22.2561 8.32328 22.2602 8.21192 22.3767C8.10064 22.4931 8.10477 22.678 8.22126 22.7894Z" fill="black"/>
<path fill-rule="evenodd" clip-rule="evenodd" d="M7.89886 26.0004C7.87902 26.0145 7.79401 26.074 7.72355 26.1096C7.5036 26.2206 7.1886 26.3348 6.87612 26.4435C6.42334 26.601 5.97592 26.7488 5.78178 26.8548C5.6731 26.914 5.61068 26.9809 5.58189 27.0282C5.49833 27.1659 5.54229 27.3456 5.67999 27.4292C5.80077 27.5025 5.95379 27.4777 6.04592 27.3776C6.10987 27.3524 6.64407 27.1423 7.06797 26.9948C7.46837 26.8555 7.87121 26.7043 8.10917 26.5641C8.26916 26.4698 8.36956 26.365 8.41306 26.278C8.53943 26.0252 8.68134 25.4302 8.73105 25.1322C8.76605 24.9222 8.90092 24.6314 8.99527 24.4426C9.06022 24.3129 9.09744 24.1695 9.13213 24.0256C9.15641 23.9251 9.17808 23.8239 9.22312 23.7338C9.46444 23.2512 9.62114 22.8017 9.94234 22.3735C10.039 22.2446 10.0129 22.0614 9.88398 21.9648C9.75509 21.8681 9.57205 21.8943 9.47539 22.0232C9.13236 22.4805 8.95874 22.9574 8.70103 23.4728C8.63646 23.6018 8.5994 23.7447 8.5647 23.8887C8.54043 23.9894 8.51852 24.0908 8.47318 24.1816C8.35669 24.4146 8.19847 24.7768 8.15519 25.0362C8.11384 25.2845 8.00447 25.776 7.89886 26.0004Z" fill="black"/>
<path fill-rule="evenodd" clip-rule="evenodd" d="M11.5556 24.835C11.5923 24.8556 11.7559 24.9463 11.8121 24.965C12.1377 25.0735 12.748 25.0372 13.0642 24.9424C13.403 24.8408 13.7344 24.743 14.0108 24.6052C14.5047 24.359 14.8417 23.9953 14.8417 23.3338C14.8417 22.9792 14.7134 22.6668 14.5031 22.4565C14.2446 22.198 13.304 21.8274 12.9115 21.6705C12.3584 21.4492 11.7391 21.1693 11.1278 21.2218C10.9673 21.2355 10.8482 21.3771 10.8619 21.5375C10.8757 21.698 11.0172 21.8171 11.1777 21.8034C11.6999 21.7586 12.2222 22.0234 12.6947 22.2125C12.9109 22.2989 13.3108 22.4512 13.6472 22.6106C13.8384 22.7012 14.0094 22.7883 14.0903 22.8693C14.2007 22.9797 14.258 23.1475 14.258 23.3338C14.258 23.7279 14.0445 23.9361 13.7503 24.0828C13.5013 24.2069 13.2016 24.2917 12.8964 24.3832C12.6692 24.4515 12.2307 24.4892 11.9967 24.4113C11.9533 24.3968 11.8774 24.3421 11.8176 24.3125C11.7358 24.2723 11.6609 24.257 11.6133 24.257C11.4522 24.257 11.3214 24.3878 11.3214 24.5489C11.3214 24.6902 11.4221 24.8082 11.5556 24.835Z" fill="black"/>
<path fill-rule="evenodd" clip-rule="evenodd" d="M12.2232 24.7635C12.2265 24.6363 12.1456 24.5171 12.0181 24.4775C11.9344 24.4514 11.8609 24.4635 11.7963 24.4969C11.7436 24.5242 11.6835 24.5721 11.6523 24.6656C11.6453 24.6869 11.6374 24.7182 11.6367 24.7588C11.6362 24.7961 11.6555 24.9057 11.6636 24.9378C11.7022 25.0922 11.7517 25.2434 11.8249 25.3898C11.8736 25.4873 11.8874 25.6024 11.8989 25.7181C11.915 25.8799 11.9224 26.044 11.9516 26.1899C12.1387 27.1254 11.8243 27.8498 11.2915 28.5958C11.2426 28.6643 11.1922 28.7603 11.1347 28.8493C11.1099 28.8876 11.0908 28.9304 11.0568 28.9474C10.9126 29.0194 10.8542 29.1949 10.9262 29.339C10.9983 29.4831 11.1737 29.5416 11.3178 29.4695C11.417 29.42 11.5071 29.3337 11.5832 29.2276C11.6529 29.1304 11.7104 29.0137 11.7665 28.9351C12.3983 28.0505 12.7459 27.1847 12.524 26.0755C12.4644 25.7775 12.4861 25.4069 12.347 25.1288C12.2932 25.0212 12.2583 24.9096 12.2299 24.7961C12.2286 24.7912 12.2256 24.7762 12.2232 24.7635ZM12.0284 25.0314C11.9712 25.0516 11.9072 25.0542 11.8448 25.0349C11.9126 25.0559 11.9735 25.0517 12.0284 25.0314ZM12.1538 24.9453C12.1429 24.9581 12.131 24.9698 12.1182 24.9803C12.1304 24.9703 12.1425 24.9587 12.1538 24.9453Z" fill="black"/>
<path fill-rule="evenodd" clip-rule="evenodd" d="M9.18056 33.522C9.22123 33.4909 9.3342 33.4042 9.3512 33.3893C9.90147 32.9078 10.4459 32.4452 11.0399 32.0191C11.0849 32.0131 11.3065 31.9845 11.5115 31.9768C12.2414 31.9492 13.3897 31.9813 13.727 31.9437C14.5654 31.8506 16.4863 30.8077 17.2188 30.3194C17.3529 30.23 17.3891 30.0487 17.2997 29.9147C17.2104 29.7806 17.0291 29.7443 16.8951 29.8337C16.2148 30.2872 14.4411 31.2771 13.6626 31.3636C13.282 31.4059 11.8561 31.3562 11.1959 31.4099C10.953 31.4297 10.7858 31.4831 10.7254 31.5262C10.1062 31.9686 9.53937 32.4491 8.96681 32.95C8.93441 32.9784 8.73521 33.1327 8.70389 33.1798C8.61597 33.3119 8.65288 33.4254 8.68735 33.4893C8.76386 33.631 8.941 33.684 9.08276 33.6076C9.12274 33.586 9.1556 33.5565 9.18056 33.522Z" fill="black"/>
<path fill-rule="evenodd" clip-rule="evenodd" d="M12.1814 27.5414L12.1952 27.5573C12.4698 27.885 13.611 29.495 13.8263 29.7235C13.8309 29.738 13.8658 29.8497 13.8824 29.9147C13.9119 30.0305 13.9501 30.1418 14.0064 30.2262C14.1342 30.418 14.5571 30.793 14.9213 30.9974C15.1131 31.105 15.2948 31.1631 15.4229 31.1631C15.584 31.1631 15.7148 31.0324 15.7148 30.8712C15.7148 30.7102 15.584 30.5794 15.4229 30.5794C15.3371 30.5794 15.2151 30.499 15.0828 30.4127C14.8352 30.2511 14.5766 30.0291 14.4921 29.9024C14.4475 29.8356 14.4398 29.7313 14.4154 29.643C14.3784 29.5099 14.3231 29.3953 14.2478 29.3201C14.0611 29.1334 12.916 27.5086 12.6426 27.1823C12.5271 27.0444 12.4082 27.0231 12.3842 27.0212C12.2236 27.009 12.0833 27.1295 12.071 27.2901C12.0634 27.3906 12.1077 27.4832 12.1814 27.5414Z" fill="black"/>
<path fill-rule="evenodd" clip-rule="evenodd" d="M15.6068 28.352C15.5639 28.502 15.5486 28.6685 15.5635 28.8336C15.594 29.1722 15.7505 29.4898 15.9798 29.6426C16.1613 29.7636 16.33 29.8241 16.5477 29.8785C16.7691 29.9339 17.0847 29.8878 17.2992 29.8449C17.6052 29.7837 17.914 29.7385 18.2161 29.5875C18.7641 29.3135 19.3183 28.665 19.5607 27.9683C19.7325 27.4745 19.7473 26.9603 19.5326 26.5306C19.4351 26.3358 19.34 26.2224 19.133 26.119C19.0893 26.0971 19.0248 26.0773 18.9375 26.087C18.8634 26.0954 18.7147 26.1467 18.5209 26.2417C17.7828 26.6034 16.1246 27.6391 15.6919 27.7473C15.5495 27.783 15.431 27.78 15.3343 27.7402C15.0906 27.6398 14.9995 27.3449 14.9746 27.0802C14.9615 26.9412 14.9697 26.8059 14.9984 26.698C15.0082 26.661 15.033 26.6106 15.0405 26.5961C15.1704 26.5196 15.2217 26.3544 15.1543 26.2166C15.0835 26.0719 14.9086 26.0118 14.7638 26.0826C14.6683 26.1293 14.5787 26.2152 14.5125 26.3418C14.416 26.5265 14.3641 26.824 14.3934 27.135C14.4312 27.5359 14.6036 27.9495 14.9188 28.1733C15.0987 28.301 15.3254 28.376 15.6068 28.352ZM18.9427 26.6902C18.5972 26.8289 17.7752 27.3162 17.0611 27.7143C16.7903 27.8654 16.5333 28.0034 16.3182 28.1098C16.3358 28.2016 16.3091 28.3003 16.2381 28.3714C16.1472 28.4622 16.131 28.6267 16.1449 28.7813C16.1585 28.9331 16.2008 29.0885 16.3035 29.1569C16.4263 29.2387 16.5421 29.2755 16.6893 29.3122C16.8356 29.3488 17.0431 29.3008 17.1847 29.2725C17.441 29.2213 17.702 29.1919 17.9551 29.0654C18.3886 28.8486 18.8176 28.3277 19.0094 27.7765C19.1271 27.4383 19.1575 27.0859 19.0104 26.7917C18.9897 26.7501 18.9706 26.7175 18.9427 26.6902Z" fill="black"/>
<path fill-rule="evenodd" clip-rule="evenodd" d="M16.6065 22.4493C16.6647 22.4825 16.876 22.6033 16.9066 22.6237C17.0924 22.7476 17.302 22.9162 17.4299 23.108C17.4823 23.1867 17.5494 23.2599 17.6174 23.3334C17.6751 23.3959 17.7394 23.4551 17.7661 23.5354C17.9082 23.9615 17.6127 24.3407 17.2477 24.584C16.9252 24.799 15.6966 25.5776 14.8643 25.9838C14.6842 26.0717 14.5243 26.1418 14.399 26.1816C14.3631 26.193 14.3175 26.2028 14.2979 26.2067C13.9075 26.0645 13.5635 25.6727 13.4634 25.2725C13.4472 25.208 13.4554 24.8852 13.4586 24.782C13.4918 24.7355 13.5118 24.6788 13.5128 24.6174C13.5154 24.4564 13.3868 24.3235 13.2257 24.3208C13.1185 24.319 12.9535 24.3784 12.8948 24.6023C12.8441 24.7959 12.8672 25.2943 12.8971 25.4142C13.0445 26.0036 13.5625 26.5775 14.1404 26.7701C14.1935 26.7878 14.2632 26.7976 14.3486 26.789C14.4505 26.7787 14.5956 26.7375 14.7688 26.6673C15.5863 26.3357 17.1907 25.3236 17.5715 25.0697C18.1564 24.6798 18.5475 24.0336 18.3199 23.3508C18.2817 23.2364 18.2173 23.1359 18.1402 23.0432C18.0662 22.9543 17.9765 22.8755 17.9156 22.7842C17.7466 22.5308 17.4759 22.3017 17.2304 22.138C17.1761 22.1019 16.8342 21.9033 16.7671 21.8845C16.6509 21.852 16.572 21.8902 16.5347 21.9115C16.4402 21.9655 16.3868 22.0482 16.3868 22.1665C16.3868 22.3026 16.4803 22.4172 16.6065 22.4493ZM13.23 24.9044L13.2162 24.9045C13.2208 24.9045 13.2254 24.9045 13.23 24.9044ZM13.2441 24.9035L13.2333 24.9042L13.2394 24.9039L13.2441 24.9035ZM13.2574 24.9022L13.2476 24.9033L13.251 24.903L13.2574 24.9022ZM13.2654 24.9011L13.2619 24.9016L13.2625 24.9016L13.2654 24.9011ZM16.9291 22.3164C16.9549 22.2746 16.9706 22.2253 16.9706 22.1665C16.9706 22.2213 16.9554 22.2726 16.9291 22.3164Z" fill="black"/>
<path fill-rule="evenodd" clip-rule="evenodd" d="M12.6276 21.48C12.4842 21.5207 12.3928 21.6649 12.4208 21.8142C12.4504 21.9726 12.603 22.0771 12.7613 22.0475C12.8088 22.0386 12.9058 21.9993 13.0247 21.9247C13.3318 21.7319 13.9155 21.2769 14.0352 21.1772C14.0818 21.1383 14.1278 21.0884 14.1743 21.0384C14.1957 21.0154 14.2375 20.9777 14.2455 20.9706C14.5817 20.8631 15.3358 20.9493 15.8526 21.2062C16.1158 21.3369 16.3364 21.5024 16.2848 21.7605C16.2634 21.868 16.2559 21.9741 16.2294 22.0799C16.1884 22.2443 16.0619 22.3872 15.9148 22.522C15.6333 22.7799 15.2671 22.9961 15.0229 23.1792C14.9549 23.2302 14.3666 23.6583 14.2493 23.7781C14.1533 23.8761 14.1466 23.9732 14.1466 24.0087C14.1466 24.1698 14.2774 24.3005 14.4385 24.3005C14.5354 24.3005 14.6214 24.2532 14.6744 24.1803C14.7493 24.123 15.3154 23.6895 15.3731 23.6462C15.6299 23.4536 16.0132 23.2236 16.3092 22.9523C16.5472 22.7343 16.7293 22.4875 16.7958 22.2215C16.8245 22.1066 16.8339 21.9916 16.8572 21.875C16.9605 21.3589 16.6385 20.9449 16.1124 20.6834C15.4502 20.3543 14.4774 20.2779 14.054 20.419C13.9693 20.4472 13.89 20.5002 13.8179 20.5684C13.7631 20.6202 13.714 20.685 13.6615 20.7288C13.5627 20.8111 13.1288 21.1502 12.8278 21.3556C12.7492 21.4092 12.6456 21.4696 12.6276 21.48Z" fill="black"/>
<path fill-rule="evenodd" clip-rule="evenodd" d="M18.1517 24.0058C17.9985 23.9781 17.8493 24.0762 17.8152 24.2295C17.7903 24.3412 17.8087 24.4703 17.9651 24.5529C17.9841 24.5629 18.011 24.5746 18.046 24.5819C18.0749 24.5878 18.1563 24.5892 18.1708 24.5892C18.2294 24.5892 18.3655 24.5688 18.3961 24.564C18.4756 24.5967 18.5238 24.6679 18.5732 24.75C18.7903 25.1119 18.8438 25.4927 18.76 25.9116C18.7343 26.0403 18.6748 26.2112 18.6748 26.3349C18.6748 26.496 18.8056 26.6268 18.9667 26.6268C19.1277 26.6268 19.2585 26.496 19.2585 26.3349C19.2585 26.2439 19.3135 26.1207 19.3324 26.0261C19.4462 25.4573 19.3685 24.9411 19.0737 24.4497C18.9434 24.2325 18.7862 24.0781 18.5655 24.0046C18.4921 23.9801 18.4083 23.9747 18.3221 23.9838C18.269 23.9894 18.2145 24.0055 18.1708 24.0055L18.1517 24.0058ZM18.2723 24.0573C18.3592 24.1209 18.4068 24.23 18.3879 24.3417C18.4061 24.2438 18.3888 24.1348 18.2723 24.0573Z" fill="black"/>
<path fill-rule="evenodd" clip-rule="evenodd" d="M11.9379 21.0871C11.9648 21.1443 12.0181 21.2561 12.0374 21.2851C12.0893 21.363 12.1409 21.5564 12.1934 21.6871C12.2382 21.7984 12.2911 21.8822 12.3309 21.9221C12.4 21.9911 12.6056 22.0016 12.6056 22.0016C12.6056 22.0016 12.5663 22.0075 12.5485 22.0075C12.7096 22.0075 12.8404 21.8767 12.8404 21.7157C12.8404 21.6355 12.8079 21.5627 12.7554 21.5099C12.7215 21.4167 12.5957 21.077 12.5274 20.9682C12.5262 20.9657 12.4276 20.756 12.4006 20.7197C12.3455 20.6455 12.2824 20.6195 12.2458 20.6082C12.1442 20.5766 12.0567 20.5973 11.9812 20.6541C11.9409 20.6844 11.884 20.7376 11.8666 20.8456C11.8521 20.9362 11.881 21.0238 11.9379 21.0871ZM12.4398 20.9548C12.4289 21.0043 12.4059 21.0484 12.3743 21.0843C12.4018 21.0552 12.4274 21.0143 12.4398 20.9548Z" fill="black"/>
</svg>
