<svg width="67" height="80" viewBox="0 0 67 80" fill="none" xmlns="http://www.w3.org/2000/svg">
<path fill-rule="evenodd" clip-rule="evenodd" d="M31.8404 0.790357C31.9215 0.706149 32.0117 0.631945 32.0738 0.600907C32.4635 0.406045 33.6195 0.207825 34.0818 0.439001C34.5375 0.666889 34.9443 0.708342 35.3772 0.924787C35.6067 1.03948 35.5595 1.36617 35.7011 1.50773C36.0217 1.82832 36.1277 2.72274 36.284 3.19181C36.4139 3.58133 36.7192 3.89802 36.7552 4.26616C36.956 4.35831 37.1997 4.43704 37.4052 4.50556C37.8829 4.66479 38.4825 4.20257 38.9337 4.4282C39.1421 4.53241 39.2812 4.62094 39.4174 4.75708C40.0312 5.37093 39.6183 6.59834 39.8817 7.38841C39.9753 7.66912 39.7866 8.24138 39.9978 8.45255C40.0892 8.54395 40.0463 8.93655 40.0945 9.03302C40.3676 9.57904 40.1359 10.1947 40.8298 10.426C40.9868 10.4784 41.1911 10.3858 41.3522 10.426C42.072 10.606 42.7725 10.3087 43.4611 10.1939C44.1639 10.0767 44.8746 9.96534 45.57 9.82625C45.784 9.78349 46.301 9.62104 46.5181 9.7295C46.7108 9.8259 46.9643 9.83317 47.1759 9.90367C47.7313 10.0888 48.2685 10.4352 48.6464 10.813C48.9795 11.1461 49.4098 11.3725 49.6137 11.7804C49.6825 11.918 49.9327 12.1293 49.846 12.3028C49.7976 12.3995 49.6137 12.3673 49.517 12.3995C49.2946 12.4737 48.5423 12.6378 48.2981 12.5156C48.1711 12.4521 47.9887 12.5415 47.8531 12.4963C47.5534 12.3964 47.1307 12.4592 46.8276 12.535C45.8662 12.7754 44.8044 12.6881 43.8287 12.8833C43.0868 13.0316 42.3682 13.1599 41.6231 13.3089C41.1584 13.4018 40.6689 13.3685 40.2107 13.4831C39.6838 13.6148 39.0793 13.4733 38.5467 13.5798C36.5037 13.9884 34.4428 14.2768 32.4328 14.7793C31.7903 14.9399 31.0584 14.7989 30.4205 15.0115C30.0127 15.1475 29.54 15.1954 29.1049 15.2824C28.3863 15.4261 27.651 15.6394 26.8993 15.7467C25.8423 15.8977 24.7615 15.8797 23.7455 16.1337C23.4195 16.2152 23.059 16.1506 22.7394 16.2305C22.4575 16.301 21.6478 16.5899 21.4044 16.3465C21.2402 16.1823 21.4578 15.8215 21.5592 15.6694C21.8354 15.2551 22.2417 14.5776 22.7975 14.3924C23.2284 14.2487 23.6599 13.963 24.1131 13.812C24.441 13.7027 24.8069 13.7014 25.1386 13.6185C25.741 13.4679 26.3626 13.3072 26.9379 13.1154C27.5859 12.8994 28.34 12.906 28.9888 12.6898C29.1442 12.638 29.2805 12.5087 29.4338 12.4576C29.7756 12.3437 29.7627 11.6287 29.7627 11.2967C29.7627 11.0694 29.9049 10.7298 29.8014 10.5228C29.54 10 29.2791 9.3554 29.2791 8.66536C29.2791 8.42891 29.1629 8.19903 29.1629 7.98821C29.1629 7.9103 29.0763 7.80397 29.1243 7.756L29.0231 7.8533C29.0091 7.85282 28.9006 7.63548 28.8921 7.60122C28.8472 7.42171 28.6799 6.90338 28.7566 6.74997C28.9669 6.32941 29.7681 6.16771 30.169 6.03403C30.5612 5.90337 30.6555 5.54482 30.8075 5.24081C30.8728 5.11015 30.8255 4.77784 30.9236 4.67973C30.9635 4.63978 31.0062 4.60292 31.0511 4.56893C31.0657 4.44423 31.071 4.32775 31.0374 4.26061C30.6958 3.57736 30.7128 2.28656 31.0698 1.57248C31.2262 1.2597 31.4608 0.807349 31.8404 0.790357ZM34.6698 4.00415C34.7041 3.96879 34.7351 3.92549 34.7619 3.87191C35.1318 3.13199 34.5221 2.05182 33.8874 1.73445C33.0694 1.32541 32.2595 2.4965 32.009 2.9975C31.7949 3.42586 32.2249 3.89336 32.5 4.169C32.7109 4.15824 32.9182 4.15728 33.1099 4.15728C33.2977 4.15728 33.6079 4.34365 33.8258 4.23471C34.0693 4.11295 34.363 4.03628 34.6698 4.00415ZM31.8404 0.790357C31.7394 0.895188 31.6528 1.01544 31.6528 1.08669L31.9795 0.803101C31.9311 0.792275 31.8848 0.78837 31.8404 0.790357Z" fill="#388CE0"/>
<path fill-rule="evenodd" clip-rule="evenodd" d="M17.668 36.2435C17.5034 35.7493 17.6213 35.1872 17.4942 34.6792C17.2185 33.5761 17.243 32.3611 16.8859 31.2898C16.1844 29.1854 16.1873 26.8733 15.6402 24.685C15.2926 23.2944 15.4663 21.8168 15.1188 20.4267C14.9269 19.6591 15.0557 18.7838 14.8581 17.9933C14.6362 17.1057 14.9352 16.1001 14.7133 15.2123C14.5919 14.7269 14.6524 14.0332 14.8001 13.5901C14.9368 13.18 14.8099 12.7015 15.003 12.3155C15.7084 10.9045 17.3738 10.7182 18.9137 10.4615C19.9263 10.2927 20.988 10.2181 21.9844 9.96906C22.3819 9.86964 22.8068 9.92665 23.201 9.79523C23.5819 9.66827 24.0335 9.77543 24.4177 9.67937C25.5938 9.38529 26.9744 9.01311 28.1836 9.01311L28.225 9.0151C27.5975 8.98474 27.2833 9.85758 27.0828 10.2587C26.9414 10.5417 26.5742 10.7384 26.3586 10.954C26.109 11.2035 26.2922 11.9473 26.04 12.1996C25.8314 12.4081 25.6278 12.623 25.3157 12.779C24.5778 13.148 23.4723 13.2462 22.6216 13.4163C20.9364 13.7533 19.1671 13.9903 17.5232 14.4012C16.9593 14.5422 16.3186 14.5131 15.7851 14.6909C15.5348 14.7744 15.2012 14.7243 15.0609 14.8647C14.9164 15.0092 15.341 15.1644 15.3795 15.2413C15.5599 15.6021 15.7812 15.8998 15.9589 16.2552C16.3094 16.9562 15.887 17.9951 16.0748 18.7465C16.3708 19.9306 16.0024 21.3684 16.3934 22.5414C16.7613 23.6451 16.8615 24.8773 17.1466 26.0176C17.6777 28.1418 18.0024 30.3229 18.6529 32.2748C18.9676 33.2185 18.8914 34.2936 19.2033 35.2296C19.2435 35.35 19.4638 36.1568 19.3482 36.2724C19.2853 36.3354 19.2022 36.3703 19.1132 36.3985L18.8599 35.1431C19.2438 35.3351 19.0296 36.3202 19.1566 36.7011C19.578 37.9653 19.5691 39.4639 19.8985 40.7816C20.7924 44.3571 21.3352 48.012 22.2355 51.6135C22.4978 52.6629 22.5742 53.7795 22.9032 54.7666C23.1235 55.4275 22.9936 56.2039 23.1629 56.881C23.6056 58.652 23.429 60.5793 23.8677 62.3341C24.1055 63.2853 23.7857 64.4253 24.0903 65.3388C24.3275 66.0505 23.979 67.0823 24.3128 67.75C24.3833 67.8909 24.2058 68.3107 24.3128 68.4178C24.7504 68.8553 24.8258 68.8258 25.6483 68.8258C25.8284 68.8258 26.4473 68.5861 26.5757 68.7145L25.7409 68.8144C25.7409 68.8121 25.7409 68.8098 25.7409 68.8074L25.7409 68.8031C25.7409 68.8016 25.741 68.8003 25.7411 68.7989C25.7412 68.7965 25.7414 68.7942 25.7416 68.7918C25.7419 68.789 25.7422 68.7863 25.7425 68.7835C25.7429 68.7804 25.7433 68.7773 25.7437 68.7742C25.7442 68.7707 25.7446 68.7672 25.7451 68.7638C25.7462 68.7566 25.7473 68.7495 25.7484 68.7423C25.7499 68.7328 25.7514 68.7234 25.753 68.7138L25.6104 68.7172C26.0341 68.7172 26.5501 68.6019 26.9584 68.4998C27.476 68.3704 28.0211 68.3873 28.5456 68.2824C29.5001 68.0915 30.4862 67.8387 31.459 67.7171C33.9744 67.4027 36.4907 67.0728 38.9816 66.717C39.8615 66.5913 40.7529 66.3203 41.634 66.1734C45.5065 65.528 49.4252 65.224 53.2658 64.4559C54.9858 64.1118 56.7768 64.0145 58.4838 63.6732C59.7897 63.412 61.2742 63.4388 62.5277 63.0209C63.0568 62.8445 63.5885 62.6528 64.1149 62.4774C64.583 62.3214 64.9519 62.0127 65.4412 61.8904L65.2348 61.9821C65.3289 61.8879 65.2875 61.3639 65.2875 61.2179C65.2875 60.4436 65.2859 59.5779 65.103 58.8464C64.8033 57.6475 64.5367 56.5021 64.2335 55.2891C63.7789 53.4707 63.8968 51.5443 63.443 49.7292C63.1818 48.6844 63.3358 47.5349 63.0741 46.4882C62.761 45.236 62.6446 43.9007 62.3362 42.6674C62.0655 41.5841 61.9447 40.386 61.5984 39.3472C61.517 39.1028 61.2052 38.342 61.3349 38.0824C61.4881 37.7761 61.6731 37.4106 61.7829 37.0811C61.8629 36.841 61.9514 36.5438 62.1255 36.3696C62.3151 36.18 62.4376 36.7528 62.468 36.844C62.7056 37.5567 62.6571 38.3907 62.8369 39.11C62.972 39.6504 62.9468 40.3357 63.1268 40.8755C63.2442 41.228 63.0861 41.6758 63.2059 42.035C63.497 42.9084 63.5507 43.891 63.7328 44.8018C64.1668 46.9718 64.2494 49.2027 64.6814 51.3629C64.8346 52.1285 64.8075 52.9213 64.9976 53.6818C65.31 54.9313 65.4852 56.1987 65.7354 57.4498C66.0028 58.7864 66.5523 60.0815 66.5523 61.455L66.5553 61.2144C66.6386 61.2268 66.6264 61.4715 66.6577 61.5341C66.7778 61.7743 66.7631 62.2249 66.7631 62.5354C66.7631 62.9544 66.5933 63.191 66.3424 63.2938L66.5065 63.0209C65.9798 64.0744 64.8589 64.1679 63.7453 64.3906C62.0985 64.72 60.3888 64.7967 58.723 65.1299C57.8693 65.3005 56.9785 65.3336 56.114 65.4777C53.7372 65.8738 51.3512 66.2016 48.961 66.543C43.9903 67.2531 39.0566 68.0316 34.0897 68.9346C32.9639 69.1393 31.8302 69.3584 30.698 69.4999C30.1111 69.5733 29.5471 69.7824 28.9586 69.8478C28.2716 69.9241 27.5608 70.0621 26.8932 70.1957C26.6354 70.2472 26.3542 70.2014 26.1105 70.2826C25.446 70.5041 25.7192 69.5702 25.7192 69.2172L26.0935 70.0499C25.9009 70.1463 25.5244 69.9758 25.3144 69.9758C23.5692 69.9758 23.3429 68.8147 22.6436 67.4162C22.1115 66.3519 22.4392 64.7631 22.05 63.5954C21.9117 63.1804 22.0953 62.6101 21.9017 62.2228C21.6836 61.7866 21.983 61.0202 21.8275 60.5535C21.6849 60.126 21.8425 59.5448 21.642 59.1439C21.4045 58.6689 21.4444 58.0688 21.271 57.5488C20.7422 55.9624 20.6404 54.1811 20.6404 52.3925C20.6404 50.9271 20.4671 49.3378 19.8614 48.1265C19.7182 47.84 19.8166 46.8282 19.4904 46.8282L19.5645 46.8489C19.5645 46.8618 19.5642 46.8743 19.5635 46.8867C19.5625 46.9058 19.5606 46.9247 19.5569 46.9449L19.5633 46.8481L19.8614 48.1265C19.7182 47.84 19.8166 46.8282 19.4904 46.8282L19.5326 46.7485C19.5096 45.4292 19.2673 44.0812 18.8599 42.8589C18.6825 42.3268 18.815 41.6857 18.6372 41.1525C18.2145 39.8842 18.0569 38.5211 17.6357 37.2575C17.5319 36.9461 17.4081 35.9321 17.5615 35.6253C17.7188 35.3106 18.0631 35.3746 18.3034 35.2544L17.668 36.2435ZM25.7525 68.7132H25.7531L25.7536 68.7106C25.7544 68.7049 25.7554 68.6993 25.7563 68.6937C25.7568 68.6901 25.7574 68.6865 25.7579 68.6829C25.7583 68.6805 25.7586 68.6781 25.759 68.6757C25.7592 68.6742 25.7594 68.6727 25.7595 68.6712C25.7596 68.6704 25.7597 68.6695 25.7598 68.6686C25.7598 68.6682 25.7598 68.6677 25.7599 68.6673C25.7599 68.6668 25.7599 68.6665 25.7598 68.6662L25.7597 68.6658V68.6657C25.7597 68.6656 25.7596 68.6655 25.7595 68.6655V68.6655C25.7594 68.6655 25.7594 68.6655 25.7594 68.6656C25.7593 68.6657 25.7592 68.6657 25.7592 68.6659L25.7587 68.6668C25.7584 68.6674 25.7581 68.668 25.7579 68.6687C25.7577 68.6694 25.7574 68.6703 25.7571 68.6711L25.756 68.6747L25.7551 68.6775C25.7551 68.6775 25.7551 68.6777 25.7551 68.6777C25.7069 68.691 25.6587 68.704 25.6104 68.7172C25.6103 68.7173 25.6108 68.7172 25.6111 68.7172H25.6154C25.6189 68.7172 25.6225 68.7172 25.626 68.7171C25.6367 68.7171 25.6474 68.7169 25.658 68.7167C25.6895 68.7161 25.721 68.715 25.7525 68.7132ZM57.1682 13.2881L57.6012 11.9872C57.2865 12.092 56.8354 12.1104 56.6502 12.2956C56.4083 12.5374 56.7272 13.1687 56.8044 13.4007C57.14 14.4073 57.3559 15.478 57.6269 16.5618C58.1763 18.7595 58.338 20.9399 58.7834 23.1666C58.9706 24.1029 59.1616 25.032 59.3488 25.9679C59.5188 26.8184 59.4979 27.7212 59.7085 28.5636C59.8702 29.2104 60.094 30.0269 60.094 30.6967L60.1721 30.1817C60.338 30.1884 60.3767 30.9193 60.3767 31.0565C60.3767 31.9066 60.5053 32.775 60.5053 33.6008C60.5053 33.718 60.6 34.3798 60.8137 34.1662C60.8672 34.1126 60.9419 33.8842 60.9678 33.8064C61.0258 33.6325 61.2494 33.4226 61.3534 33.2667C61.52 33.0167 61.6076 32.7067 61.7388 32.4443C61.8243 32.2734 61.7129 31.8011 61.6618 31.6476C61.4696 31.0711 61.6802 30.3079 61.5332 29.7201C61.26 28.6271 61.3459 27.4543 61.0707 26.3534C60.5527 24.2817 60.1151 22.3 59.6058 20.2625C59.2656 18.9022 59.2023 17.4922 58.8604 16.1248C58.6752 15.3839 58.841 14.5568 58.6548 13.8118C58.4976 13.1831 58.7991 12.3382 58.342 12.0714L58.5357 12.6044C58.372 12.2769 58.2843 11.8399 58.1938 11.4782C58.0869 11.0505 58.3328 10.5075 58.1938 10.0907C58.0811 9.75241 58.122 9.34076 58.033 8.98461C57.7448 7.83208 57.4965 6.19589 56.5851 5.28441C55.7934 4.49277 54.614 4.52024 53.5484 4.52024C52.0045 4.52024 50.4683 4.59123 48.9634 4.842C48.314 4.95026 47.5844 5.12353 46.9324 5.12353L47.1212 5.20795C46.7274 5.15265 46.352 5.30202 45.9671 5.34478C45.5474 5.39137 45.1665 5.43063 44.7605 5.56595C43.8867 5.85728 42.8351 5.93868 41.925 6.06873C41.4786 6.13252 41.0413 6.22652 40.5978 6.2899C40.4022 6.31786 40.225 6.29716 40.0548 6.41056C39.5338 6.75794 39.805 7.74397 39.9342 8.26066C39.9838 8.45915 39.9509 8.67278 40.0146 8.86395C40.0984 9.11527 39.9779 9.50924 40.2559 9.64826C40.5528 9.79667 41.1359 9.66936 41.4424 9.60804C42.2022 9.45607 43.0391 9.44367 43.8153 9.34658C45.3111 9.1596 46.7799 8.79002 48.2797 8.60256C49.1135 8.49834 50.1317 8.37474 50.9141 8.03948C51.4457 7.81166 52.0606 7.64928 52.6234 7.53671C53.5173 7.35794 54.3767 6.87435 55.2779 7.17473C55.668 7.30477 55.6645 7.6462 55.8209 7.95904C55.871 8.05942 56.1291 7.93205 56.2029 8.0797C56.6882 9.05018 56.4824 10.3437 56.7459 11.3978C56.8591 11.8507 56.677 13.1244 57.1682 13.2881Z" fill="#F58773"/>
<path fill-rule="evenodd" clip-rule="evenodd" d="M52.8335 55.1266C52.754 55.0648 53.0508 55.3818 53.0616 55.4034C53.2294 55.739 53.6227 55.8216 53.828 55.6163C54.1435 55.3008 54.2862 54.487 54.5092 54.041C54.9926 53.0741 55.4967 52.0234 56.0419 50.933C57.0453 48.9262 57.676 46.5419 58.3836 44.4189C58.9679 42.6659 60.1629 40.9119 60.7679 39.0969C61.6088 36.574 62.8462 34.1817 63.663 31.7314C64.1166 30.3706 64.5369 28.9616 65.1531 27.7292C65.3225 27.3904 65.9142 26.6596 65.5789 26.3243C65.4306 26.176 65.0997 26.2762 64.9403 26.1966C63.7297 25.5913 63.1257 28.5746 62.8115 29.5174C62.2539 31.1899 61.7098 32.7373 61.151 34.4136C60.8604 35.2853 60.2817 36.2372 59.8737 37.0533C58.7743 39.2522 57.8185 41.7288 57.0211 44.1209C56.5624 45.4971 55.711 46.7741 55.2755 48.0804C54.7533 49.6472 54.1963 51.3034 53.4874 52.7211C53.2855 53.125 52.4961 55.2331 52.8062 55.2331" fill="#5BCFB9"/>
<path fill-rule="evenodd" clip-rule="evenodd" d="M28.8068 8.53886C28.4358 8.5714 27.8905 8.7958 27.48 8.89837C26.8766 9.04924 26.2186 8.99025 25.6109 9.14215C24.9229 9.31419 24.1601 9.21169 23.4605 9.32831C21.8155 9.60251 20.108 9.7662 18.4867 10.1715C17.8357 10.3343 17.093 10.4582 16.4285 10.7083C15.7212 10.9747 15.1023 11.3824 14.7443 12.0985C14.2747 13.0377 14.26 14.1177 14.3704 15.2151C14.4758 16.2637 14.6947 17.3281 14.6947 18.289C14.6947 18.4072 14.7906 18.5031 14.9088 18.5031C15.0269 18.5031 15.1229 18.4072 15.1229 18.289C15.1229 17.3148 14.9034 16.2354 14.7965 15.1723C14.6944 14.1579 14.6933 13.1581 15.1273 12.29C15.4342 11.6763 15.9733 11.3374 16.5794 11.1091C17.2285 10.8647 17.9546 10.7459 18.5905 10.587C20.2009 10.1844 21.897 10.0231 23.531 9.75072C24.2415 9.63232 25.016 9.73229 25.7147 9.55764C26.3225 9.40566 26.9805 9.46466 27.5839 9.31385C27.9743 9.21622 28.4912 8.99641 28.8442 8.96544C28.9619 8.95517 29.0491 8.85123 29.0388 8.73351C29.0285 8.61573 28.9245 8.52858 28.8068 8.53886Z" fill="black"/>
<path fill-rule="evenodd" clip-rule="evenodd" d="M14.7353 18.498C15.0191 20.158 15.4788 24.7065 16.018 27.8643C16.2539 29.2455 16.5093 30.3649 16.7672 30.8809C17.006 31.3585 17.1265 32.2663 17.2275 33.2847C17.3854 34.8774 17.4852 36.7319 17.819 37.733C18.0697 38.4852 18.4238 41.3551 18.765 43.1588C18.8706 43.7175 18.976 44.1769 19.0754 44.4488C19.1314 44.602 19.1933 44.7062 19.2467 44.7595C19.3239 44.8368 19.366 44.9582 19.3972 45.102C19.4361 45.2807 19.4519 45.4915 19.4591 45.7151C19.473 46.1454 19.4542 46.6206 19.4819 47.022C19.5026 47.3208 19.5511 47.5821 19.6444 47.7687C20.2473 48.9744 20.4345 50.8345 20.5885 52.7245C20.7464 54.6635 20.8667 56.6339 21.3216 57.9984C21.9625 59.9213 21.9448 63.1454 22.2599 65.8449C22.4777 67.7118 22.8649 69.3311 23.6876 70.1538C23.9857 70.4519 24.3198 70.563 24.6747 70.5968C24.9886 70.6267 25.3198 70.5918 25.6528 70.5918C25.771 70.5918 25.867 70.4958 25.867 70.3776C25.867 70.2595 25.771 70.1635 25.6528 70.1635C25.3936 70.1635 25.1356 70.1861 24.8864 70.1802C24.5638 70.1726 24.256 70.1166 23.9903 69.851C23.2182 69.0788 22.8897 67.5476 22.6852 65.7952C22.3667 63.0659 22.3759 59.8071 21.7278 57.863C21.2817 56.5248 21.1702 54.5914 21.0153 52.6897C20.8563 50.7389 20.6497 48.8216 20.0275 47.5772C19.9546 47.4316 19.9252 47.2258 19.9091 46.9926C19.8817 46.5959 19.9008 46.1265 19.8871 45.7013C19.8773 45.3961 19.8501 45.1123 19.7843 44.8866C19.7319 44.7072 19.6538 44.561 19.5495 44.4567C19.5104 44.4176 19.4807 44.3208 19.4392 44.1873C19.3569 43.9228 19.2721 43.5356 19.1857 43.0793C18.841 41.2567 18.4785 38.3576 18.2252 37.5977C17.8985 36.6177 17.8082 34.8015 17.6537 33.2424C17.5463 32.1597 17.4042 31.1971 17.1502 30.6894C16.9027 30.1942 16.6665 29.1177 16.4401 27.7922C15.9009 24.6344 15.4412 20.0859 15.1573 18.4259C15.1375 18.3094 15.0267 18.231 14.9102 18.2509C14.7937 18.2708 14.7153 18.3816 14.7353 18.498Z" fill="black"/>
<path fill-rule="evenodd" clip-rule="evenodd" d="M25.8243 70.5025L25.9028 70.4707C25.9856 70.4502 26.085 70.429 26.1686 70.429C26.5323 70.429 26.8658 70.344 27.2138 70.2744C28.1699 70.0831 29.1627 70.0866 30.1276 69.8721C31.1717 69.6401 32.3495 69.568 33.4155 69.4496C35.1938 69.252 36.9437 68.7255 38.7303 68.5469C41.0273 68.3172 43.2935 67.6533 45.6005 67.4435C50.4768 67.0002 55.3232 65.9398 60.1544 65.3359C61.0548 65.2234 61.9369 65.0558 62.8217 64.9083C64.2945 64.6628 65.619 64.55 66.6247 63.5444C66.8446 63.3244 66.947 63.0368 66.9834 62.7217C67.0305 62.315 66.9633 61.8597 66.9633 61.4868C66.9633 61.3686 66.8674 61.2727 66.7492 61.2727C66.631 61.2727 66.5351 61.3686 66.5351 61.4868C66.5351 61.7892 66.5821 62.1474 66.5711 62.4875C66.5619 62.7734 66.5155 63.0479 66.3219 63.2415C65.3806 64.1828 64.1297 64.2562 62.7512 64.4859C61.8722 64.6324 60.9959 64.7992 60.1013 64.9111C55.2748 65.5144 50.4333 66.5742 45.5617 67.0171C43.2535 67.2269 40.986 67.8909 38.6876 68.1208C36.8996 68.2996 35.148 68.8262 33.3682 69.0239C32.2873 69.144 31.0933 69.2189 30.0348 69.4541C29.0728 69.6679 28.083 69.6638 27.1298 69.8544C26.8096 69.9185 26.5033 70.0008 26.1686 70.0008C26.0496 70.0008 25.9068 70.0283 25.7906 70.0573C25.7712 70.0622 25.6534 70.1094 25.6397 70.1155C25.5266 70.1657 25.4036 70.6748 25.8171 70.5057L25.8243 70.5025Z" fill="black"/>
<path fill-rule="evenodd" clip-rule="evenodd" d="M62.1883 36.206C62.2438 36.2513 62.2695 36.3261 62.2902 36.4108C62.3203 36.5333 62.3309 36.6761 62.3382 36.8217C62.3559 37.174 62.3631 37.5394 62.4718 37.7569C62.8215 38.4562 62.8707 39.2888 62.9017 40.1346C62.9346 41.0328 62.9454 41.9458 63.2133 42.7493C63.6132 43.9493 63.7371 45.2656 63.8638 46.5844C63.9936 47.9359 64.1264 49.2899 64.5401 50.5312C64.6495 50.8594 64.6696 51.217 64.6918 51.5734C64.7164 51.9673 64.7433 52.36 64.8629 52.7188C65.054 53.2921 65.0994 54.0368 65.1634 54.7647C65.2313 55.5394 65.3218 56.2952 65.5917 56.835C65.6566 56.9648 65.6434 57.137 65.6404 57.3083C65.6361 57.5527 65.6419 57.796 65.7351 57.9825C66.0113 58.5347 66.3222 60.6306 66.3222 61.2936C66.3222 61.4118 66.4181 61.5077 66.5363 61.5077C66.6545 61.5077 66.7504 61.4118 66.7504 61.2936C66.7504 60.5919 66.4104 58.3754 66.1182 57.791C66.0527 57.6602 66.0655 57.4873 66.0685 57.3159C66.0729 57.0714 66.0673 56.8286 65.9747 56.6435C65.7253 56.1445 65.6528 55.4434 65.5899 54.7272C65.5229 53.9643 65.4695 53.1844 65.2692 52.5834C65.161 52.2588 65.1415 51.903 65.1192 51.5467C65.0946 51.1528 65.0672 50.7584 64.9464 50.3958C64.5426 49.1844 64.4168 47.8624 64.29 46.5434C64.1602 45.1919 64.0294 43.8436 63.6195 42.614C63.364 41.8474 63.361 40.9757 63.3296 40.1189C63.2963 39.2098 63.2307 38.3171 62.8548 37.5653C62.8174 37.4905 62.8023 37.39 62.7914 37.2788C62.7709 37.0679 62.7729 36.8239 62.7523 36.602C62.7233 36.2899 62.6381 36.0206 62.4593 35.8744C62.3679 35.7996 62.2328 35.8132 62.1581 35.9046C62.0832 35.9962 62.0968 36.1311 62.1883 36.206Z" fill="black"/>
<path fill-rule="evenodd" clip-rule="evenodd" d="M54.0591 56.2269C54.1514 56.2031 54.2196 56.1193 54.2196 56.0196C54.2196 55.9014 54.1237 55.8055 54.0055 55.8055C53.9644 55.8055 53.9162 55.8152 53.8644 55.8427C53.8134 55.8697 53.7481 55.923 53.6781 56.001C53.4339 56.2732 53.0583 56.9104 52.884 57.1937C52.9287 56.9976 52.9745 56.7953 53.0055 56.5981C53.0676 56.2034 53.0699 55.8276 52.9388 55.5389C52.8899 55.4313 52.7628 55.3837 52.6553 55.4325C52.5476 55.4815 52.5 55.6085 52.5489 55.7161C52.6781 56.0004 52.6159 56.3927 52.536 56.7863C52.4433 57.2434 52.3162 57.7024 52.3162 58.0383C52.3162 58.138 52.3639 58.1895 52.4023 58.2196C52.4478 58.2552 52.5045 58.2748 52.5741 58.2638C52.605 58.2589 52.6503 58.2442 52.696 58.2068C52.7515 58.1614 52.8298 58.0498 52.8499 57.9895C52.8693 57.9312 52.9219 57.8642 52.9747 57.796C53.0474 57.7021 53.1252 57.6096 53.1743 57.5359C53.2752 57.3846 53.6269 56.7665 53.8973 56.4095C53.9559 56.332 54.0368 56.2493 54.0591 56.2269Z" fill="black"/>
<path fill-rule="evenodd" clip-rule="evenodd" d="M53.0154 55.3954C52.9881 55.3359 52.9905 55.2705 53.0038 55.2032C53.0228 55.1076 53.0651 55.0093 53.1138 54.912C53.2342 54.6717 53.391 54.4378 53.4506 54.2593C53.8593 53.0331 54.2865 51.8321 54.7041 50.5796C55.518 48.1378 56.7744 45.703 57.6155 43.1797C58.0389 41.9095 58.7892 40.7115 59.1162 39.4033C59.2712 38.7838 59.5852 38.2022 59.9088 37.6238C60.2485 37.0167 60.5989 36.4131 60.81 35.7798C61.731 33.0165 63.0984 30.4107 64.0044 27.6925C64.1976 27.113 64.4266 26.2359 64.7055 25.5005C64.8795 25.0418 65.0682 24.639 65.2872 24.42C65.3284 24.3787 65.3833 24.3672 65.4425 24.3678C65.537 24.3688 65.6406 24.3998 65.7451 24.4432C66.1098 24.5946 66.4789 24.9036 66.5614 24.9861C66.645 25.0696 66.7806 25.0696 66.8641 24.9861C66.9477 24.9025 66.9477 24.7668 66.8641 24.6833C66.7503 24.5693 66.1731 24.0935 65.6829 23.9717C65.4099 23.9039 65.1609 23.9406 64.9844 24.1171C64.7333 24.3681 64.5045 24.823 64.3051 25.3486C64.0241 26.0896 63.7928 26.9732 63.5982 27.5571C62.6921 30.2752 61.3248 32.8811 60.4037 35.6444C60.2009 36.2529 59.8615 36.8314 59.5351 37.4148C59.1928 38.0268 58.8646 38.644 58.7008 39.2994C58.3764 40.5971 57.6292 41.7842 57.2093 43.0443C56.3682 45.5676 55.1118 48.0023 54.2978 50.4441C53.8803 51.6967 53.453 52.8977 53.0443 54.1238C52.977 54.3257 52.7729 54.6004 52.6606 54.8735C52.5601 55.118 52.529 55.3622 52.6262 55.5739C52.6754 55.6813 52.8026 55.7286 52.91 55.6793C53.0175 55.63 53.0647 55.5028 53.0154 55.3954Z" fill="black"/>
<path fill-rule="evenodd" clip-rule="evenodd" d="M54.1627 55.7805C54.3517 54.8903 54.8986 53.8964 55.4567 52.8752C56.0348 51.8176 56.6257 50.7322 56.8829 49.7036C57.2334 48.3015 58.1189 46.9274 58.5766 45.5544C60.2073 40.6622 62.5488 36.4282 64.1164 31.7251C64.6474 30.1323 65.1595 28.3497 65.884 26.9008C66.0528 26.5631 66.3263 26.1233 66.5184 25.6993C66.6596 25.3873 66.7558 25.0817 66.7558 24.8236C66.7558 24.7054 66.6599 24.6095 66.5417 24.6095C66.4235 24.6095 66.3275 24.7054 66.3275 24.8236C66.3275 25.0303 66.2415 25.2727 66.1282 25.5226C65.9386 25.9415 65.6677 26.3757 65.501 26.7093C64.768 28.1753 64.2474 29.9781 63.7102 31.5897C62.1425 36.2928 59.8011 40.5268 58.1704 45.419C57.7093 46.802 56.8205 48.1874 56.4675 49.5997C56.2183 50.5962 55.6409 51.6454 55.0809 52.6699C54.501 53.7309 53.9401 54.7667 53.7438 55.6916C53.7193 55.8072 53.7932 55.921 53.9088 55.9456C54.0245 55.9701 54.1382 55.8962 54.1627 55.7805Z" fill="black"/>
<path fill-rule="evenodd" clip-rule="evenodd" d="M64.6808 26.2223C64.6839 26.2209 64.6921 26.2173 64.6974 26.216C64.7111 26.2123 64.726 26.2105 64.7419 26.2096C64.8234 26.2051 64.9215 26.2253 65.0234 26.2582C65.2279 26.3241 65.4454 26.4434 65.586 26.5719C65.6172 26.6003 65.6443 26.629 65.665 26.6577C65.6774 26.6748 65.6917 26.688 65.6917 26.7036C65.6917 26.8218 65.7877 26.9177 65.9059 26.9177C66.024 26.9177 66.12 26.8218 66.12 26.7036C66.12 26.5937 66.0693 26.4677 65.9646 26.3472C65.7937 26.1505 65.4645 25.9504 65.1546 25.8506C64.9603 25.7879 64.773 25.766 64.6313 25.7923C64.4894 25.8185 64.3824 25.8888 64.3172 25.9963C64.2558 26.0973 64.288 26.229 64.389 26.2904C64.4887 26.3511 64.6186 26.3204 64.6808 26.2223Z" fill="black"/>
<path fill-rule="evenodd" clip-rule="evenodd" d="M64.5049 26.897C64.5831 26.8616 64.6376 26.8934 64.6955 26.9155C64.7902 26.9516 64.8886 26.9855 65.008 26.9855C65.1261 26.9855 65.2221 26.8896 65.2221 26.7714C65.2221 26.6532 65.1261 26.5573 65.008 26.5573C64.9216 26.5573 64.8567 26.5171 64.7885 26.4934C64.6522 26.446 64.5131 26.4233 64.3285 26.5068C64.2208 26.5554 64.1729 26.6824 64.2215 26.7901C64.2702 26.8978 64.3971 26.9457 64.5049 26.897Z" fill="black"/>
<path fill-rule="evenodd" clip-rule="evenodd" d="M52.8825 57.2032C52.9219 57.2269 52.9584 57.2606 52.9881 57.2903C53.0716 57.3738 53.2073 57.3738 53.2909 57.2903C53.3744 57.2067 53.3744 57.0711 53.2909 56.9875C53.1924 56.8889 53.0477 56.7883 52.9107 56.7579C52.8777 56.7505 52.8002 56.7489 52.7439 56.7657C52.6899 56.7817 52.649 56.8117 52.6235 56.841C52.5842 56.8861 52.5657 56.9386 52.5674 56.9967C52.5686 57.0417 52.5801 57.1035 52.6456 57.1651C52.7112 57.2267 52.8055 57.239 52.8825 57.2032ZM52.9563 56.8715L52.9606 56.8767L52.9593 56.875L52.9563 56.8715ZM52.9482 56.8624L52.9522 56.8667L52.9498 56.864L52.9482 56.8624Z" fill="black"/>
<path fill-rule="evenodd" clip-rule="evenodd" d="M52.8848 55.7001C52.9149 55.6911 53.0025 55.6645 53.0207 55.6572C53.0757 55.6352 53.1278 55.6058 53.1787 55.5753C53.1805 55.5836 53.1826 55.591 53.1848 55.5974C53.2111 55.6744 53.259 55.7305 53.327 55.7646C53.4403 55.8213 53.5495 55.809 53.657 55.7567C53.6729 55.749 53.6938 55.7376 53.7147 55.7256C53.7138 55.7549 53.7132 55.784 53.7132 55.8024C53.7132 55.8089 53.7125 55.8353 53.7118 55.858C53.673 55.9377 53.6868 56.0367 53.753 56.1029C53.8327 56.1826 53.9131 56.1784 53.9762 56.1582C54.02 56.1443 54.0708 56.1147 54.1053 56.0494C54.1156 56.0299 54.1276 55.9991 54.1337 55.9599C54.1416 55.9101 54.1415 55.8232 54.1415 55.8024C54.1415 55.731 54.1539 55.6287 54.1382 55.5481C54.1238 55.4746 54.092 55.412 54.0443 55.3643C53.9655 55.2855 53.8864 55.2572 53.8122 55.251C53.7432 55.2452 53.6747 55.2609 53.6081 55.2928C53.5984 55.2974 53.5868 55.3035 53.5746 55.3103C53.5682 55.2821 53.5594 55.2565 53.5484 55.2341C53.5234 55.1832 53.4872 55.144 53.4405 55.1166C53.388 55.086 53.3154 55.0639 53.2103 55.0902C53.0884 55.1207 52.9837 55.2108 52.8616 55.2596C52.832 55.2715 52.7018 55.3097 52.677 55.3242C52.5573 55.3943 52.563 55.5013 52.5708 55.5481C52.5906 55.6646 52.7012 55.7431 52.8177 55.7234C52.8419 55.7193 52.8644 55.7114 52.8848 55.7001ZM53.9207 55.7381C53.97 55.7418 54.0181 55.7625 54.0558 55.8001C54.0098 55.7541 53.9634 55.7387 53.9207 55.7381Z" fill="black"/>
<path fill-rule="evenodd" clip-rule="evenodd" d="M40.3575 6.47954C40.4297 6.46947 40.6341 6.4409 40.6742 6.43418C41.0859 6.3656 41.6137 6.37039 42.0016 6.2411C43.1854 5.84651 44.5445 5.91654 45.7646 5.6115C47.2684 5.23555 48.8453 5.28104 50.3527 4.97957C50.7659 4.89693 51.2247 4.97319 51.631 4.87158C52.9244 4.54825 54.8113 4.44506 55.9491 5.01396C56.4882 5.28351 56.8274 5.82603 57.0865 6.43295C57.3643 7.08352 57.5463 7.81055 57.7444 8.40473C57.8662 8.76993 57.883 9.16397 58.0087 9.54102C58.0191 9.57226 58.0272 9.67613 58.0299 9.71464C58.0261 9.73047 58.0241 9.74698 58.0241 9.76397C58.0241 9.8821 58.12 9.97809 58.2382 9.97809C58.3028 9.97809 58.412 9.9552 58.4496 9.81221C58.4554 9.79015 58.4611 9.74143 58.4579 9.68031C58.453 9.59076 58.4331 9.46003 58.4149 9.40556C58.2893 9.02858 58.2724 8.63454 58.1506 8.26927C57.9078 7.54053 57.6853 6.61719 57.2927 5.86693C57.0127 5.33181 56.6461 4.88371 56.1406 4.63095C54.9248 4.023 52.9093 4.11063 51.5271 4.45616C51.1272 4.55613 50.6754 4.47829 50.2687 4.55962C48.7547 4.8624 47.1711 4.81848 45.6607 5.19608C44.4302 5.50372 43.06 5.43692 41.8661 5.83486C41.4976 5.95771 40.995 5.94655 40.6038 6.01177C40.5522 6.02041 40.3414 6.0385 40.2348 6.06577C40.1667 6.0831 40.1192 6.11112 40.095 6.13189C40.0027 6.21102 39.9958 6.30236 40.031 6.38882C40.0756 6.49825 40.2007 6.55087 40.3102 6.50619C40.3274 6.49921 40.3432 6.49016 40.3575 6.47954ZM58.1114 9.59152C58.1469 9.56534 58.1907 9.54986 58.2382 9.54986C58.1942 9.54986 58.1505 9.56123 58.1114 9.59152ZM40.4431 6.32003C40.4456 6.28947 40.4404 6.2585 40.4276 6.22712C40.44 6.25755 40.4449 6.28927 40.4431 6.32003Z" fill="black"/>
<path fill-rule="evenodd" clip-rule="evenodd" d="M57.9281 9.1271C58.6456 12.8899 58.5306 17.2259 59.8023 21.0411C59.9153 21.3801 59.938 21.7545 59.9635 22.1296C59.9915 22.5415 60.0224 22.9542 60.148 23.3312C60.8718 25.5025 61.7358 29.6369 61.7358 31.9486C61.7358 32.0667 61.8317 32.1627 61.9499 32.1627C62.068 32.1627 62.164 32.0667 62.164 31.9486C62.164 29.6007 61.2894 25.4011 60.5543 23.1958C60.4398 22.8524 60.4163 22.4757 60.3908 22.1005C60.3627 21.6885 60.3327 21.2781 60.2086 20.9057C58.9428 17.1084 59.0628 12.792 58.3488 9.04687C58.3266 8.9308 58.2145 8.85447 58.0983 8.87667C57.9823 8.8988 57.906 9.01097 57.9281 9.1271Z" fill="black"/>
<path fill-rule="evenodd" clip-rule="evenodd" d="M29.114 7.57574C29.0963 7.52387 29.119 7.46365 29.1254 7.405C29.1353 7.31298 29.1341 7.22329 29.1073 7.14271C29.0415 6.94559 29.0378 6.80047 29.0974 6.68913C29.1975 6.50228 29.435 6.41828 29.6946 6.33332C30.0237 6.22561 30.394 6.13723 30.6881 5.98532C30.9202 5.86549 31.1076 5.7068 31.2172 5.48768C31.4741 4.97387 31.3677 4.44417 31.2269 3.9046C31.1098 3.45574 30.9651 2.99956 31.1186 2.53912C31.2908 2.0225 31.4483 1.61723 31.7549 1.15741C31.9267 0.899716 32.3193 0.711842 32.7639 0.585839C33.461 0.388236 34.2979 0.351785 34.7322 0.568915C35.2425 0.824073 35.6132 1.13185 35.8763 1.65792C36.0648 2.03491 36.1184 2.50322 36.2058 2.9529C36.3055 3.4654 36.4484 3.95379 36.798 4.3035C37.1483 4.65376 37.5936 4.64307 38.0552 4.57079C38.2441 4.54119 38.4354 4.50316 38.6199 4.4935C38.7738 4.48542 38.9227 4.49645 39.0578 4.56401C39.3228 4.69652 39.4257 4.92708 39.5408 5.15709C39.8027 5.68104 39.7976 6.39272 39.7998 7.09927C39.8021 7.87639 39.8121 8.64803 40.0918 9.20727C40.1289 9.28154 40.1355 9.3652 40.137 9.45009C40.139 9.56739 40.1286 9.68744 40.1303 9.80083C40.1332 9.98637 40.1691 10.1562 40.2772 10.2937C40.3519 10.3886 40.4615 10.4712 40.6289 10.527C41.8549 10.9357 43.4122 10.5368 44.9144 10.274C46.3072 10.0303 47.6543 9.8973 48.5905 10.8335C48.8167 11.0596 49.2135 11.3559 49.4942 11.6757C49.645 11.8474 49.7677 12.0207 49.7677 12.1974C49.7677 12.3156 49.8636 12.4115 49.9818 12.4115C50.0999 12.4115 50.1959 12.3156 50.1959 12.1974C50.1959 11.9306 50.0438 11.6525 49.816 11.3931C49.529 11.0662 49.1246 10.7619 48.8933 10.5306C47.8588 9.49614 46.3798 9.58288 44.8406 9.85215C43.4111 10.1022 41.931 10.5096 40.7643 10.1207C40.5284 10.0421 40.5542 9.85277 40.5606 9.66606C40.5683 9.44249 40.5726 9.21138 40.4748 9.01576C40.2207 8.50764 40.2302 7.80404 40.228 7.0979C40.2255 6.32119 40.2117 5.54154 39.9238 4.96558C39.7682 4.65445 39.6078 4.36017 39.2494 4.181C38.874 3.99333 38.4263 4.07925 37.9891 4.1477C37.6657 4.19833 37.3462 4.24602 37.1009 4.00073C36.8104 3.71015 36.709 3.29699 36.6262 2.87116C36.5311 2.38256 36.4641 1.87601 36.2593 1.46642C35.9511 0.850109 35.5215 0.484845 34.9237 0.185905C34.4214 -0.0652097 33.4534 -0.0547265 32.6471 0.173846C32.0895 0.331915 31.614 0.596665 31.3985 0.919928C31.0691 1.414 30.8974 1.84847 30.7123 2.40366C30.5317 2.94557 30.6747 3.48438 30.8126 4.01265C30.9267 4.4502 31.0425 4.87953 30.8342 5.29618C30.7444 5.47576 30.5639 5.58046 30.3592 5.66617C30.1093 5.7708 29.8215 5.84123 29.5614 5.92633C29.1839 6.04987 28.8655 6.21513 28.7199 6.48687C28.6159 6.68111 28.5863 6.93422 28.701 7.2781C28.7183 7.32997 28.6952 7.39047 28.6889 7.44981C28.6791 7.54223 28.6809 7.63261 28.7088 7.71421C28.747 7.82603 28.8687 7.88578 28.9806 7.84762C29.0925 7.80938 29.1522 7.68756 29.114 7.57574Z" fill="black"/>
<path fill-rule="evenodd" clip-rule="evenodd" d="M29.1845 8.81583C28.9928 8.83351 28.334 8.89812 28.126 8.96746C27.9389 9.02981 27.7826 9.16253 27.6547 9.32855C27.4944 9.53656 27.379 9.79768 27.2859 9.98405C27.2533 10.0491 27.1953 10.0926 27.1304 10.1341C27.0347 10.195 26.9231 10.2469 26.8127 10.3079C26.5362 10.4602 26.2708 10.6618 26.1675 11.0749C26.1385 11.1907 26.0312 11.5622 26.0326 11.8179C26.0337 12.0075 26.1025 12.1483 26.2014 12.2142C26.4648 12.3898 26.7581 12.3858 27.0567 12.3249C27.2841 12.2785 27.5136 12.195 27.7253 12.195C27.8434 12.195 27.9394 12.0991 27.9394 11.9809C27.9394 11.8628 27.8434 11.7668 27.7253 11.7668C27.487 11.7668 27.2271 11.8531 26.9711 11.9053C26.7969 11.9409 26.6236 11.9638 26.4677 11.8756C26.4652 11.8461 26.4606 11.778 26.4652 11.7295C26.4852 11.5177 26.5611 11.266 26.5829 11.1787C26.6674 10.8409 26.9302 10.7285 27.1522 10.6123C27.3755 10.4955 27.5703 10.3726 27.6689 10.1756C27.7392 10.0349 27.8215 9.84626 27.9313 9.67839C28.0186 9.54492 28.1207 9.42063 28.2614 9.3737C28.4672 9.30511 29.0106 9.27784 29.2434 9.24441C29.3749 9.2255 29.4537 9.17767 29.4748 9.1567C29.5836 9.04783 29.633 8.84434 29.6043 8.59754C29.5553 8.17602 29.3101 7.60548 29.233 7.47269C29.1736 7.37053 29.0424 7.3358 28.9403 7.39513C28.838 7.45454 28.8034 7.58568 28.8627 7.68791C28.9196 7.78568 29.0809 8.16026 29.1527 8.49319C29.1744 8.59356 29.1882 8.68962 29.185 8.77109C29.1843 8.78699 29.1852 8.80227 29.1845 8.81583Z" fill="black"/>
<path fill-rule="evenodd" clip-rule="evenodd" d="M27.5719 10.548C27.3788 10.5681 27.2616 10.6546 27.1929 10.7635C27.1282 10.8661 27.1061 10.999 27.1302 11.1445C27.1626 11.3403 27.2823 11.5649 27.4331 11.7266C27.5463 11.8478 27.6775 11.9325 27.7981 11.9626C27.9128 11.9913 28.0292 11.9215 28.0578 11.8069C28.0865 11.6922 28.0166 11.5758 27.902 11.5472C27.86 11.5367 27.8187 11.5045 27.7778 11.4662C27.6945 11.388 27.6207 11.278 27.5794 11.1692C27.563 11.1264 27.5516 11.084 27.5492 11.0444C27.5479 11.024 27.5425 11.0036 27.5558 10.9912C27.5689 10.9788 27.59 10.9766 27.6162 10.974C27.7337 10.9617 27.8192 10.8564 27.807 10.7388C27.7948 10.6213 27.6895 10.5358 27.5719 10.548Z" fill="black"/>
<path fill-rule="evenodd" clip-rule="evenodd" d="M29.4729 12.3053C29.3475 12.4176 29.1219 12.4809 28.8742 12.5339C28.4164 12.6317 27.8821 12.6687 27.5869 12.7277C26.461 12.953 25.3011 13.3242 24.2156 13.7583C23.9663 13.8581 23.717 13.9055 23.4721 13.968C23.1955 14.0386 22.9244 14.1269 22.661 14.3025C22.3262 14.5256 22.1619 14.6457 22.0594 14.7597C21.9052 14.9315 21.8865 15.0925 21.6688 15.6004C21.6154 15.7251 21.5901 15.8895 21.4502 16.178C21.3986 16.2843 21.4431 16.4125 21.5494 16.464C21.6557 16.5156 21.7839 16.4712 21.8355 16.3648C21.98 16.067 22.0073 15.8978 22.0625 15.7691C22.1646 15.5308 22.218 15.3729 22.2638 15.2544C22.298 15.1662 22.3241 15.1059 22.3781 15.0458C22.466 14.9479 22.6112 14.8503 22.8985 14.6588C23.1186 14.5121 23.3468 14.4419 23.5779 14.383C23.8406 14.316 24.1073 14.2629 24.3746 14.1559C25.436 13.7314 26.5699 13.3678 27.6709 13.1477C27.9673 13.0883 28.5039 13.0509 28.9636 12.9527C29.3167 12.8772 29.6256 12.7593 29.7917 12.5932C29.8361 12.5487 29.8907 12.4403 29.9217 12.2811C30.0021 11.8674 30.0197 10.9949 30.0197 10.761C30.0197 10.6429 29.9238 10.5469 29.8056 10.5469C29.6874 10.5469 29.5915 10.6429 29.5915 10.761C29.5915 10.956 29.58 11.6171 29.5256 12.0434C29.5123 12.1473 29.481 12.2736 29.4729 12.3053Z" fill="black"/>
<path fill-rule="evenodd" clip-rule="evenodd" d="M21.8621 16.2835C21.7635 16.2587 21.6582 16.3073 21.615 16.4032C21.5665 16.511 21.6145 16.6378 21.7222 16.6864C21.7563 16.7017 21.8123 16.7148 21.8838 16.7119C22.0077 16.7069 22.2314 16.6524 22.3096 16.6368C22.7505 16.5486 23.1969 16.4687 23.6414 16.3946C25.409 16.1001 27.2051 15.823 28.9912 15.5679C33.5295 14.9195 38.0667 13.9105 42.639 13.4025C44.414 13.2053 46.1966 12.6493 47.9943 12.6493C48.1125 12.6493 48.2084 12.5533 48.2084 12.4351C48.2084 12.317 48.1125 12.221 47.9943 12.221C46.1809 12.221 44.3822 12.7779 42.5917 12.9769C38.015 13.4854 33.4734 14.495 28.9307 15.144C27.1413 15.3995 25.3419 15.6771 23.5711 15.9722C23.122 16.0471 22.671 16.1278 22.2256 16.2169C22.1609 16.2298 21.898 16.277 21.8621 16.2835Z" fill="black"/>
<path fill-rule="evenodd" clip-rule="evenodd" d="M15.4478 15.58C15.5531 15.8035 15.5794 16.0519 15.6004 16.2992C15.6259 16.5995 15.6429 16.8989 15.732 17.1664C16.0258 18.0478 16.0242 19.0298 16.0269 20.0126C16.0296 21.042 16.0367 22.0722 16.3461 23.0003C17.0787 25.1981 17.0597 27.6997 17.6209 29.9443C18.8022 34.6696 19.5738 39.5165 20.3808 44.3588C20.8216 47.0032 21.8855 49.549 22.3255 52.1885C22.6203 53.9574 22.8969 55.7626 23.2478 57.5175C23.7119 59.8378 23.4 62.3207 23.862 64.6307C23.9192 64.917 24.0254 67.4615 24.1349 68.5364C24.1592 68.7741 24.186 68.9464 24.21 69.0212C24.23 69.0838 24.2588 69.1213 24.2788 69.1412C24.4034 69.2658 24.5908 69.3101 24.8108 69.2808C25.1554 69.2348 25.6029 68.994 25.8126 68.9416C27.3201 68.5647 29.063 68.1839 30.6436 68.0258C36.8582 67.4043 42.987 66.2407 49.1266 65.3636C52.7535 64.8455 56.2384 64.2722 59.827 63.6741C60.4978 63.5623 62.4788 63.2251 63.8172 62.823C64.4319 62.6384 64.9149 62.4295 65.1118 62.2326C65.1954 62.149 65.1954 62.0133 65.1118 61.9298C65.0283 61.8462 64.8926 61.8462 64.809 61.9298C64.6409 62.0979 64.219 62.2551 63.694 62.4129C62.3734 62.8096 60.4185 63.1413 59.7566 63.2517C56.1713 63.8493 52.6895 64.4221 49.066 64.9397C42.9324 65.8159 36.8096 66.9788 30.601 67.5997C29.0003 67.7597 27.2353 68.1445 25.7087 68.5262C25.5328 68.5702 25.1864 68.7518 24.8785 68.8313C24.7996 68.8516 24.7243 68.8651 24.6579 68.8611C24.6415 68.8602 24.6256 68.859 24.6115 68.8549C24.6002 68.7882 24.5758 68.6383 24.561 68.4931C24.4503 67.4068 24.3397 64.836 24.2818 64.5468C23.8199 62.2367 24.1319 59.7539 23.6678 57.4335C23.3177 55.6831 23.042 53.8824 22.7479 52.1181C22.3079 49.4786 21.2439 46.9327 20.8032 44.2884C19.9943 39.4348 19.2204 34.5767 18.0363 29.8404C17.4726 27.5855 17.4884 25.0729 16.7524 22.8649C16.457 21.9787 16.4577 20.9943 16.4551 20.0114C16.4523 18.982 16.446 17.9542 16.1382 17.031C16.0594 16.7943 16.0497 16.5286 16.027 16.2629C16.0007 15.9529 15.9586 15.6434 15.8196 15.3653C15.807 15.3401 15.7828 15.3052 15.7428 15.2679C15.7026 15.2305 15.635 15.1798 15.5581 15.1226C15.5038 15.0822 15.4442 15.0377 15.3891 14.9919C15.4956 14.9996 15.5937 15.0099 15.6281 15.0099C16.3016 15.0099 17.0586 14.8304 17.7171 14.6987C20.1091 14.2203 22.7421 13.3938 25.0694 13.3188C25.1876 13.315 25.2804 13.2161 25.2766 13.0979C25.2728 12.9798 25.1738 12.887 25.0557 12.8908C22.7064 12.9665 20.0476 13.7959 17.6331 14.2788C17.0009 14.4052 16.2747 14.5817 15.6281 14.5817C15.5619 14.5817 15.2638 14.545 15.116 14.5606C15.015 14.5712 14.947 14.6112 14.9138 14.6444C14.7814 14.7768 14.7813 14.9537 14.927 15.1365C15.0505 15.2913 15.394 15.5413 15.4478 15.58Z" fill="black"/>
<path fill-rule="evenodd" clip-rule="evenodd" d="M56.1819 8.26283C56.193 8.29619 56.2133 8.36108 56.2237 8.41398C56.3027 8.81432 56.3267 9.50422 56.3578 9.66003C56.654 11.1405 56.6953 12.6996 57.0765 14.2246C57.9882 17.8712 58.4342 21.6285 59.1724 25.3195C59.7805 28.3594 60.55 31.6702 60.55 34.7448C60.55 34.863 60.646 34.9589 60.7642 34.9589C60.8823 34.9589 60.9783 34.863 60.9783 34.7448C60.9783 31.643 60.2058 28.3023 59.5924 25.2355C58.8528 21.5379 58.4053 17.774 57.492 14.1207C57.1124 12.6025 57.0725 11.05 56.7778 9.57609C56.7416 9.39507 56.7118 8.50545 56.6004 8.15615C56.5652 8.04577 56.5145 7.97136 56.469 7.93285C56.4157 7.8877 56.3576 7.86865 56.2984 7.86837C56.1802 7.86769 56.0837 7.96306 56.083 8.08126C56.0826 8.15745 56.1221 8.22459 56.1819 8.26283Z" fill="black"/>
<path fill-rule="evenodd" clip-rule="evenodd" d="M61.7016 38.1144C61.7349 38.0107 61.6846 37.8966 61.5825 37.8525C61.474 37.8058 61.3479 37.8559 61.3011 37.9644C61.2859 37.9997 61.2739 38.0497 61.2728 38.1134C61.2714 38.1922 61.2869 38.3085 61.3152 38.4442C61.3967 38.8347 61.5841 39.4137 61.6348 39.6165C62.0075 41.1075 62.0788 42.7232 62.4535 44.2222C63.096 46.7922 62.9945 50.1457 63.7887 52.5282C63.9214 52.9264 63.9278 53.3671 63.9298 53.8099C63.9321 54.2933 63.9286 54.7792 64.0399 55.2247C64.5867 57.4117 65.3641 59.8261 65.3641 62.0302C65.3641 62.1484 65.46 62.2443 65.5782 62.2443C65.6964 62.2443 65.7923 62.1484 65.7923 62.0302C65.7923 59.7928 65.0103 57.3407 64.4554 55.1209C64.3521 54.7076 64.3602 54.2563 64.358 53.8078C64.3557 53.3187 64.3415 52.8327 64.1949 52.3929C63.4038 50.0195 63.509 46.6784 62.869 44.1183C62.4942 42.6193 62.4229 41.0036 62.0502 39.5126C62.0002 39.3126 61.8148 38.7418 61.7344 38.3567C61.7142 38.26 61.7033 38.134 61.7016 38.1144Z" fill="black"/>
<path fill-rule="evenodd" clip-rule="evenodd" d="M20.5217 25.882C20.4849 25.8523 20.4381 25.8345 20.3872 25.8345C20.2691 25.8345 20.1731 25.9304 20.1731 26.0486C20.1731 26.64 20.1888 28.3159 20.4176 29.3784C20.4809 29.6723 20.5617 29.9218 20.6592 30.0973C20.7438 30.2497 20.8456 30.3532 20.9535 30.4071C21.0141 30.4374 21.1575 30.457 21.353 30.441C21.9221 30.3943 23.0864 30.1315 23.321 30.0729C23.7487 29.9659 24.2549 29.9816 24.6501 29.784C24.7102 29.754 24.7536 29.7041 24.7697 29.6285C24.7768 29.5954 24.7783 29.5452 24.7594 29.487C24.7397 29.4263 24.68 29.3262 24.6679 29.302C24.5817 29.1296 24.6127 28.8641 24.6127 28.6578C24.6127 28.2353 24.58 26.9808 24.4614 26.167C24.4233 25.905 24.3748 25.6861 24.3184 25.546C24.2828 25.4576 24.2405 25.3931 24.1994 25.3519C24.1763 25.3288 24.1353 25.2976 24.0664 25.285C24.0171 25.2759 23.9048 25.2767 23.7511 25.2922C23.1267 25.3553 21.6601 25.6226 21.5253 25.6419C21.2365 25.6831 20.9786 25.782 20.6957 25.8386C20.6708 25.8436 20.5937 25.8632 20.5217 25.882ZM23.9235 25.7076C23.4369 25.7314 21.7306 26.0451 21.5858 26.0658C21.3051 26.1059 21.0547 26.2035 20.7797 26.2585C20.7521 26.264 20.6738 26.2846 20.6023 26.3036C20.6075 27.0133 20.6408 28.3808 20.8362 29.2883C20.8809 29.4955 20.9334 29.6775 20.9978 29.8182C21.0394 29.909 21.0781 29.9823 21.1322 30.0167C21.1675 30.0163 21.3666 30.0128 21.5408 29.9891C22.1294 29.909 23.0181 29.7071 23.2172 29.6574C23.5524 29.5736 23.9413 29.5797 24.2756 29.4741C24.1733 29.2496 24.1844 28.9188 24.1844 28.6578C24.1844 28.2458 24.1532 27.0223 24.0377 26.2288C24.0098 26.0369 23.9774 25.8715 23.9382 25.7529C23.9328 25.7365 23.9281 25.7212 23.9235 25.7076Z" fill="black"/>
<path fill-rule="evenodd" clip-rule="evenodd" d="M21.5554 32.5354C21.5448 32.537 21.5342 32.5395 21.5237 32.5427C21.4874 32.554 21.4702 32.5617 21.4672 32.5632C21.4041 32.5939 21.3832 32.6351 21.3748 32.6497C21.3311 32.7262 21.3411 32.7937 21.3682 32.8494C21.3703 32.8537 21.4013 32.9166 21.4686 32.9499C21.4648 32.9725 21.4624 32.9986 21.4624 33.0283C21.4624 33.05 21.4656 33.0708 21.4716 33.0905C21.483 33.343 21.5013 33.9664 21.5013 34.1578C21.5013 35.051 21.4108 36.0914 21.7966 36.8628C21.8383 36.9462 21.9165 37.0147 22.0371 37.0511C22.1372 37.0814 22.2796 37.0898 22.4458 37.0765C22.9753 37.0341 23.7954 36.7797 23.9773 36.7433C24.4871 36.6414 25.0925 36.5527 25.6099 36.5527C25.6442 36.5527 25.8184 36.502 25.8857 36.4479C25.9598 36.3883 25.9798 36.3145 25.9798 36.2608C25.9798 35.3661 25.7851 34.1939 25.7851 33.1841C25.7851 33.0333 25.8038 32.5653 25.7458 32.2628C25.7059 32.0546 25.61 31.9127 25.511 31.8632C25.3806 31.798 25.0973 31.7904 24.7504 31.8422C24.0752 31.9429 23.1117 32.2216 22.8097 32.2719C22.515 32.321 22.2236 32.3593 21.9362 32.4312C21.853 32.452 21.6449 32.5102 21.5554 32.5354ZM25.2935 32.2382C25.2733 32.2343 25.2485 32.2337 25.2203 32.2326C25.1118 32.2284 24.9714 32.2422 24.8135 32.2657C24.1408 32.3661 23.181 32.6442 22.88 32.6943C22.5967 32.7415 22.3164 32.7775 22.04 32.8466C22.0013 32.8563 21.9406 32.8728 21.877 32.8905C21.8849 32.9117 21.8918 32.9389 21.8941 32.9724C21.9042 33.1132 21.9296 33.931 21.9296 34.1578C21.9296 34.9746 21.8247 35.9265 22.164 36.6393C22.2027 36.644 22.3205 36.6569 22.4117 36.6496C22.9242 36.6086 23.7173 36.3586 23.8933 36.3234C24.4098 36.2201 25.0196 36.1312 25.5501 36.1249C25.5326 35.2495 25.3569 34.1436 25.3569 33.1841C25.3569 33.0644 25.3719 32.7287 25.3421 32.4588C25.3333 32.3786 25.3047 32.2762 25.2935 32.2382Z" fill="black"/>
<path fill-rule="evenodd" clip-rule="evenodd" d="M22.3385 39.6417C22.2965 39.8787 22.3292 40.4092 22.3651 40.5529C22.5435 41.2663 22.6482 41.9694 22.7934 42.6957C22.8211 42.8339 22.8188 43.0749 22.8671 43.2733C22.9153 43.471 23.0132 43.63 23.166 43.7064C23.2442 43.7454 23.3599 43.7646 23.4916 43.7591C23.7204 43.7496 24.0096 43.6731 24.1332 43.6319C24.6809 43.4493 25.4233 43.3813 26.0019 43.2655C26.143 43.2373 26.6858 43.2307 27.0318 43.1631C27.1683 43.1364 27.2798 43.0977 27.3485 43.0537C27.4089 43.015 27.4484 42.9685 27.4718 42.9217C27.5085 42.8483 27.5234 42.7227 27.5043 42.5746C27.4745 42.3438 27.3748 42.034 27.3445 41.9129C27.1931 41.3072 27.2582 40.4908 27.1723 39.7745C27.1082 39.2397 26.9602 38.7587 26.628 38.4265C26.6 38.3986 26.5578 38.3701 26.4964 38.3538C26.4451 38.3403 26.3634 38.3338 26.2605 38.339C25.8274 38.361 24.8892 38.5736 24.7698 38.5975C24.1867 38.7141 23.6384 38.916 23.0663 39.059C22.9624 39.085 22.5932 39.1384 22.4374 39.2267C22.331 39.2869 22.281 39.3708 22.2686 39.4463C22.2562 39.5218 22.285 39.5945 22.3385 39.6417ZM26.3596 38.7653C26.0298 38.7447 24.9772 38.9927 24.8538 39.0174C24.2775 39.1327 23.7357 39.3331 23.1702 39.4744C23.1197 39.4871 22.9474 39.5282 22.8145 39.5599C22.8153 39.5673 22.8157 39.5748 22.8157 39.5825C22.8157 39.6391 22.7937 39.6907 22.7575 39.729C22.7242 39.9153 22.7522 40.3354 22.7806 40.4491C22.9606 41.1691 23.0668 41.8787 23.2134 42.6117C23.2365 42.7271 23.2387 42.9141 23.2666 43.0883C23.277 43.153 23.2907 43.2157 23.3153 43.2679C23.3261 43.2907 23.3366 43.3129 23.3575 43.3234C23.401 43.3451 23.4737 43.3338 23.551 43.3252C23.7221 43.3062 23.9101 43.2548 23.9978 43.2257C24.5607 43.038 25.3232 42.9646 25.9179 42.8457C26.0593 42.8174 26.6031 42.8105 26.9497 42.7428C26.9939 42.7342 27.0477 42.7172 27.0823 42.7055C27.0801 42.6635 27.0752 42.5941 27.0655 42.5429C27.0273 42.3427 26.9535 42.1146 26.9291 42.0168C26.7985 41.4947 26.8188 40.8217 26.7787 40.183C26.7442 39.6337 26.6721 39.1084 26.3596 38.7653ZM22.6148 39.7962H22.6141H22.6148Z" fill="black"/>
<path fill-rule="evenodd" clip-rule="evenodd" d="M24.1103 45.7371C24.0836 45.7129 24.0503 45.6951 24.0126 45.687C23.9629 45.6762 23.8997 45.6805 23.8373 45.7048C23.7748 45.729 23.6988 45.7841 23.6988 45.7841L23.7223 45.8549C23.6684 45.8632 23.6183 45.8904 23.5779 45.945C23.5584 45.9715 23.536 46.0163 23.527 46.0774C23.5159 46.1523 23.5243 46.2917 23.5243 46.331C23.5243 46.6007 23.6346 46.8522 23.6346 47.1252C23.6346 47.6947 23.6191 48.4712 23.747 49.143C23.8393 49.6283 24.0091 50.0595 24.293 50.3435C24.3273 50.3777 24.3727 50.4057 24.4311 50.4217C24.4957 50.4396 24.5883 50.4418 24.6946 50.4247C24.9388 50.3856 25.288 50.2469 25.3726 50.2187C26.054 49.9916 26.8347 49.9942 27.5532 49.8505C27.7413 49.8129 28.0069 49.816 28.2333 49.78C28.4366 49.7476 28.6118 49.6812 28.7217 49.5713C28.7544 49.5386 28.7942 49.473 28.7975 49.375C28.8017 49.2531 28.7469 49.0077 28.7293 48.955C28.6105 48.5984 28.6242 48.1757 28.5609 47.7961C28.4655 47.2235 28.4676 46.6351 28.3852 46.058C28.3579 45.8674 28.3417 45.642 28.269 45.4581C28.2049 45.2962 28.1019 45.1623 27.938 45.0804C27.8513 45.037 27.7333 45.0236 27.6013 45.0413C27.4029 45.0679 27.1587 45.1682 27.028 45.1943C26.3858 45.3227 25.7434 45.3883 25.0985 45.5496C24.7998 45.6242 24.4979 45.6585 24.1994 45.7248C24.1743 45.7304 24.1434 45.7344 24.1103 45.7371ZM28.3617 49.309C28.3507 49.2375 28.331 49.1142 28.3231 49.0904C28.1974 48.7135 28.2054 48.2677 28.1385 47.8665C28.0425 47.2907 28.0442 46.699 27.9612 46.1185C27.9416 45.9814 27.9321 45.8227 27.8927 45.6818C27.8675 45.5915 27.8324 45.5064 27.7465 45.4634C27.7323 45.4564 27.7134 45.4608 27.6929 45.4622C27.6603 45.4644 27.6255 45.4703 27.5897 45.478C27.4142 45.5159 27.2222 45.5922 27.112 45.6142C26.4764 45.7413 25.8406 45.8054 25.2024 45.965C24.9001 46.0406 24.5945 46.0757 24.2923 46.1428C24.2025 46.1628 24.0566 46.1687 23.9508 46.17C23.9514 46.2175 23.9525 46.3095 23.9525 46.331C23.9525 46.6007 24.0628 46.8522 24.0628 47.1252C24.0628 47.672 24.0449 48.4179 24.1677 49.0629C24.2388 49.4366 24.3541 49.7763 24.5632 50.0063C24.5976 50.0031 24.666 49.9957 24.7155 49.9838C24.9255 49.9335 25.1705 49.8347 25.2372 49.8125C25.9349 49.5798 26.7335 49.5777 27.4693 49.4305C27.6332 49.3977 27.8534 49.3931 28.0594 49.3709C28.1728 49.3588 28.2832 49.3488 28.3617 49.309ZM23.8473 46.2619C23.8207 46.2738 23.7914 46.2803 23.7605 46.2803C23.7907 46.2803 23.82 46.2748 23.8473 46.2619Z" fill="black"/>
<path fill-rule="evenodd" clip-rule="evenodd" d="M28.6471 51.9621C28.2011 51.9644 27.7401 52.1032 27.2923 52.148C26.6787 52.2093 26.0809 52.3152 25.4727 52.4369C25.4269 52.446 25.1993 52.4757 25.0354 52.5102C24.9377 52.5309 24.8576 52.5572 24.8193 52.5786C24.7268 52.6305 24.7011 52.7054 24.6948 52.7559C24.6875 52.8145 24.7047 52.8705 24.7383 52.9137C24.7327 52.9328 24.729 52.9557 24.729 52.9831C24.729 53.0249 24.741 53.064 24.7618 53.0969C24.7782 53.1576 24.8131 53.292 24.8131 53.3361C24.8131 53.6317 24.8803 53.9138 24.8803 54.2104C24.8803 54.8615 24.9938 55.5726 25.1198 56.2026C25.1465 56.3359 25.1508 56.5732 25.1934 56.7464C25.2222 56.8639 25.2704 56.9588 25.3297 57.0181C25.3973 57.0857 25.507 57.1351 25.6418 57.1532C25.8615 57.1827 26.1597 57.1352 26.3054 57.0866C26.5209 57.0148 26.7881 57.0052 27.0194 56.959C27.6047 56.8419 28.1834 56.6558 28.7779 56.5567C29.0298 56.5147 29.2896 56.4799 29.5343 56.4187C29.5902 56.4047 29.6933 56.4036 29.7654 56.3764C29.8476 56.3453 29.9082 56.2922 29.9429 56.2227C29.9819 56.1448 29.9959 56.0382 29.9822 55.9192C29.9624 55.746 29.8814 55.5338 29.8605 55.4293C29.7052 54.6529 29.5925 53.8526 29.4931 53.0573C29.4705 52.8769 29.4781 52.7037 29.4581 52.5426C29.4324 52.3353 29.3675 52.145 29.1967 51.9742C29.1571 51.9346 29.0886 51.8975 28.9916 51.8976C28.9003 51.8978 28.673 51.9554 28.6471 51.9621ZM28.9433 52.3352C28.9053 52.3426 28.854 52.3529 28.8215 52.3611C28.7496 52.3792 28.6878 52.3902 28.6586 52.3902C28.2229 52.3902 27.7727 52.5303 27.3349 52.5741C26.7352 52.634 26.1511 52.7379 25.5567 52.8568C25.5173 52.8647 25.3439 52.8877 25.1916 52.9159C25.1803 52.918 25.1685 52.9204 25.1564 52.9231C25.1862 53.0128 25.2413 53.2512 25.2413 53.3361C25.2413 53.6317 25.3085 53.9138 25.3085 54.2104C25.3085 54.8341 25.4191 55.5151 25.5398 56.1185C25.5625 56.2323 25.5686 56.4219 25.5965 56.5823C25.6022 56.6152 25.6088 56.6464 25.6175 56.6745C25.6219 56.6884 25.6233 56.7021 25.6293 56.7112C25.6363 56.7139 25.6554 56.7208 25.668 56.7235C25.6969 56.7296 25.729 56.7327 25.7624 56.7339C25.9091 56.7395 26.0799 56.7104 26.1699 56.6804C26.4012 56.6032 26.6872 56.5886 26.9354 56.539C27.5252 56.4211 28.1085 56.2341 28.7075 56.1343C28.9482 56.0942 29.1967 56.0618 29.4305 56.0033C29.4562 55.9969 29.5142 55.9886 29.5582 55.9829C29.5547 55.9398 29.5449 55.8929 29.5333 55.8461C29.501 55.716 29.4554 55.5874 29.4406 55.5133C29.2833 54.7268 29.1689 53.9161 29.0682 53.1105C29.0496 52.9618 29.0505 52.8181 29.0412 52.6816C29.0328 52.5577 29.0179 52.4398 28.9433 52.3352ZM25.1098 53.1173C25.135 53.09 25.1572 53.0481 25.1572 52.9831C25.1572 53.0339 25.1395 53.0806 25.1098 53.1173ZM25.1137 52.8418C25.1168 52.8298 25.1185 52.8185 25.1198 52.8087C25.1184 52.8198 25.1161 52.8306 25.1132 52.8411L25.1137 52.8418Z" fill="black"/>
<path fill-rule="evenodd" clip-rule="evenodd" d="M25.9619 59.6834C26.6979 59.5069 27.4557 59.4092 28.207 59.3257C28.7903 59.2609 29.3981 59.0223 29.9718 59.0223C30.0899 59.0223 30.1859 58.9264 30.1859 58.8082C30.1859 58.69 30.0899 58.5941 29.9718 58.5941C29.3831 58.5941 28.7584 58.8335 28.1598 58.9001C27.3908 58.9855 26.6154 59.0863 25.862 59.267C25.7471 59.2946 25.6761 59.4103 25.7037 59.5252C25.7312 59.6401 25.8469 59.711 25.9619 59.6834Z" fill="black"/>
<path fill-rule="evenodd" clip-rule="evenodd" d="M29.8629 59.062C29.8711 59.106 29.9112 59.3207 29.9112 59.374C29.9112 59.6451 29.9637 60.0048 30.0387 60.2674C30.1761 60.7483 30.2033 61.2634 30.2851 61.7539C30.3136 61.9254 30.3766 62.131 30.4178 62.3383C30.4509 62.5051 30.4735 62.6732 30.4256 62.8167C30.417 62.8424 30.3941 62.8545 30.3698 62.8656C30.3319 62.8829 30.2878 62.8934 30.2415 62.9015C30.0794 62.9299 29.8949 62.9288 29.759 62.9514C28.8567 63.1018 27.9442 63.2915 27.0433 63.4416C26.9515 63.4569 26.7629 63.4941 26.6693 63.4629C26.6021 63.4405 26.5644 63.3851 26.5365 63.3202C26.5079 63.2537 26.4906 63.177 26.4781 63.0968C26.4396 62.8489 26.4465 62.5722 26.4154 62.3856C26.3366 61.9124 26.3643 61.419 26.3111 60.94C26.2744 60.6099 26.241 60.2677 26.1757 59.9414C26.1723 59.9242 26.1586 59.8499 26.1464 59.7835C26.1709 59.7352 26.177 59.6776 26.1594 59.6222C26.1546 59.6079 26.1261 59.5224 26.1126 59.501C26.0908 59.4667 26.0657 59.4459 26.0461 59.4331C26.0012 59.4037 25.9562 59.3956 25.9148 59.3981C25.8667 59.4009 25.8182 59.4175 25.7746 59.461C25.7392 59.4965 25.7014 59.5616 25.698 59.6559C25.6939 59.7663 25.747 59.9811 25.7558 60.0253C25.8187 60.3397 25.8502 60.6694 25.8854 60.9873C25.9395 61.474 25.9129 61.9752 25.993 62.456C26.031 62.6841 26.0149 63.0443 26.0885 63.3273C26.156 63.5876 26.2939 63.7892 26.534 63.8691C26.6787 63.9174 26.9716 63.8877 27.1137 63.864C28.0145 63.7139 28.9271 63.5242 29.8293 63.3738C29.9997 63.3455 30.2426 63.3505 30.431 63.2974C30.6252 63.2426 30.7713 63.1338 30.8319 62.9522C30.8889 62.7811 30.8899 62.5868 30.861 62.3885C30.825 62.1418 30.7416 61.8882 30.7075 61.6835C30.6231 61.1772 30.5923 60.6461 30.4505 60.1497C30.3853 59.9218 30.3395 59.6094 30.3395 59.374C30.3395 59.2816 30.282 58.9552 30.2634 58.9058C30.223 58.7983 30.1412 58.7759 30.1144 58.7689C30.0628 58.7553 30.0137 58.7606 29.9671 58.7829C29.934 58.7987 29.8951 58.8258 29.8676 58.8808C29.8381 58.9397 29.8385 59.0059 29.8629 59.062ZM26.1594 59.6222L26.1601 59.6242C26.1601 59.6242 26.1584 59.619 26.1579 59.6176L26.1594 59.6222ZM29.9767 59.1741C30.018 59.1928 30.0582 59.1948 30.0957 59.1875C30.0567 59.1944 30.0154 59.1904 29.9767 59.1741ZM30.1534 59.1687L30.1521 59.1693L30.1534 59.1687ZM30.2452 59.0823C30.2238 59.1201 30.1924 59.1491 30.1558 59.1676C30.1871 59.1526 30.2201 59.1275 30.2452 59.0823Z" fill="black"/>
<path fill-rule="evenodd" clip-rule="evenodd" d="M29.5572 9.05083C29.6069 8.98683 29.6179 8.89714 29.5781 8.82054C29.5235 8.71578 29.394 8.67501 29.2892 8.72962C29.2175 8.76696 29.1482 8.85103 29.1328 8.98916C29.1089 9.20499 29.2267 9.65809 29.2504 9.7214C29.4205 10.1751 29.348 10.7302 29.3327 11.2276C29.3207 11.6168 29.3426 11.9749 29.4798 12.2493C29.5327 12.3549 29.6614 12.3979 29.7671 12.345C29.8728 12.2922 29.9157 12.1634 29.8628 12.0578C29.7226 11.7772 29.7526 11.3871 29.7716 10.9775C29.7937 10.4983 29.8106 9.99561 29.6514 9.57101C29.6345 9.52613 29.5464 9.21362 29.5572 9.05083Z" fill="black"/>
<path fill-rule="evenodd" clip-rule="evenodd" d="M31.5342 12.4014C31.7398 12.2959 32.0348 12.2827 32.3345 12.2822C32.6787 12.2817 33.0297 12.3039 33.293 12.2775C34.4125 12.1656 35.5662 11.9113 36.6574 11.6385C36.7721 11.6098 36.8419 11.4935 36.8132 11.3789C36.7845 11.2642 36.6682 11.1944 36.5536 11.2231C35.4822 11.491 34.3495 11.7415 33.2504 11.8514C32.9449 11.882 32.5173 11.8428 32.1255 11.8578C31.8269 11.8692 31.5475 11.9132 31.3387 12.0204C31.2336 12.0743 31.192 12.2035 31.2459 12.3086C31.2998 12.4137 31.429 12.4553 31.5342 12.4014Z" fill="black"/>
<path fill-rule="evenodd" clip-rule="evenodd" d="M32.8116 4.23707C33.1126 4.41426 33.5036 4.5021 33.8822 4.48141C34.3995 4.45304 34.8835 4.22289 35.0995 3.79076C35.2274 3.53498 35.2527 3.23467 35.2023 2.93628C35.131 2.51319 34.9068 2.09599 34.6461 1.83528C34.2893 1.47844 33.8417 1.43925 33.4165 1.58882C32.829 1.79561 32.2945 2.38294 32.1655 2.89914C32.1052 3.14046 32.1666 3.67386 32.3498 3.96684C32.4624 4.14704 32.6186 4.24502 32.7933 4.23858C32.7995 4.23838 32.8056 4.2379 32.8116 4.23707ZM32.6784 3.6753C32.7414 3.66777 32.807 3.68818 32.8552 3.73642C33.086 3.96725 33.483 4.07442 33.8588 4.05379C34.2176 4.03413 34.5666 3.89894 34.7165 3.59918C34.805 3.42234 34.815 3.21384 34.7801 3.00761C34.7238 2.67386 34.5489 2.34374 34.3434 2.13812C34.053 1.84782 33.6682 1.90633 33.3379 2.09468C32.9743 2.30202 32.6645 2.66858 32.5809 3.00302C32.5447 3.14779 32.5787 3.44187 32.6682 3.65235C32.6715 3.66016 32.6749 3.66784 32.6784 3.6753Z" fill="black"/>
<path fill-rule="evenodd" clip-rule="evenodd" d="M35.502 5.78244C36.0053 5.86843 36.546 5.81848 37.0579 5.81848C37.1761 5.81848 37.272 5.72255 37.272 5.60436C37.272 5.48617 37.1761 5.39025 37.0579 5.39025C36.5698 5.39025 36.0541 5.44232 35.5742 5.3603C35.4577 5.34037 35.347 5.41882 35.3271 5.5353C35.3072 5.65178 35.3856 5.7625 35.502 5.78244Z" fill="black"/>
<path fill-rule="evenodd" clip-rule="evenodd" d="M31.4136 7.41549C31.6844 7.16801 32.3281 7.03481 32.6636 6.95095C32.7782 6.92231 32.8481 6.80596 32.8194 6.69127C32.7907 6.57664 32.6744 6.50682 32.5597 6.53553C32.1719 6.63248 31.4378 6.81329 31.1247 7.09942C31.0375 7.17911 31.0313 7.31463 31.1111 7.40192C31.1908 7.48915 31.3264 7.49524 31.4136 7.41549Z" fill="black"/>
<path fill-rule="evenodd" clip-rule="evenodd" d="M31.9869 8.96324C32.1175 8.98524 32.2473 9.04087 32.3816 9.09377C32.5467 9.15879 32.7172 9.22087 32.8967 9.24327C33.0139 9.25794 33.121 9.17469 33.1357 9.05739C33.1503 8.94015 33.067 8.83306 32.9498 8.8184C32.8061 8.80045 32.6707 8.74742 32.5385 8.69534C32.3755 8.63114 32.2165 8.56763 32.0579 8.54097C31.9414 8.52138 31.8308 8.60004 31.8112 8.71658C31.7916 8.83313 31.8704 8.94365 31.9869 8.96324Z" fill="black"/>
<path fill-rule="evenodd" clip-rule="evenodd" d="M40.6669 9.93988C44.4985 9.52933 48.5683 9.02381 52.3032 7.95665C52.9112 7.78296 53.8176 7.40365 54.5727 7.31129C54.956 7.26436 55.2977 7.28176 55.5059 7.49718C55.6417 7.63771 55.7101 7.85826 55.7101 8.17742C55.7101 8.29561 55.806 8.39153 55.9242 8.39153C56.0424 8.39153 56.1383 8.29561 56.1383 8.17742C56.1383 7.71438 56.0109 7.40345 55.8138 7.19954C55.6119 6.99063 55.3299 6.88745 54.997 6.86737C54.1531 6.81633 52.9443 7.32815 52.1855 7.54494C48.4738 8.60544 44.4291 9.1061 40.6212 9.51412C40.5037 9.52665 40.4186 9.63231 40.4312 9.74981C40.4438 9.86732 40.5494 9.95249 40.6669 9.93988Z" fill="black"/>
<path fill-rule="evenodd" clip-rule="evenodd" d="M7.6634 25.9971C6.52389 25.8615 5.18068 25.0461 3.85563 24.7811C3.73977 24.7579 3.62685 24.8332 3.60369 24.9491C3.58047 25.065 3.65577 25.1779 3.77163 25.201C5.10771 25.4683 6.46373 26.2855 7.61276 26.4223C7.73013 26.4363 7.83674 26.3523 7.85072 26.235C7.86463 26.1177 7.7807 26.011 7.6634 25.9971Z" fill="black"/>
<path fill-rule="evenodd" clip-rule="evenodd" d="M2.29976 52.8052C2.13586 52.8872 0.845072 53.5393 0.0856288 54.1089C-0.0089247 54.1798 -0.0281095 54.3141 0.0428057 54.4086C0.113721 54.5032 0.248014 54.5224 0.342568 54.4514C1.14826 53.8472 2.37252 53.2764 2.55752 53.1508C2.69654 53.0565 2.67667 52.9294 2.66824 52.8971C2.65255 52.8368 2.61583 52.7757 2.52655 52.7458C2.44337 52.718 2.35505 52.7441 2.29976 52.8052ZM2.3188 53.1111C2.33724 53.1274 2.36053 53.1418 2.39054 53.1519C2.36334 53.1428 2.33922 53.1287 2.3188 53.1111Z" fill="black"/>
<path fill-rule="evenodd" clip-rule="evenodd" d="M26.4815 77.0629C25.7821 77.6796 25.3628 78.5823 25.3628 79.5203C25.3628 79.6385 25.4587 79.7344 25.5769 79.7344C25.6951 79.7344 25.791 79.6385 25.791 79.5203C25.791 78.7047 26.1566 77.9203 26.7647 77.384C26.8534 77.3059 26.8619 77.1705 26.7837 77.0819C26.7055 76.9932 26.5701 76.9847 26.4815 77.0629Z" fill="black"/>
<path fill-rule="evenodd" clip-rule="evenodd" d="M47.306 74.7562C48.4149 74.9383 49.5915 75.2209 50.6594 75.6481C50.7691 75.692 50.8938 75.6385 50.9377 75.5288C50.9816 75.4191 50.9282 75.2944 50.8184 75.2505C49.7219 74.8119 48.514 74.5206 47.3753 74.3337C47.2587 74.3145 47.1485 74.3936 47.1293 74.5102C47.1102 74.6269 47.1893 74.7371 47.306 74.7562Z" fill="black"/>
<path fill-rule="evenodd" clip-rule="evenodd" d="M30.7324 27.0345C31.0153 26.8101 31.8078 26.6135 32.9193 26.4101C35.6274 25.9146 40.1724 25.4613 44.133 24.9658C46.789 24.6335 49.1836 24.2814 50.5954 23.8867C51.2467 23.7045 51.6986 23.5023 51.9001 23.3008C51.9837 23.2172 51.9837 23.0816 51.9001 22.998C51.8166 22.9145 51.6809 22.9145 51.5974 22.998C51.4262 23.1691 51.0332 23.3196 50.4801 23.4743C49.082 23.8651 46.7101 24.2118 44.0798 24.5409C40.1107 25.0375 35.5561 25.4924 32.8423 25.9888C31.6302 26.2106 30.7746 26.4544 30.4662 26.6991C30.3737 26.7726 30.3582 26.9074 30.4316 26.9999C30.5051 27.0925 30.6399 27.1081 30.7324 27.0345Z" fill="black"/>
<path fill-rule="evenodd" clip-rule="evenodd" d="M52.5424 30.1226C52.5049 30.1416 52.39 30.1975 52.2909 30.2258C51.7355 30.3848 50.7703 30.4694 50.5047 30.5579C47.6441 31.5115 44.2063 31.2647 41.2459 31.8567C38.0471 32.4966 34.6518 33.6089 31.5839 33.8947C31.4663 33.9057 31.3796 34.0101 31.3906 34.1277C31.4015 34.2454 31.506 34.3321 31.6237 34.3211C34.7054 34.0339 38.1166 32.9193 41.3299 32.2767C44.307 31.6813 47.7633 31.9231 50.6402 30.9642C50.9449 30.8626 52.1673 30.7642 52.6444 30.5552C52.867 30.4576 52.9626 30.3085 52.9626 30.1808C52.9626 30.0626 52.8666 29.9667 52.7485 29.9667C52.6505 29.9667 52.5678 30.0327 52.5424 30.1226Z" fill="black"/>
<path fill-rule="evenodd" clip-rule="evenodd" d="M32.8979 41.0028C35.9 40.4546 39.2515 40.0643 42.1761 39.0894C42.2882 39.0521 42.3489 38.9307 42.3115 38.8186C42.2741 38.7065 42.1528 38.6458 42.0407 38.6832C39.1347 39.6518 35.8039 40.0369 32.8209 40.5816C32.7047 40.6028 32.6276 40.7144 32.6488 40.8306C32.67 40.9469 32.7816 41.024 32.8979 41.0028Z" fill="black"/>
</svg>
