<?xml version="1.0" encoding="UTF-8"?>
<svg width="391px" height="129px" viewBox="0 0 391 129" version="1.1" xmlns="http://www.w3.org/2000/svg" xmlns:xlink="http://www.w3.org/1999/xlink">
    <!-- Generator: Sketch 52.6 (67491) - http://www.bohemiancoding.com/sketch -->
    <title>Group 12</title>
    <desc>Created with Sketch.</desc>
    <defs>
        <polygon id="path-1" points="20.6446238 28.0170757 11.8288989 28.0170757 11.8288989 14.7934885 20.6446238 14.7934885"></polygon>
    </defs>
    <g id="Final-Design" stroke="none" stroke-width="1" fill="none" fill-rule="evenodd">
        <g id="0-Emp-Landing" transform="translate(-509.000000, -299.000000)">
            <g id="Group-12" transform="translate(509.000000, 298.000000)">
                <g id="Group-11" opacity="0.600543478" transform="translate(41.363636, 0.000000)">
                    <path d="M124.261331,46.7088263 L124.261331,75.5453312 L108.833813,75.5453312 L109.072878,75.3277055 C111.339156,74.5481831 113.212204,72.2489196 113.212204,69.7676948 L113.212204,46.7088263 C113.212204,43.6154836 115.491143,41.095683 118.639206,41.0228984 C118.687614,41.0170757 118.613884,41.0170757 118.664527,41.0170757 C120.2717,41.0170757 121.615231,41.6539404 122.669054,42.6838415 C123.723621,43.7144705 124.261331,45.1381361 124.261331,46.7088263" id="Fill-5622" fill="#CBD5E1"></path>
                    <path d="M112.340509,75.4432025 L122.7231,75.4432025 L122.7231,47.3504614 C122.7231,46.0239602 122.300257,44.8945518 121.50042,44.0832971 C120.636538,43.2085592 119.621277,42.7538432 118.479381,42.7316979 L118.391319,42.736127 C116.001271,42.7937047 114.198546,44.7771819 114.198546,47.3504614 L114.198546,70.7365961 C114.198546,72.4528539 113.492593,74.1425374 112.340509,75.4432025 Z M124.995975,77.7492624 L105.895238,77.7492624 L108.41556,75.3671704 L108.639718,75.2881856 C110.512311,74.6186606 111.925671,72.6624958 111.925671,70.7365961 L111.925671,47.3504614 C111.925671,43.8721789 114.167251,41.0405381 117.288724,40.467714 L117.294546,40.2824319 L118.390592,40.2824319 C120.168572,40.2824319 121.798812,41.0553016 123.107371,42.3818028 C124.325684,43.6167702 124.995975,45.4275145 124.995975,47.3504614 L124.995975,77.7492624 Z" id="Fill-5623" fill="#A3B2C7"></path>
                    <path d="M118.384182,41.0170757 L118.531845,41.0170757 C118.481889,41.0170757 118.431933,41.0170757 118.384182,41.0236875 L118.384182,41.0170757 Z" id="Fill-5624" fill="#FCFDFF"></path>
                    <path d="M117.662354,41.7517194 L117.649538,40.2824319 L118.450551,40.2824319 L118.450551,40.923143 L119.118825,40.923143 L118.450551,41.0863972 L118.450551,41.5638541 L118.500901,41.5638541 C118.492662,41.5638541 118.484423,41.6171783 118.478015,41.6179987 L117.662354,41.7517194 Z" id="Fill-5625" fill="#221F1F"></path>
                    <path d="M118.384182,41.0170757 L118.531845,41.0170757 C118.481889,41.0170757 118.431933,41.0170757 118.384182,41.0236875 L118.384182,41.0170757 Z" id="Fill-5626" fill="#FCFDFF"></path>
                    <path d="M117.662354,41.7517194 L117.649538,40.2824319 L118.450551,40.2824319 L118.450551,40.923143 L119.118825,40.923143 L118.450551,41.0863972 L118.450551,41.5638541 L118.500901,41.5638541 C118.492662,41.5638541 118.484423,41.6171783 118.478015,41.6179987 L117.662354,41.7517194 Z" id="Fill-5627" fill="#221F1F"></path>
                    <path d="M163.197449,46.919237 C163.197449,45.329712 162.544177,43.8175271 161.500122,42.775276 C160.457542,41.7322883 159.005007,41.0170757 157.414593,41.0170757 L118.384182,41.0170757 C119.974596,41.0170757 121.36667,41.7322883 122.409988,42.775276 C123.45478,43.8175271 124.046854,45.329712 124.046854,46.919237 L124.046854,73.8454083 L124.046854,93.6312385 L124.046854,102.844297 C124.046854,104.433085 124.738467,105.874559 125.783259,106.917547 C126.826577,107.960534 128.303443,108.604299 129.893121,108.604299 C129.943259,108.604299 130.00077,108.604299 130.047222,108.598407 C133.163904,108.524749 135.562429,105.975469 135.562429,102.844297 L135.562429,93.3557601 L163.197449,93.3557601 L163.197449,46.919237 Z" id="Fill-5628" fill="#FFFFFF"></path>
                    <path d="M123.458266,42.580289 C124.578954,43.818219 125.216222,45.5313141 125.216222,47.3253196 L125.216222,103.17266 C125.216222,104.372342 125.707663,105.528626 126.60013,106.428203 C127.448849,107.284383 128.636618,107.77573 129.858656,107.77573 L129.961465,107.76911 L129.984068,107.770581 C132.418666,107.712472 134.326096,105.692653 134.326096,103.17266 L134.326096,92.549117 L161.654989,92.549117 L161.654989,47.3253196 C161.654989,46.0918029 161.151883,44.8479885 160.310455,43.9991642 C159.41653,43.0973804 158.23751,42.580289 157.074532,42.580289 L123.458266,42.580289 Z M129.858656,110.073587 C128.036536,110.073587 126.261809,109.336566 124.98946,108.052296 C123.667529,106.71948 122.939118,104.986526 122.939118,103.17266 L122.939118,47.3253196 C122.939118,46.0351655 122.424346,44.8222442 121.607709,43.9998997 C120.965337,43.3518805 120.092556,42.580289 118.384182,42.580289 L118.384182,40.2824319 L157.074532,40.2824319 C158.836863,40.2824319 160.60284,41.0451969 161.921125,42.3750706 C163.198578,43.6637536 163.932093,45.4680568 163.932093,47.3253196 L163.932093,94.8462385 L136.6032,94.8462385 L136.6032,103.17266 C136.6032,106.937939 133.739139,109.958841 130.074482,110.066231 C130.004484,110.07138 129.927924,110.073587 129.858656,110.073587 Z" id="Fill-5629" fill="#A3B2C7"></path>
                    <path d="M104.42633,93.9899603 C103.16835,93.9899603 102.144059,92.9663406 102.144059,91.7074934 C102.144059,90.4494049 103.16835,89.4257853 104.42633,89.4257853 C105.68431,89.4257853 106.7086,90.4494049 106.7086,91.7074934 C106.7086,92.9663406 105.68431,93.9899603 104.42633,93.9899603 M104.42633,87.299631 C101.996106,87.299631 100.018088,89.2770607 100.018088,91.7074934 C100.018088,94.137926 101.996106,96.1153558 104.42633,96.1153558 C106.856553,96.1153558 108.833813,94.137926 108.833813,91.7074934 C108.833813,89.2770607 106.856553,87.299631 104.42633,87.299631" id="Fill-5630" fill="#CBD5E1"></path>
                    <path d="M162.830127,32.2589853 C161.380906,32.2589853 160.20124,31.0800437 160.20124,29.6300978 C160.20124,28.1808765 161.380906,27.0019349 162.830127,27.0019349 C164.279349,27.0019349 165.45829,28.1808765 165.45829,29.6300978 C165.45829,31.0800437 164.279349,32.2589853 162.830127,32.2589853 M162.830127,24.8549135 C160.196892,24.8549135 158.054943,26.9968626 158.054943,29.6300978 C158.054943,32.2633329 160.196892,34.4052821 162.830127,34.4052821 C165.462638,34.4052821 167.605312,32.2633329 167.605312,29.6300978 C167.605312,26.9968626 165.462638,24.8549135 162.830127,24.8549135" id="Fill-5631" fill="#CBD5E1"></path>
                    <path d="M132.342412,52.7713754 L144.096712,52.8228005" id="Fill-5632" fill="#FCFDFF"></path>
                    <polygon id="Fill-5633" fill="#CBD5E1" points="144.090249 53.5060192 132.342412 53.4602673 132.348876 52.0367317 144.096712 52.0824835"></polygon>
                    <path d="M132.342412,56.4445941 L158.054943,56.5555253" id="Fill-5634" fill="#FCFDFF"></path>
                    <polygon id="Fill-5635" fill="#CBD5E1" points="158.048377 57.1792378 132.342412 57.083977 132.348249 55.7099504 158.054943 55.8052112"></polygon>
                    <path d="M132.342412,60.1178128 L158.054943,60.228744" id="Fill-5636" fill="#CBD5E1"></path>
                    <polygon id="Fill-5637" fill="#CBD5E1" points="158.048377 60.1178128 132.342412 60.022552 132.348978 58.6485253 158.054943 58.7437861"></polygon>
                    <path d="M132.342412,63.0563877 L158.054943,63.1673189" id="Fill-5638" fill="#FCFDFF"></path>
                    <polygon id="Fill-5639" fill="#CBD5E1" points="158.048377 63.7910315 132.342412 63.6957707 132.348979 62.321744 158.054943 62.4170048"></polygon>
                    <path d="M132.342412,65.9949627 L158.054943,66.1058939" id="Fill-5640" fill="#CBD5E1"></path>
                    <polygon id="Fill-5641" fill="#CBD5E1" points="158.047647 66.7296064 132.342412 66.6343456 132.348249 65.2603189 158.054943 65.3555797"></polygon>
                    <path d="M132.342412,69.6681813 L158.054943,69.7791125" id="Fill-5642" fill="#FCFDFF"></path>
                    <polygon id="Fill-5643" fill="#CBD5E1" points="158.047647 70.4028251 132.342412 70.3075643 132.348979 68.9335376 158.054943 69.0287984"></polygon>
                    <path d="M192.996269,68.996076 L206.600044,42.9516317 L187.027624,32.8734412 L173.423846,58.9171827 L192.996269,68.996076 Z" id="Fill-5644" stroke="#CBD5E1"></path>
                    <path d="M187.440693,40.2824319 L193.317842,43.2210069" id="Fill-5645" fill="#FCFDFF"></path>
                    <polygon id="Fill-5646" fill="#CBD5E1" points="192.604446 43.9556506 186.706049 40.8952948 187.418739 39.5477882 193.317842 42.608144"></polygon>
                    <path d="M185.236761,43.2210069 L198.460349,49.8328005" id="Fill-5647" fill="#CBD5E1"></path>
                    <polygon id="Fill-5648" fill="#CBD5E1" points="198.45297 50.5674442 185.236761 43.8579782 185.979517 42.4863632 199.194992 49.1951181"></polygon>
                    <path d="M183.767474,46.1595818 L196.991061,52.7713754" id="Fill-5649" fill="#FCFDFF"></path>
                    <polygon id="Fill-5650" fill="#CBD5E1" points="196.983644 53.5060192 183.767474 46.7965532 184.509535 45.4249381 197.725705 52.1344041"></polygon>
                    <path d="M182.298186,49.0981568 L195.521774,55.7099504" id="Fill-5651" fill="#FCFDFF"></path>
                    <polygon id="Fill-5652" fill="#CBD5E1" points="195.513623 56.4445941 182.298186 49.7351281 183.040247 48.363513 196.256417 55.072979"></polygon>
                    <path d="M180.828899,52.0367317 L194.052486,58.6485253" id="Fill-5653" fill="#FCFDFF"></path>
                    <polygon id="Fill-5654" fill="#CBD5E1" points="194.044374 59.383169 180.828899 52.6737031 181.570921 51.302088 194.78713 58.011554"></polygon>
                    <path d="M179.359611,54.9753066 L192.583199,61.5871003" id="Fill-5655" fill="#CBD5E1"></path>
                    <polygon id="Fill-5656" fill="#CBD5E1" points="192.575048 62.321744 179.359611 55.612278 180.101672 54.2406629 193.317842 60.9501289"></polygon>
                    <polygon id="Fill-5657" fill="#CBD5E1" points="194.964 82.8917686 179.359611 65.963036 201.958178 45.4249381 217.561086 62.3536706"></polygon>
                    <path d="M199.929636,53.5060192 L204.337498,58.6485253" id="Fill-5658" fill="#FCFDFF"></path>
                    <polygon id="Fill-5659" fill="#FFFFFF" points="203.880459 58.6485253 199.194992 53.7892564 200.386676 52.7713754 205.072142 57.6313397"></polygon>
                    <path d="M196.991061,55.7099504 L207.276073,66.7296064" id="Fill-5660" fill="#FCFDFF"></path>
                    <polygon id="Fill-5661" fill="#FFFFFF" points="206.111629 67.4642501 196.256417 56.0814529 197.42014 54.9753066 207.276073 66.3581038"></polygon>
                    <path d="M194.78713,57.9138816 L205.072142,68.9335376" id="Fill-5662" fill="#FCFDFF"></path>
                    <polygon id="Fill-5663" fill="#FFFFFF" points="203.908343 69.6681813 194.052486 58.2861402 195.217007 57.1792378 205.072142 68.5620351"></polygon>
                    <path d="M191.848555,60.1178128 L202.133567,71.1374688" id="Fill-5664" fill="#FCFDFF"></path>
                    <polygon id="Fill-5665" fill="#FFFFFF" points="201.704488 71.8721125 191.848555 60.4900714 193.012999 59.383169 202.868211 70.7659663"></polygon>
                    <path d="M189.644624,62.321744 L199.929636,73.3414" id="Fill-5666" fill="#FCFDFF"></path>
                    <polygon id="Fill-5667" fill="#FFFFFF" points="198.765837 74.0760437 188.90998 62.6940026 190.073779 61.5871003 199.929636 72.9698975"></polygon>
                    <path d="M187.440693,64.5256752 L197.725705,75.5453312" id="Fill-5668" fill="#FCFDFF"></path>
                    <polygon id="Fill-5669" fill="#FFFFFF" points="196.561829 76.2799749 186.706049 64.8979338 187.869924 63.7910315 197.725705 75.1738287"></polygon>
                    <path d="M141.158137,19.7124074 L141.158137,41.4579457 L118.735789,41.4579457 L118.735789,41.6059842 C115.286254,41.6792706 113.561854,44.2157126 113.561854,47.3311172 L113.561854,70.5489791 C113.561854,73.0465793 111.710076,75.1718847 109.469534,75.956782 C108.8724,76.1656482 108.106655,76.2799749 107.435891,76.2799749 C105.847706,76.2799749 104.311061,75.6394519 103.26847,74.6024494 C102.226614,73.5639813 101.487376,72.1297666 101.487376,70.5489791 L101.487376,19.7124074 L141.158137,19.7124074 Z" id="Fill-5670" fill="#FFFFFF"></path>
                    <path d="M102.313035,20.5292596 L102.313035,70.1488817 C102.313035,71.2948787 102.838286,72.4752703 103.754355,73.3878235 C104.595493,74.2271968 105.848016,74.728479 107.10054,74.728479 C107.661788,74.728479 108.294294,74.6296862 108.749757,74.470154 C110.700902,73.7859221 112.064353,72.0091144 112.064353,70.1488817 L112.064353,46.9647618 C112.064353,43.3562616 114.095572,40.7671572 117.227248,40.2139173 L117.227248,39.9577877 L139.598569,39.9577877 L139.598569,20.5292596 L102.313035,20.5292596 Z M107.10054,77.0146187 C105.224326,77.0146187 103.413492,76.282088 102.131584,75.0043672 C100.768133,73.6461485 100.018088,71.9220304 100.018088,70.1488817 L100.018088,18.2431199 L141.892781,18.2431199 L141.892781,42.2431955 L119.52146,42.2431955 L119.52146,42.3668695 L118.398229,42.3902871 C114.650209,42.4700532 114.358565,45.9117033 114.358565,46.9647618 L114.358565,70.1488817 C114.358565,72.9619166 112.364812,75.6263962 109.510087,76.6267653 C108.805588,76.8733815 107.92772,77.0146187 107.10054,77.0146187 Z" id="Fill-5671" fill="#A3B2C7"></path>
                    <path d="M108.833813,26.324201 L120.588113,26.3756261" id="Fill-5672" fill="#CBD5E1"></path>
                    <polygon id="Fill-5673" fill="#CBD5E1" points="120.58165 27.0588447 108.833813 27.0130929 108.839558 25.5895573 120.588113 25.6353091"></polygon>
                    <path d="M108.099169,29.9974197 L133.8117,30.1083509" id="Fill-5674" fill="#FCFDFF"></path>
                    <polygon id="Fill-5675" fill="#CBD5E1" points="133.805134 30.7320634 108.099169 30.6368026 108.105006 29.2627759 133.8117 29.3580367"></polygon>
                    <path d="M108.099169,32.9359946 L133.8117,33.0469258" id="Fill-5676" fill="#CBD5E1"></path>
                    <polygon id="Fill-5677" fill="#CBD5E1" points="133.804404 33.6706383 108.099169 33.5753775 108.105735 32.2013509 133.8117 32.2966117"></polygon>
                    <path d="M108.099169,36.6092133 L133.8117,36.7201445" id="Fill-5678" fill="#CBD5E1"></path>
                    <polygon id="Fill-5679" fill="#CBD5E1" points="133.805133 36.6092133 108.099169 36.5139525 108.105736 35.1399258 133.8117 35.2351866"></polygon>
                    <path d="M147.035287,79.8612013 L147.035287,109.338943 L131.607769,109.338943 L131.833108,109.03559 C134.10366,108.243174 135.965319,105.824491 135.965319,103.302225 L135.965319,79.8612013 C135.965319,76.7166918 138.262733,74.1559513 141.41748,74.0812229 C141.464488,74.0760437 141.398826,74.0760437 141.450311,74.0760437 C143.059769,74.0760437 144.395388,74.7227029 145.451198,75.7696396 C146.508501,76.818056 147.035287,78.2652703 147.035287,79.8612013" id="Fill-5680" fill="#CBD5E1"></path>
                    <path d="M135.05472,107.767527 L145.505082,107.767527 L145.505082,79.5101726 C145.505082,78.177766 145.087357,77.0476195 144.296872,76.2430083 C143.435315,75.3653177 142.422189,74.9113399 141.285775,74.8914091 L141.203826,74.8965764 C138.814239,74.954154 137.010627,76.9376313 137.010627,79.5101726 L137.010627,102.897046 C137.010627,104.659808 136.255678,106.429953 135.05472,107.767527 Z M147.769931,110.073587 L129.403838,110.073587 L131.15741,107.647942 L131.485932,107.530572 C133.314202,106.875073 134.745778,104.839923 134.745778,102.897046 L134.745778,79.5101726 C134.745778,76.0222938 136.999024,73.2659469 140.131232,72.7041954 L140.139209,72.6067563 L141.208902,72.6067563 C142.974078,72.6067563 144.595661,73.2976884 145.898874,74.6241896 C147.105633,75.8517753 147.769931,77.5798439 147.769931,79.5101726 L147.769931,110.073587 Z" id="Fill-5681" fill="#A3B2C7"></path>
                    <path d="M185.971405,79.7949813 L185.971405,126.235749 L146.795671,126.235749 L146.795671,79.7949813 C146.795671,78.2116482 146.216498,76.7861345 145.171772,75.7467281 C144.127047,74.7080557 142.749573,74.0760437 141.158137,74.0760437 L180.21361,74.0760437 C181.805783,74.0760437 183.243756,74.7080557 184.287744,75.7467281 C185.33247,76.7861345 185.971405,78.2116482 185.971405,79.7949813" id="Fill-5682" fill="#FFFFFF"></path>
                    <path d="M147.990178,124.680965 L184.428945,124.680965 L184.428945,79.4603809 C184.428945,78.237985 183.955733,77.09034 183.097535,76.2277742 C182.243713,75.3688725 181.099692,74.8954506 179.876924,74.8954506 L146.319719,74.8954506 C147.400304,76.1215107 147.990178,77.7264549 147.990178,79.4603809 L147.990178,124.680965 Z M186.706049,126.970393 L145.713074,126.970393 L145.713074,79.4603809 C145.713074,78.1998768 145.200489,77.0522318 144.380936,76.2277742 C143.513259,75.3564141 142.296325,74.8954506 141.158137,74.8954506 L141.158137,72.6067563 L179.876924,72.6067563 C181.707795,72.6067563 183.42419,73.3183548 184.708205,74.6096387 C185.996596,75.9038539 186.706049,77.6267871 186.706049,79.4603809 L186.706049,126.970393 Z" id="Fill-5683" fill="#A3B2C7"></path>
                    <path d="M233.855776,92.7596349 L233.855776,89.9420546 C235.295182,90.1837588 235.295182,91.0390957 235.295182,91.3508447 C235.295182,91.6625938 235.295182,92.5179307 233.855776,92.7596349 Z M232.130756,88.1623225 C230.692381,87.9216049 230.69135,87.066268 230.69135,86.7545189 C230.69135,86.4427698 230.692381,85.5864464 232.130756,85.3447422 L232.130756,88.1623225 Z M233.855776,88.2777486 L233.855776,85.3447422 C235.079684,85.5499441 235.263219,86.1990925 235.291058,86.5808865 C235.297245,86.6785547 235.381794,86.7545189 235.484904,86.7545189 L236.821201,86.7545189 C236.932559,86.7545189 237.021233,86.66277 237.015047,86.5562228 C236.928435,84.94815 235.776703,83.9132615 233.855776,83.6804362 L233.855776,82.694875 C233.855776,82.5912875 233.769164,82.5084175 233.66193,82.5084175 L232.325633,82.5084175 C232.218399,82.5084175 232.130756,82.5912875 232.130756,82.694875 L232.130756,83.6804362 C230.133528,83.9221404 228.96633,85.0329931 228.96633,86.7545189 C228.96633,88.4750581 230.133528,89.5859109 232.130756,89.8276151 L232.130756,92.7596349 C230.90891,92.554433 230.724345,91.9052846 230.696505,91.5244771 C230.689287,91.4258224 230.605769,91.3508447 230.502659,91.3508447 L229.166362,91.3508447 C229.055004,91.3508447 228.96633,91.4416071 228.972517,91.5481543 C229.059128,93.1572136 230.21086,94.1921022 232.130756,94.4239409 L232.130756,95.4104886 C232.130756,95.5130896 232.218399,95.5959596 232.325633,95.5959596 L233.66193,95.5959596 C233.769164,95.5959596 233.855776,95.5130896 233.855776,95.4104886 L233.855776,94.4239409 C235.854035,94.1822367 237.020202,93.071384 237.020202,91.3508447 C237.020202,89.629319 235.854035,88.5194528 233.855776,88.2777486 Z" id="Fill-213" fill="#A3B2C7"></path>
                    <polygon id="Fill-284" fill="#CBD5E1" points="224.939394 127.811448 230.979798 127.811448 230.979798 101.636364 224.939394 101.636364"></polygon>
                    <polygon id="Fill-285" fill="#CBD5E1" points="241.047138 126.804714 248.094276 126.804714 248.094276 91.5690236 241.047138 91.5690236"></polygon>
                    <path d="M225.795905,126.266342 L232.216622,126.266342 L232.216622,100.890338 L225.795905,100.890338 L225.795905,126.266342 Z M233.785927,126.266342 L240.206644,126.266342 L240.206644,104.561717 L233.785927,104.561717 L233.785927,126.266342 Z M241.774932,126.266342 L248.195649,126.266342 L248.195649,91.1006611 L241.774932,91.1006611 L241.774932,126.266342 Z M214.648955,127.811448 C214.216429,127.811448 213.86532,127.464751 213.86532,127.038895 C213.86532,126.613039 214.216429,126.266342 214.648955,126.266342 L224.184874,126.266342 L224.184874,92.9363508 L217.765175,92.9363508 L217.765175,118.899535 C217.765175,119.326393 217.413048,119.672088 216.979505,119.672088 C216.546979,119.672088 216.19587,119.326393 216.19587,118.899535 L216.19587,92.163798 C216.19587,91.73694 216.546979,91.3912452 216.979505,91.3912452 L224.969527,91.3912452 C225.402053,91.3912452 225.754179,91.73694 225.754179,92.163798 L225.754179,99.3452323 L233.001275,99.3452323 C233.433801,99.3452323 233.785927,99.6919291 233.785927,100.117785 L233.785927,103.016612 L240.205627,103.016612 L240.205627,90.3281083 C240.205627,89.9022524 240.557753,89.5555556 240.991297,89.5555556 L248.979283,89.5555556 C249.412827,89.5555556 249.764954,89.9022524 249.764954,90.3281083 L249.764954,95.674855 L257.059881,95.674855 C257.493425,95.674855 257.844534,96.0205498 257.844534,96.4474078 C257.844534,96.8732637 257.493425,97.2199606 257.059881,97.2199606 L249.85553,97.2199606 L249.85553,126.266342 L256.275229,126.266342 L256.275229,103.789164 C256.275229,103.363308 256.627356,103.016612 257.059881,103.016612 C257.493425,103.016612 257.844534,103.363308 257.844534,103.789164 L257.844534,126.266342 L259.391449,126.266342 C259.823975,126.266342 260.175084,126.613039 260.175084,127.038895 C260.175084,127.464751 259.823975,127.811448 259.391449,127.811448 L214.648955,127.811448 Z" id="Fill-286" fill="#A3B2C7"></path>
                    <path d="M195.889096,94.5884339 C197.338317,94.5884339 198.517983,95.7673754 198.517983,97.2173214 C198.517983,98.6665427 197.338317,99.8454843 195.889096,99.8454843 C194.439874,99.8454843 193.260933,98.6665427 193.260933,97.2173214 C193.260933,95.7673754 194.439874,94.5884339 195.889096,94.5884339 M195.889096,92.4421371 C193.256585,92.4421371 191.113911,94.5840862 191.113911,97.2173214 C191.113911,99.8505565 193.256585,101.992506 195.889096,101.992506 C198.522331,101.992506 200.66428,99.8505565 200.66428,97.2173214 C200.66428,94.5840862 198.522331,92.4421371 195.889096,92.4421371" id="Fill-5684" fill="#CBD5E1"></path>
                    <path d="M152.912437,87.299631 L178.624968,87.4105622" id="Fill-5685" fill="#FCFDFF"></path>
                    <polygon id="Fill-5686" fill="#CBD5E1" points="178.617672 88.0342747 152.912437 87.9390139 152.918273 86.5649872 178.624968 86.660248"></polygon>
                    <path d="M152.912437,90.9728496 L178.624968,91.0837808" id="Fill-5687" fill="#FCFDFF"></path>
                    <polygon id="Fill-5688" fill="#CBD5E1" points="178.618402 91.7074934 152.912437 91.6122326 152.918273 90.2382059 178.624968 90.3334667"></polygon>
                    <path d="M152.912437,93.9114246 L178.624968,94.0223558" id="Fill-5689" fill="#FCFDFF"></path>
                    <polygon id="Fill-5690" fill="#CBD5E1" points="178.617672 94.6460683 152.912437 94.5508075 152.918274 93.1767808 178.624968 93.2720416"></polygon>
                    <path d="M152.912437,96.8499995 L178.624968,96.9609307" id="Fill-5691" fill="#CBD5E1"></path>
                    <polygon id="Fill-5692" fill="#CBD5E1" points="178.618401 97.5846433 152.912437 97.4893824 152.918274 96.1153558 178.624968 96.2106166"></polygon>
                    <path d="M152.912437,100.523218 L178.624968,100.634149" id="Fill-5693" fill="#CBD5E1"></path>
                    <polygon id="Fill-5694" fill="#CBD5E1" points="178.617672 101.257862 152.912437 101.162601 152.918274 99.7885745 178.624968 99.8838353"></polygon>
                    <path d="M152.912437,110.073587 L178.624968,110.184518" id="Fill-5695" fill="#FCFDFF"></path>
                    <polygon id="Fill-5696" fill="#CBD5E1" points="178.617672 110.80823 152.912437 110.71297 152.918274 109.338943 178.624968 109.434204"></polygon>
                    <path d="M152.912437,113.012162 L178.624968,113.123093" id="Fill-5697" fill="#FCFDFF"></path>
                    <polygon id="Fill-5698" fill="#CBD5E1" points="178.618401 113.746805 152.912437 113.651545 152.918274 112.277518 178.624968 112.372779"></polygon>
                    <path d="M152.912437,83.6264123 L164.666737,83.6778374" id="Fill-5701" fill="#FCFDFF"></path>
                    <polygon id="Fill-5702" fill="#CBD5E1" points="164.660274 84.361056 152.912437 84.3153042 152.9189 82.8917686 164.666737 82.9375204"></polygon>
                    <g id="Group-10" transform="translate(0.000000, 94.545455)">
                        <path d="M15.8690744,1.60781631 C8.00870738,1.60781631 1.61440173,8.00314769 1.61440173,15.863148 C1.61440173,23.7238784 8.00870738,30.1184796 15.8690744,30.1184796 C23.7294415,30.1184796 30.1237471,23.7238784 30.1237471,15.863148 C30.1237471,8.00314769 23.7294415,1.60781631 15.8690744,1.60781631 M15.8690744,31.6583533 C7.16031926,31.6583533 0.0745991906,24.5730359 0.0745991906,15.863148 C0.0745991906,7.15399021 7.16031926,0.0686727354 15.8690744,0.0686727354 C24.5785597,0.0686727354 31.6642798,7.15399021 31.6642798,15.863148 C31.6642798,24.5730359 24.5785597,31.6583533 15.8690744,31.6583533" id="Fill-5703" fill="#A3B2C7"></path>
                        <path d="M15.8694395,5.2772046 C10.031755,5.2772046 5.28313106,10.0265566 5.28313106,15.863513 C5.28313106,21.7011975 10.031755,26.4498215 15.8694395,26.4498215 C21.7071239,26.4498215 26.4564759,21.7011975 26.4564759,15.863513 C26.4564759,10.0265566 21.7071239,5.2772046 15.8694395,5.2772046 M15.8694395,27.9851347 C9.18511243,27.9851347 3.74781786,22.5478401 3.74781786,15.863513 C3.74781786,9.17991396 9.18511243,3.74189141 15.8694395,3.74189141 C22.5537665,3.74189141 27.9910611,9.17991396 27.9910611,15.863513 C27.9910611,22.5478401 22.5537665,27.9851347 15.8694395,27.9851347" id="Fill-5704" fill="#CBD5E1"></path>
                        <g id="Page-1-Copy" transform="translate(11.828899, 10.066216)" fill="#7F8FA4" opacity="0.600000024">
                            <path d="M8.81572482,1.22366824 L5.61928519,1.22366824 C6.11568438,1.68547407 6.45318943,2.32661059 6.57149017,3.17051972 L8.81572482,3.17051972 L8.81572482,4.39418795 L6.57149017,4.39418795 C6.3151719,6.40081633 4.74594737,7.62448457 2.52142952,7.74521046 C3.95147671,9.25018174 5.5995684,11.2368845 7.18850972,13.2235872 L4.54645984,13.2235872 C3.21731623,11.5978901 1.70724206,9.77176446 0,7.92571324 L0,6.24023918 L1.1714093,6.24023918 C3.05726228,6.24023918 4.05122047,5.4971303 4.24838837,4.39418795 L0,4.39418795 L0,3.17051972 L4.16952121,3.17051972 C3.87144973,2.26683369 2.97839512,1.74525096 1.44860417,1.74525096 L0,1.74525096 L0,0 L8.81572482,0 L8.81572482,1.22366824 Z" id="Fill-1"></path>
                        </g>
                        <mask id="mask-2" fill="white">
                            <use xlink:href="#path-1"></use>
                        </mask>
                        <g id="Clip-2"></g>
                    </g>
                    <g id="Group-5710" transform="translate(80.917351, 0.611670)">
                        <path d="M36.4614705,19.4809152 C36.4614705,28.9445958 28.7873821,36.6194189 19.3214975,36.6194189 C9.85634767,36.6194189 2.18299386,28.9445958 2.18299386,19.4809152 C2.18299386,10.0142961 9.85634767,2.33947297 19.3214975,2.33947297 C28.7873821,2.33947297 36.4614705,10.0142961 36.4614705,19.4809152" id="Fill-5706" fill="#FFFFFF"></path>
                        <path d="M19.3221587,4.20972899 C10.9024069,4.20972899 4.05332334,11.0602818 4.05332334,19.4807683 C4.05332334,27.8997855 10.9024069,34.7496037 19.3221587,34.7496037 C27.7419106,34.7496037 34.5917287,27.8997855 34.5917287,19.4807683 C34.5917287,11.0602818 27.7419106,4.20972899 19.3221587,4.20972899 M19.3221587,38.4896749 C8.84026192,38.4896749 0.313986732,29.9619305 0.313986732,19.4807683 C0.313986732,8.9988715 8.84026192,0.470392383 19.3221587,0.470392383 C29.8040555,0.470392383 38.3318,8.9988715 38.3318,19.4807683 C38.3318,29.9619305 29.8040555,38.4896749 19.3221587,38.4896749" id="Fill-5708" fill="#CBD5E1"></path>
                        <path d="M21.1522506,26.1109004 C21.9844442,26.9421627 23.0778918,27.3580267 24.1699422,27.3580267 C25.2633897,27.3580267 26.3568373,26.9421627 27.1890309,26.109969 C28.8534182,24.4465131 28.8534182,21.737576 27.1890309,20.0741201 L19.3220765,12.2071656 L18.6635863,12.8656557 L26.5305408,20.7326102 C27.8312218,22.0332912 27.8312218,24.1507979 26.5305408,25.4514789 C25.2298598,26.7512285 23.112353,26.7521599 21.8107407,25.4524103 L12.0521406,15.6938103 C11.2506827,14.8909553 11.2506827,13.5851517 12.0521406,12.7822967 C12.8545299,11.9803731 14.1603336,11.9803731 14.9636542,12.781831 L23.4378726,21.2574464 C23.6008652,21.420439 23.6907439,21.6369863 23.6907439,21.8679701 C23.6907439,22.0980225 23.6017966,22.3145698 23.4388039,22.4770967 C23.276277,22.6400894 23.0597297,22.7290367 22.8296773,22.7290367 L22.8287459,22.7290367 C22.5982278,22.7290367 22.3812148,22.6400894 22.2182222,22.4761654 L15.4321416,15.6900847 L14.7736514,16.3485748 L21.5597321,23.1346555 C21.8992224,23.4741458 22.349082,23.6604231 22.8287459,23.6604231 L22.8296773,23.6604231 C23.3088756,23.6604231 23.7592008,23.4741458 24.0972941,23.1346555 C24.4367844,22.7965623 24.6230616,22.346237 24.6221303,21.8670387 C24.6221303,21.3873748 24.435853,20.9375152 24.0963627,20.5989563 L15.6221444,12.1233409 C14.4560487,10.959108 12.5588148,10.959108 11.3927191,12.1242722 C10.2294176,13.2899022 10.2294176,15.1862047 11.3936505,16.3523004 L21.1522506,26.1109004 Z" id="Fill-11" fill="#7F8FA4"></path>
                    </g>
                </g>
                <g id="Group-5" transform="translate(89.818182, 34.272727)">
                    <g id="Group-9" transform="translate(22.217045, 23.615151) rotate(-30.000000) translate(-22.217045, -23.615151) translate(8.035227, 5.887878)">
                        <path d="M12.7697757,6.78394333 C12.7697757,10.0899682 10.0899682,12.7697757 6.78471739,12.7697757 C3.47869257,12.7697757 0.79811098,10.0899682 0.79811098,6.78394333 C0.79811098,3.47791851 3.47869257,0.79811098 6.78471739,0.79811098 C10.0899682,0.79811098 12.7697757,3.47791851 12.7697757,6.78394333" id="Fill-2163" fill="#CBD5E1"></path>
                        <polygon id="Fill-2409" fill="#CBD5E1" transform="translate(15.962220, 28.731995) scale(-1, -1) translate(-15.962220, -28.731995) " points="7.18299882 29.5301063 24.7414404 29.5301063 24.7414404 27.9338843 7.18299882 27.9338843"></polygon>
                        <polygon id="Fill-2410" fill="#CBD5E1" transform="translate(17.159386, 23.943329) scale(-1, -1) translate(-17.159386, -23.943329) " points="9.57733176 24.7414404 24.7414404 24.7414404 24.7414404 23.1452184 9.57733176 23.1452184"></polygon>
                        <polygon id="Fill-2411" fill="#CBD5E1" transform="translate(15.962220, 19.952774) scale(-1, -1) translate(-15.962220, -19.952774) " points="7.18299882 20.7508855 24.7414404 20.7508855 24.7414404 19.1546635 7.18299882 19.1546635"></polygon>
                        <polygon id="Fill-2412" fill="#CBD5E1" transform="translate(19.154664, 15.962220) scale(-1, -1) translate(-19.154664, -15.962220) " points="13.5678867 16.7603306 24.7414404 16.7603306 24.7414404 15.1641086 13.5678867 15.1641086"></polygon>
                        <polygon id="Fill-2413" fill="#CBD5E1" transform="translate(21.149941, 11.173554) scale(-1, -1) translate(-21.149941, -11.173554) " points="17.5584416 11.9716647 24.7414404 11.9716647 24.7414404 10.3754427 17.5584416 10.3754427"></polygon>
                        <path d="M21.3271803,34.10658 C19.5084676,34.10658 17.892796,33.2225647 16.8697209,31.8486811 C16.6273308,31.5357767 16.4250767,31.1971321 16.2574498,30.8391823 C15.9009475,30.0862812 15.7034153,29.2481157 15.7034153,28.3592741 C15.7034153,25.1916198 18.2241149,22.6167946 21.3271803,22.6167946 C22.0976345,22.6167946 22.8342486,22.7728446 23.5016083,23.0608132 C23.8518148,23.2128413 24.1776248,23.3946315 24.4900562,23.6118145 C25.9711541,24.6470535 26.9454364,26.3893438 26.9454364,28.3592741 C26.9454364,31.5309504 24.4255238,34.10658 21.3271803,34.10658 Z M3.4595677,30.8391823 C2.09572993,30.8391823 0.988447913,29.7074175 0.988447913,28.3134244 L0.988447913,3.53525669 C0.988447913,2.14126355 2.09572993,1.01030316 3.4595677,1.01030316 L21.0304885,1.01030316 C22.3935393,1.01030316 23.5016083,2.14126355 23.5016083,3.53525669 L23.5016083,21.9853551 C22.8192959,21.7376056 22.0881907,21.6064915 21.3271803,21.6064915 C17.6803112,21.6064915 14.7157544,24.6365966 14.7157544,28.3592741 C14.7157544,29.2320281 14.8786594,30.070998 15.1753512,30.8391823 L3.4595677,30.8391823 Z M24.4900562,22.4350044 L24.4900562,3.53525669 C24.4900562,1.58624032 22.9373431,0 21.0304885,0 L3.4595677,0 C1.55192618,0 0,1.58624032 0,3.53525669 L0,28.3134244 C0,30.2624408 1.55192618,31.8486811 3.4595677,31.8486811 L15.6640663,31.8486811 C16.824863,33.8033281 18.9253148,35.1168831 21.3271803,35.1168831 C24.9685406,35.1168831 27.9338843,32.086778 27.9338843,28.3592741 C27.9338843,25.8085804 26.5401413,23.581248 24.4900562,22.4350044 Z" id="Fill-2414" fill="#CBD5E1" transform="translate(13.966942, 17.558442) scale(-1, -1) translate(-13.966942, -17.558442) "></path>
                        <polygon id="+" fill="#FFFFFF" transform="translate(6.869767, 6.282789) rotate(30.000000) translate(-6.869767, -6.282789) " points="6.05668695 7.11443253 3.18306053 7.11443253 3.18306053 5.48827184 6.05668695 5.48827184 6.05668695 2.59236925 7.68284763 2.59236925 7.68284763 5.48827184 10.5564741 5.48827184 10.5564741 7.11443253 7.68284763 7.11443253 7.68284763 9.97320816 6.05668695 9.97320816"></polygon>
                    </g>
                    <g id="insurance" transform="translate(223.363636, 59.090909)" fill="#CBD5E1" fill-rule="nonzero">
                        <path d="M32.4834545,24.3785455 C34.0590284,23.1286075 34.6712611,21.0186338 34.0094296,19.1194873 C33.3475983,17.2203409 31.5566179,15.9478603 29.5454545,15.9478603 C27.5342912,15.9478603 25.7433108,17.2203409 25.0814794,19.1194873 C24.419648,21.0186338 25.0318807,23.1286075 26.6074545,24.3785455 C24.5149754,24.9122752 23.0493885,26.7950731 23.0454545,28.9545455 L23.0454545,29.3835455 C22.4848239,28.7440209 21.7622189,28.2673874 20.9536364,28.0037727 C22.2981946,26.8922834 22.8008878,25.0567197 22.2102623,23.4152548 C21.6196368,21.7737899 20.0626718,20.6793245 18.3181818,20.6793245 C16.5736918,20.6793245 15.0167268,21.7737899 14.4261013,23.4152548 C13.8354758,25.0567197 14.338169,26.8922834 15.6827273,28.0037727 C14.8741448,28.2673874 14.1515398,28.7440209 13.5909091,29.3835455 L13.5909091,28.9545455 C13.5869752,26.7950731 12.1213882,24.9122752 10.0289091,24.3785455 C11.6044829,23.1286075 12.2167156,21.0186338 11.5548842,19.1194873 C10.8930528,17.2203409 9.10207244,15.9478603 7.09090909,15.9478603 C5.07974576,15.9478603 3.28876537,17.2203409 2.62693396,19.1194873 C1.96510255,21.0186338 2.57733525,23.1286075 4.15290909,24.3785455 C2.06042999,24.9122752 0.59484298,26.7950731 0.590909091,28.9545455 L0.590909091,34.2727273 C0.590909091,34.9254274 1.12002711,35.4545455 1.77272727,35.4545455 L34.8636364,35.4545455 C35.5163365,35.4545455 36.0454545,34.9254274 36.0454545,34.2727273 L36.0454545,28.9545455 C36.0415206,26.7950731 34.5759337,24.9122752 32.4834545,24.3785455 Z M30.7621364,27.8684545 C30.0853316,28.5274679 29.0067593,28.5274679 28.3299545,27.8684545 C27.7916364,27.2491818 27.7041818,26.1365 27.7284091,25.4096818 C27.7431818,25.4096818 27.7579545,25.4096818 27.7727273,25.4096818 L31.3181818,25.4096818 C31.3335455,25.4096818 31.3483182,25.4096818 31.3636818,25.4096818 C31.3885,26.1359091 31.3022273,27.2450455 30.7621364,27.8684545 Z M26,20.6818182 C26,18.7237177 27.5873541,17.1363636 29.5454545,17.1363636 C31.503555,17.1363636 33.0909091,18.7237177 33.0909091,20.6818182 C33.0909091,22.6399187 31.503555,24.2272727 29.5454545,24.2272727 C27.5881641,24.2253184 26.0019544,22.6391086 26,20.6818182 Z M19.0473636,28.9545455 L18.3181818,30.1694545 L17.589,28.9545455 L19.0473636,28.9545455 Z M15.3636364,24.8181818 C15.3636364,23.1864315 16.6864314,21.8636364 18.3181818,21.8636364 C19.9499322,21.8636364 21.2727273,23.1864315 21.2727273,24.8181818 C21.2727273,26.4499322 19.9499322,27.7727273 18.3181818,27.7727273 C16.6872413,27.7707737 15.36559,26.4491223 15.3636364,24.8181818 Z M12.4090909,28.9545455 L12.4090909,34.2727273 L7.68181818,34.2727273 L7.68181818,27.9364091 L9.18804545,25.4256364 C11.0113279,25.5948437 12.4065596,27.12343 12.4090909,28.9545455 Z M7.82009091,25.4090909 L7.09090909,26.624 L6.36172727,25.4090909 L7.82009091,25.4090909 Z M3.54545455,20.6818182 C3.54545455,18.7237177 5.13280861,17.1363636 7.09090909,17.1363636 C9.04900957,17.1363636 10.6363636,18.7237177 10.6363636,20.6818182 C10.6363636,22.6399187 9.04900957,24.2272727 7.09090909,24.2272727 C5.13361871,24.2253184 3.54740891,22.6391086 3.54545455,20.6818182 Z M1.77272727,28.9545455 C1.77525853,27.12343 3.17049026,25.5948437 4.99377273,25.4256364 L6.5,27.9364091 L6.5,34.2727273 L1.77272727,34.2727273 L1.77272727,28.9545455 Z M13.5909091,32.5 C13.5938354,30.8749434 14.7002933,29.4595537 16.2765909,29.0644545 L17.8129545,31.6225 C17.919812,31.8002099 18.1120009,31.9089039 18.3193636,31.9089039 C18.5267264,31.9089039 18.7189153,31.8002099 18.8257727,31.6225 L20.3621364,29.0644545 C21.9374956,29.4604691 23.0428011,30.8756303 23.0454545,32.5 L23.0454545,34.2727273 L13.5909091,34.2727273 L13.5909091,32.5 Z M34.8636364,34.2727273 L24.2272727,34.2727273 L24.2272727,28.9545455 C24.2298437,27.4722403 25.1535467,26.1477162 26.5436364,25.6330455 C26.4883039,26.708714 26.8032165,27.7708662 27.4359091,28.6425455 C27.8264185,29.0954883 28.3641786,29.3961737 28.9545455,29.4916818 L28.9545455,30.1363636 C28.9545455,30.4627137 29.2191045,30.7272727 29.5454545,30.7272727 C29.8718046,30.7272727 30.1363636,30.4627137 30.1363636,30.1363636 L30.1363636,29.4916818 C30.7267305,29.3961737 31.2644906,29.0954883 31.655,28.6425455 C32.2876926,27.7708662 32.6026052,26.708714 32.5472727,25.6330455 C33.9373624,26.1477162 34.8610654,27.4722403 34.8636364,28.9545455 L34.8636364,34.2727273 Z" id="Shape"></path>
                        <path d="M0.919454545,15.3045455 C1.14664886,15.4170856 1.42031566,15.3721481 1.59959091,15.1928636 C1.72722727,15.0646364 4.75504545,12.0935455 7.26404545,14.6019545 C7.28662143,14.619536 7.31052642,14.6353409 7.33554545,14.6492273 C7.3679635,14.6766803 7.40345858,14.7002776 7.44131818,14.7195455 C7.48149492,14.7352515 7.52332254,14.7463527 7.566,14.7526364 C7.59248082,14.7615227 7.61952596,14.7686294 7.64695455,14.7739091 C7.65858825,14.7741052 7.67022443,14.7737107 7.68181818,14.7727273 C7.75757881,14.7727504 7.83262705,14.758102 7.90281818,14.7295909 C7.90813636,14.7295909 7.91227273,14.7225 7.91759091,14.7201364 C7.98216433,14.6915615 8.04102455,14.6515206 8.09131818,14.6019545 L8.099,14.5972273 C8.67173326,14.0694877 9.34782763,13.6664469 10.0844545,13.4136364 C11.6208182,12.9007273 13.0555455,13.3007727 14.3549545,14.6001818 C14.4036833,14.6468446 14.4600433,14.6848177 14.5215909,14.7124545 C14.535544,14.719518 14.5499552,14.7256378 14.5647273,14.7307727 C14.6292953,14.7564112 14.6979497,14.7702222 14.7674091,14.7715455 L14.7727273,14.7727273 C14.7780455,14.7727273 14.7827727,14.7727273 14.7880909,14.7727273 C14.8278191,14.7723345 14.8674091,14.7679796 14.9062727,14.7597273 C14.9288996,14.7530512 14.9510172,14.7447571 14.9724545,14.7349091 C14.9878182,14.7295909 15.002,14.7248636 15.0167727,14.7183636 C15.0768136,14.6909507 15.1319179,14.6538151 15.1798636,14.6084545 C15.1881364,14.6001818 15.1940455,14.5907273 15.2023182,14.5818636 C15.2410604,14.5393626 15.2733171,14.4913757 15.2980455,14.4394545 C15.3055701,14.4260843 15.3122793,14.4122712 15.3181364,14.3980909 C15.3216818,14.3892273 15.3275909,14.3809545 15.3311364,14.3715 C15.5820364,13.873192 16.0178369,13.4927413 16.5454545,13.3114091 L16.5454545,17.7272727 C16.5454545,18.7063229 17.3391316,19.5 18.3181818,19.5 C19.297232,19.5 20.0909091,18.7063229 20.0909091,17.7272727 L20.0909091,13.3078636 C20.6193047,13.4871717 21.0551049,13.8685766 21.3028636,14.3685455 C21.3064091,14.3785909 21.3123182,14.3862727 21.3158636,14.3957273 C21.3194091,14.4051818 21.3288636,14.4217273 21.3353636,14.4353182 C21.3601921,14.4883214 21.3930822,14.5371581 21.4328636,14.5800909 C21.4405455,14.5883636 21.4458636,14.5972273 21.4541364,14.6049091 C21.5019154,14.6509073 21.5572927,14.688292 21.6178182,14.7154091 C21.632,14.7219091 21.6461818,14.7266364 21.6609545,14.7319545 C21.6826324,14.7417103 21.70494,14.7500017 21.7277273,14.7567727 C21.7665915,14.7649507 21.8061939,14.769109 21.8459091,14.7691818 C21.8524091,14.7691818 21.8571364,14.7727273 21.8630455,14.7727273 L21.8683636,14.7727273 C21.9376252,14.7713462 22.0060755,14.757536 22.0704545,14.7319545 C22.0852273,14.7266364 22.0994091,14.7201364 22.1135909,14.7136364 C22.175099,14.6859286 22.2314476,14.6479632 22.2802273,14.6013636 C25.3570909,11.5250909 28.4079545,14.4755 28.5355909,14.6013636 L28.5438636,14.6066818 C28.5905897,14.6501094 28.644078,14.6856352 28.7022273,14.7118636 C28.7128636,14.7171818 28.7217273,14.7272273 28.7323636,14.7313636 L28.743,14.7313636 C28.8103443,14.7581358 28.882077,14.7721617 28.9545455,14.7727273 L28.9882273,14.7727273 C29.014674,14.7676443 29.0407365,14.7607338 29.0662273,14.7520455 C29.152586,14.7439506 29.2339303,14.7078437 29.2978636,14.6492273 C29.3232398,14.6348692 29.3475318,14.6186745 29.3705455,14.6007727 C31.8683182,12.1035909 34.9073636,15.0658182 35.0355909,15.1916818 C35.2148384,15.3722138 35.4895129,15.4177561 35.717433,15.3047345 C35.9453531,15.191713 36.0753515,14.9455005 36.0401364,14.6935455 C36.0218182,14.5594091 34.0576364,1.53636364 18.9090909,1.19777273 L18.9090909,0.590909091 C18.9090909,0.264559011 18.6445319,1.9983179e-17 18.3181818,0 C17.9918318,-1.9983179e-17 17.7272727,0.264559011 17.7272727,0.590909091 L17.7272727,1.19777273 C2.57872727,1.53636364 0.614545455,14.5594091 0.596227273,14.6929545 C0.560917056,14.9451713 0.691174658,15.1916367 0.919454545,15.3045455 Z M8.48309091,12.8380909 C9.01490909,10.3231818 10.8095,5.0505 16.7357273,2.86531818 C14.8152727,6.01722727 14.3372273,10.7368182 14.2190455,12.9568636 C12.5094845,11.756802 10.2441759,11.7089418 8.48545455,12.8357273 L8.48309091,12.8380909 Z M18.9090909,17.7272727 C18.9090909,18.0536228 18.6445319,18.3181818 18.3181818,18.3181818 C17.9918318,18.3181818 17.7272727,18.0536228 17.7272727,17.7272727 L17.7272727,13.0319091 C17.9235607,13.0110936 18.1207938,13.000443 18.3181818,13 C18.5155517,13.0005376 18.7127699,13.0109901 18.9090909,13.0313182 L18.9090909,17.7272727 Z M18.3181818,11.8181818 C17.3041605,11.7766077 16.3005426,12.0363023 15.4339545,12.5645 C15.6070909,10.0596364 16.2133636,5.25909091 18.3181818,2.65909091 C20.4206364,5.25613636 21.0275,10.0560909 21.2018182,12.5621364 C20.3351978,12.0347477 19.3317793,11.775874 18.3181818,11.8181818 Z M22.4149545,12.9545 C22.2967727,10.7338636 21.8181364,6.01131818 19.8965,2.85940909 C25.9078182,5.05463636 27.6651818,10.3279091 28.1692273,12.8457727 C26.4079245,11.7069729 24.1319802,11.749977 22.4149545,12.9545 Z M34.5090909,13.3013636 C33.1074545,12.4593182 31.1775455,11.9369545 29.3959545,13.0720909 C28.9894091,10.8266364 27.508,5.59827273 22.3682727,2.70577273 C30.8247727,4.2185 33.6386818,10.3692727 34.5090909,13.3013636 Z M14.2675,2.70577273 C9.12659091,5.60122727 7.64931818,10.8242727 7.23981818,13.0720909 C6.5799094,12.643413 5.80964742,12.4157422 5.02272727,12.4167727 C3.99557112,12.4473343 2.99552001,12.7534724 2.12727273,13.3031364 C2.99768182,10.3692727 5.81159091,4.2185 14.2675,2.70577273 Z" id="Shape"></path>
                    </g>
                    <g id="Group-8" transform="translate(24.818182, 69.727273) scale(-1, -1) translate(-24.818182, -69.727273) translate(11.818182, 55.545455)"></g>
                </g>
                <path d="M0.65,129.181818 L389.833286,129.181818" id="Line-8" stroke="#CBD5E1" stroke-linecap="square"></path>
                <g id="house" transform="translate(87.454545, 86.272727)" opacity="0.600000024">
                    <rect id="Rectangle" fill="#CBD5E1" x="18.9786096" y="18.9786096" width="6.77807487" height="8.13368984"></rect>
                    <path d="M45.1594626,26.4717832 C44.291224,25.1958584 42.5428006,24.8581556 41.2629532,25.7182815 L35.4378468,29.6166631 L35.4209082,17.4823621 L37.444629,19.3781516 C37.8749594,19.7812019 38.4360739,20.0030088 39.0251816,20.0030088 C39.0262515,20.0030088 39.0274996,20.0030088 39.0286585,20.0030088 C39.6646596,20.0021173 40.2787296,19.7355567 40.7134283,19.2715273 C41.1357352,18.8206923 41.3572747,18.232476 41.3371266,17.6150183 C41.3169785,16.9975606 41.05755,16.4249457 40.606715,16.0026388 L36.7701148,12.4086177 C36.5074769,12.1625618 36.0951549,12.1760236 35.8491881,12.4386615 C35.6032214,12.7012995 35.6166831,13.1135323 35.8792319,13.3595882 L39.7158321,16.9536093 C39.9126768,17.1379729 40.0258982,17.3879515 40.0347241,17.657454 C40.0434609,17.9269566 39.9468215,18.1837997 39.7623687,18.3805553 C39.5698032,18.5861368 39.3085917,18.6995365 39.0266972,18.6998931 C39.0261623,18.6998931 39.0257165,18.6998931 39.0251816,18.6998931 C38.7681602,18.6998931 38.5232632,18.6030754 38.3354227,18.427092 C38.3353336,18.4270028 38.3353336,18.4270028 38.3353336,18.4270028 L23.1010846,4.15584878 C22.8500362,3.9207584 22.4593779,3.921115 22.2089536,4.15709689 L7.0142875,18.4709541 C6.81806682,18.6558526 6.56149112,18.7526703 6.29189942,18.7451816 C6.02230772,18.7371581 5.77206172,18.6245608 5.58716318,18.4281618 C5.40226464,18.2319411 5.30482293,17.9753654 5.31293564,17.7058628 C5.32095921,17.4362711 5.43355653,17.1860251 5.62977721,17.0011266 L21.960134,1.61746105 C22.3472263,1.25274556 22.9545208,1.25185405 23.3425938,1.61558889 L32.8966063,10.5656054 C33.1591551,10.8115722 33.5714771,10.7981996 33.817533,10.5355616 C34.0634997,10.2729237 34.050038,9.86069087 33.7874892,9.61463496 L24.2335659,0.664618428 C23.344466,-0.168405662 21.9534477,-0.166533497 21.0666657,0.668986812 L15.8389582,5.59367118 L15.8375317,4.71526939 C15.8371751,4.43836733 15.7289462,4.1782256 15.5329038,3.98280728 C15.337218,3.78765641 15.0774329,3.68022982 14.8010658,3.68022982 C14.8005309,3.68022982 14.8000851,3.68022982 14.7995502,3.68022982 L11.059946,3.68548971 C10.783044,3.68584632 10.5229914,3.79407526 10.3274839,3.99011764 C10.1320656,4.18616001 10.0245499,4.44656919 10.0249956,4.7235604 L10.0353371,11.0610158 L4.73630895,16.0528307 C4.28663285,16.4763856 4.02889819,17.0497137 4.010444,17.6671714 C3.9919898,18.2846292 4.21513399,18.8723105 4.63868894,19.3218083 C5.06215474,19.7714844 5.63548286,20.0293082 6.25302972,20.0477624 C6.27665465,20.0484756 6.30027959,20.0488322 6.32390452,20.0488322 C6.91541938,20.0488322 7.47555319,19.826847 7.90784491,19.4194283 L9.92701899,17.5173091 L9.93504255,23.2488964 C9.28174626,23.1537726 8.62078301,23.1038483 7.95678864,23.1038483 L6.84195921,23.1038483 L6.84195921,22.7131899 C6.84195921,21.401694 5.77491454,20.3346494 4.46341867,20.3346494 L2.37854053,20.3346494 C1.06704466,20.3345602 0,21.4015157 0,22.7131008 L0,32.92246 C0,33.2822722 0.291701073,33.5739733 0.651513276,33.5739733 C1.01132548,33.5739733 1.30302655,33.2822722 1.30302655,32.92246 L1.30302655,22.7131008 C1.30302655,22.1200703 1.78551011,21.6375868 2.37854053,21.6375868 L4.46332952,21.6375868 C5.05635994,21.6375868 5.5388435,22.1200703 5.5388435,22.7131008 L5.5388435,23.7552724 L5.5388435,37.1096898 L5.5388435,38.1416091 C5.5388435,38.7346395 5.05635994,39.2171231 4.46332952,39.2171231 L2.37854053,39.2171231 C1.78551011,39.2171231 1.30302655,38.7346395 1.30302655,38.1416091 L1.30302655,37.00155 C1.30302655,36.6417378 1.01132548,36.3500368 0.651513276,36.3500368 C0.291701073,36.3500368 0,36.6417378 0,37.00155 L0,38.1416091 C0,39.453105 1.06704466,40.5201496 2.37854053,40.5201496 L4.46332952,40.5201496 C5.77482539,40.5201496 6.84187005,39.4531941 6.84187005,38.1416091 L6.84187005,38.0530825 L16.383134,41.6661818 C16.4007858,41.6728681 16.4187051,41.6787521 16.4368919,41.6838337 C16.85171,41.8009777 17.2663499,41.859728 17.6757299,41.859728 C17.8971802,41.859728 18.117115,41.8425219 18.334821,41.8081097 L32.3565314,39.7868852 C32.35983,39.7864394 32.3630394,39.7859045 32.366338,39.7853696 C33.5584611,39.5950329 34.6830971,39.091064 35.6185553,38.3281124 C35.626668,38.3215152 35.6346916,38.3146506 35.6424477,38.3076077 L44.7011389,30.160304 C45.7560591,29.223776 45.952993,27.6380526 45.1594626,26.4717832 Z M14.5348618,4.98370213 L14.5378929,6.81931493 L11.3363132,9.83528293 L11.3283788,4.98807051 L14.5348618,4.98370213 Z M22.6568467,5.52520345 L34.1160986,16.2600169 L34.1359793,30.4878437 L32.2913622,31.7224025 L30.3379814,31.6128363 L30.2863631,31.0939793 C30.1045848,29.2665683 28.7555565,27.7965625 26.9717403,27.4457545 L26.9599724,18.9813418 C26.9590809,18.3317899 26.430239,17.8039286 25.7807762,17.8039286 C25.7802413,17.8039286 25.7797955,17.8039286 25.7791714,17.8039286 L19.569469,17.8126654 C19.2544996,17.8131111 18.9585193,17.9361391 18.7361774,18.1591941 C18.5137464,18.38216 18.3915208,18.6784969 18.3919666,18.9933772 L18.4023081,26.3733608 C17.1722959,26.0921795 15.9978247,25.6277936 14.8997556,24.9854628 C14.762731,24.9053163 14.6243691,24.8279335 14.4848483,24.7526903 C14.4304663,24.7233598 14.3751929,24.6958122 14.3203652,24.6671948 C14.2354938,24.6228869 14.1508006,24.5783116 14.0650376,24.5357867 C13.9967482,24.5019094 13.9276564,24.4698152 13.8588321,24.4370969 C13.7858177,24.4024173 13.7128924,24.367381 13.6393431,24.3339495 C13.5644565,24.2999831 13.4889458,24.2676214 13.4135244,24.2349923 C13.3446109,24.2052159 13.2756974,24.1752613 13.2063381,24.1466439 C13.128777,24.1146388 13.0507702,24.0838818 12.9726742,24.0533031 C12.9034041,24.0262013 12.8340448,23.9992778 12.7644181,23.9732458 C12.6871245,23.944361 12.6094742,23.9164568 12.5316457,23.8890876 C12.4586313,23.863323 12.3855277,23.8381825 12.3120675,23.8136661 C12.2375375,23.788793 12.1628293,23.7644549 12.0877644,23.74083 C12.0077962,23.7156003 11.9274714,23.6915296 11.8470575,23.6677264 C11.7779657,23.6474 11.7089631,23.6270737 11.6395147,23.6078171 C11.5488484,23.5825875 11.4577364,23.5589625 11.3665353,23.5356051 C11.3238321,23.5246395 11.2813963,23.5122476 11.2384257,23.5016386 L11.2283517,16.2913088 L22.6568467,5.52520345 Z M25.6685354,27.2826979 L20.2191992,26.6553445 L19.7057804,26.5962376 L19.6952606,19.1155136 L25.6571241,19.1071335 L25.6685354,27.2826979 Z M43.8329894,29.1888289 L34.7832133,37.328109 C34.0290876,37.9395936 33.1244755,38.3440703 32.1656598,38.4979444 L18.1500116,40.5182775 C18.1470696,40.5187232 18.1442168,40.519169 18.1412748,40.5196147 L18.1315574,40.5211303 C17.7069327,40.5883499 17.2647452,40.56 16.8171196,40.4371503 L6.84195921,36.6596571 L6.84195921,24.4067857 L7.95678864,24.4067857 C8.90579778,24.4067857 9.84838808,24.5163519 10.7662836,24.7291546 C10.8004283,24.737089 10.8344839,24.7452017 10.8685395,24.7534036 C10.9813151,24.7805945 11.0938233,24.8085878 11.2057966,24.8388991 C11.2156031,24.8415736 11.2253206,24.8444264 11.2351271,24.8471009 C11.3473679,24.8777688 11.4591628,24.9101305 11.5706012,24.9439186 C11.590571,24.9499808 11.6106299,24.9559539 11.6305105,24.9621053 C11.7490809,24.9987463 11.8671164,25.0369919 11.9845279,25.0771097 C11.9966524,25.0812998 12.0086877,25.085579 12.0208122,25.0897691 C12.2653526,25.1741948 12.5074858,25.2662875 12.746588,25.365958 C12.759604,25.3713962 12.77262,25.3768344 12.785636,25.3823617 C12.9048305,25.4324644 13.0233118,25.4842609 13.1409907,25.538108 C13.144111,25.5395344 13.1473204,25.5410499 13.1504407,25.5425655 C13.2641969,25.5948078 13.3771509,25.6490114 13.4893916,25.7047306 C13.5025859,25.7112386 13.5158694,25.7176575 13.5290637,25.7242546 C13.638719,25.7790823 13.7474829,25.8358713 13.8556226,25.8939975 C13.8760382,25.9049631 13.8963645,25.9161961 13.91678,25.9272507 C14.0259005,25.9867143 14.1343969,26.0473367 14.2418235,26.110188 C15.7922432,27.017118 17.4800441,27.6045319 19.2584222,27.8562043 C19.2640387,27.8570067 19.269566,27.8577199 19.2751825,27.8583439 L26.5749305,28.6987675 C26.6153158,28.7045623 26.6554336,28.7112486 26.695284,28.7187373 C27.7699065,28.9205745 28.6180862,29.7146397 28.9018528,30.7486986 C28.943932,30.9018595 28.97353,31.0603694 28.9897554,31.2228912 L29.0187294,31.5144139 L15.3376638,30.3157828 C14.9794563,30.2844909 14.6631496,30.549536 14.6317686,30.9079218 C14.6002984,31.2663967 14.8655217,31.5824359 15.2239075,31.613817 L29.6878945,32.8810941 C29.6913714,32.8813615 29.6947591,32.8812724 29.6981468,32.8815398 C29.7015346,32.8818073 29.7048331,32.8823422 29.70831,32.8826096 L32.4360538,33.0356814 C32.4482675,33.0363946 32.4603919,33.036662 32.4725164,33.036662 C32.4854433,33.036662 32.4981918,33.0346116 32.5110295,33.0338092 C32.5255611,33.0329177 32.5400927,33.0323828 32.5545351,33.0305998 C32.5739699,33.0281036 32.592959,33.0239135 32.6120373,33.0197234 C32.6256773,33.0166923 32.6394065,33.0144635 32.6527791,33.0105409 C32.6736404,33.0045678 32.6936993,32.9964551 32.7139365,32.9883424 C32.7248129,32.983974 32.7360459,32.9806754 32.746744,32.975683 C32.7771444,32.9615972 32.8067424,32.9453717 32.834914,32.9264718 L35.1503359,31.3769436 C35.150425,31.3768544 35.1505142,31.3767653 35.1506033,31.3766761 L41.9886399,26.8003926 C42.6766158,26.337968 43.6157292,26.5193897 44.0820765,27.2047802 C44.5083951,27.831153 44.4025732,28.6829879 43.8329894,29.1888289 Z" id="Shape" fill="#A3B2C7"></path>
                </g>
            </g>
        </g>
    </g>
</svg>