<svg width="235" height="116" xmlns="http://www.w3.org/2000/svg">
  <g fill-rule="nonzero" fill="none">
    <path d="M220.4 90c-.8 0-1.4-.7-1.4-1.5 0-.4.1-.8.4-1 .3-.3.6-.5 1-.5h8.2c.8 0 1.4.7 1.4 1.5s-.6 1.5-1.4 1.5h-8.2zM226 28.5a4.5 4.5 0 1 1 0 0zm2.8 0a1.7 1.7 0 1 0 3.4 0 1.7 1.7 0 0 0-3.4 0zM220 47.5a4.5 4.5 0 1 1 9 0 4.5 4.5 0 0 1-9 0zm2.8 0a1.7 1.7 0 0 0 2.9 1.2c.3-.3.5-.7.5-1.2a1.7 1.7 0 0 0-3-1.2c-.3.3-.4.8-.4 1.2z" fill="#C8D1DE"/>
    <g>
      <path d="M5.1 107.7a1.3 1.3 0 1 1 0-2.7h8a1.3 1.3 0 1 1 0 2.7h-8z" fill="#C8D1DE"/>
      <g fill="#C8D1DE">
        <path d="M46 17.7a1.1 1.1 0 0 1-.7-1.9l4.6-4.5a1.1 1.1 0 1 1 1.5 1.5L47 17.4c-.2.2-.5.3-.8.3z"/>
        <path d="M50.6 17.7c-.2 0-.5-.1-.7-.3l-4.6-4.6a1.1 1.1 0 1 1 1.6-1.5l4.5 4.5a1.1 1.1 0 0 1-.8 2z"/>
      </g>
      <path d="M.5 80a4.3 4.3 0 1 1 8.7.1 4.3 4.3 0 0 1-8.7 0zm2.7 0c0 1 .7 1.7 1.6 1.7a1.6 1.6 0 0 0 1.7-1.6c0-1-.8-1.6-1.7-1.6-.9 0-1.6.7-1.6 1.6z" fill="#C8D1DE"/>
      <g fill="#C8D1DE">
        <path d="M9 36a1.1 1.1 0 0 1-.7-1.9l4.6-4.5a1.1 1.1 0 1 1 1.5 1.5L10 35.7c-.3.2-.5.3-.8.3z"/>
        <path d="M13.6 36c-.3 0-.5-.1-.7-.3l-4.6-4.6a1.1 1.1 0 0 1 1.6-1.5l4.5 4.5a1.1 1.1 0 0 1-.8 2z"/>
      </g>
      <path d="M28.7 34a1.3 1.3 0 1 1 0-2.6h35.2a1.3 1.3 0 0 1 0 2.7H28.7zM19.5 34c-.4 0-.7-.5-.7-1.3 0-.7.3-1.3.7-1.3h4c.4 0 .7.6.7 1.3 0 .8-.3 1.4-.7 1.4h-4z" fill="#C8D1DE"/>
      <path d="M92 17.9h-8.6c-2.5 0-4.5 2-4.5 4.4v80.3h-6.2l1.1 6.9c.3 1.3.8 2.5 1.7 3.6H92V17.9z" fill="#E0E6ED"/>
      <rect x=".4" y=".8" width="125.3" height="90" rx="1.8" transform="translate(83.5 18.5)" fill="#E0E6ED"/>
      <path d="M90 26.3h112.4v73H90zM207 114.3H84.7a6 6 0 0 1-5.9-5L78 104h56.6l2.2 3h15.7l2.3-3h59.7l-.7 4.6a6.8 6.8 0 0 1-6.8 5.7z" fill="#FFF"/>
      <path d="M113 4.4v29.8c0 1.4 1.1 2.6 2.5 2.6h2v17a.7.7 0 0 0 1.2.5l14.6-17.5h41.5c1.3 0 2.5-1.2 2.5-2.6V4.4a2.5 2.5 0 0 0-2.5-2.6h-59.3a2.5 2.5 0 0 0-2.5 2.6z" fill="#E0E6ED"/>
      <path d="M118.2 55.9a2 2 0 0 1-2-2V38h-.7a3.9 3.9 0 0 1-3.9-3.9V4.4c0-2.2 1.8-4 4-4h38.8v2.8h-38.9a1.1 1.1 0 0 0-1.1 1.2v29.8a1.2 1.2 0 0 0 1.1 1.2h3.4v16.5l13.8-16.5h42c.7 0 1.2-.5 1.2-1.2V4.4c0-.7-.5-1.2-1.2-1.2h-8.6V.5h8.6c2.2 0 4 1.7 4 3.9v29.8c0 2.2-1.8 4-4 4H134l-14.3 17a2 2 0 0 1-1.5.7z" fill="#D2D7DF"/>
      <path fill="#C8D1DE" d="M157.5.5h5.5v2.6h-5.5zM85.3 49.6h-2.7V22.3c0-2.4 2-4.4 4.5-4.4h21.2v2.7H87c-1 0-1.8.8-1.8 1.7v27.3zM206 105.3v-2.6c1 0 1.8-.7 1.8-1.6V22c0-1-.8-1.7-1.7-1.6h-25.7v-2.6h25.7c2.4-.1 4.4 1.8 4.5 4.2v79c-.1 2.4-2.1 4.3-4.5 4.2z"/>
      <path d="M207 115.6H84.7a7.3 7.3 0 0 1-7.2-6.1l-1.1-7h59l2.2 3.2h14.2l2.4-3.1h62l-1 6.2c-.7 4-4.2 6.9-8.2 6.8zM79.6 105.3l.6 3.7a4.6 4.6 0 0 0 4.5 4H207c2.7 0 5-2 5.4-4.7l.5-3h-57.4l-2.3 3.1H136l-2.2-3H79.6zM118 74.2a6.4 6.4 0 1 1 0-12.7 6.4 6.4 0 0 1 0 12.7zm0-10a3.6 3.6 0 1 0-.2 7.2 3.6 3.6 0 0 0 .1-7.2zM127.8 89.5h-2.7v-4.7a6.7 6.7 0 0 0-13.5 0v4.7h-2.8v-4.7a9.5 9.5 0 0 1 19 0v4.7z" fill="#C8D1DE"/>
      <path fill="#C8D1DE" d="M139.3 90.8H96.6v-39h13.6v2.7H99.3v33.6h37.3V54.5h-10.2v-2.7h13z"/>
      <path d="M129 26.2a6 6 0 1 1 0-11.9 6 6 0 0 1 0 11.9zm0-9.1a3.2 3.2 0 1 0 0 6.4 3.2 3.2 0 0 0 0-6.4zM146.7 26.2a6 6 0 1 1 0-11.9 6 6 0 0 1 0 11.9zm0-9.1a3.2 3.2 0 1 0 0 6.4 3.2 3.2 0 0 0 0-6.4zM164.3 26.2a6 6 0 1 1 0-11.9 6 6 0 0 1 0 11.9zm0-9.1a3.2 3.2 0 1 0 0 6.4 3.2 3.2 0 0 0 0-6.4z" fill="#FFF"/>
      <path fill="#C8D1DE" d="M149 53.1h45.2v2.7H149zM149.5 66.5h45.2v2.7h-45.2zM149.9 79.8h22.6v2.7h-22.6z"/>
      <path d="M97.3 110.5V61.1c0-2.5-2-4.5-4.6-4.5h-7v-5.4H83v5.4h-.4v46h-6.2l1.1 6.9A7.3 7.3 0 0 0 82 115h10.7a4.5 4.5 0 0 0 4.6-4.6z" fill="#E0E6ED"/>
      <rect fill="#FFF" x="26" y="57.9" width="66.3" height="55.8" rx="3.3"/>
      <path d="M89.1 58h-60a3.2 3.2 0 0 0-3.2 3.1v8.5h66.4V61c0-1.7-1.4-3.2-3.2-3.2z" fill="#E0E6ED"/>
      <path fill="#C8D1DE" d="M35.2 51.2h2.7v10.7h-2.7zM42.6 51.2h2.7v10.7h-2.7zM49.9 51.2h2.7v10.7h-2.7zM57.3 51.2H60v10.7h-2.7zM64.7 51.2h2.7v10.7h-2.7zM72 51.2h2.7v10.7H72zM79.4 51.2h2.7v10.7h-2.7z"/>
      <circle fill="#E0E6ED" cx="58.7" cy="92.5" r="17.1"/>
      <circle fill="#FFF" cx="58.7" cy="92.5" r="10.3"/>
      <path d="M51.3 109.4c-2-1-4-2.2-5.6-3.8l2-2c1.3 1.4 3 2.5 4.7 3.2l-1.1 2.6z" fill="#C8D1DE"/>
      <path d="M58.7 111c-1.5 0-3-.3-4.5-.6l.7-2.7A15.7 15.7 0 1 0 46 102l-2.1 1.6a18.4 18.4 0 1 1 14.7 7.3zM26.2 68.2h66.1v2.7H26.2z" fill="#C8D1DE"/>
      <path d="M89.1 115h-60c-2.5 0-4.5-2-4.5-4.5V61.1c0-2.5 2-4.5 4.5-4.5h60c2.5 0 4.5 2 4.5 4.5v49.4c0 2.6-2 4.6-4.5 4.6zm-60-55.7c-1 0-1.8.8-1.8 1.8v49.4c0 1 .8 1.8 1.8 1.8h60c1 0 1.8-.8 1.8-1.8V61.1c0-1-.8-1.8-1.8-1.8h-60z" fill="#C8D1DE"/>
      <g fill="#CBD5E1">
        <path d="M55.5 97a1.4 1.4 0 0 1-1-2.4l5.8-5.8a1.4 1.4 0 1 1 2 2l-5.8 5.8c-.3.3-.6.4-1 .4z"/>
        <path d="M61.4 97c-.4 0-.7-.1-1-.4l-5.9-5.8a1.4 1.4 0 0 1 2-2l5.8 5.8a1.4 1.4 0 0 1-1 2.4z"/>
      </g>
    </g>
  </g>
</svg>
